%TF.GenerationSoftware,KiCad,Pcbnew,6.0.7-f9a2dced07~116~ubuntu20.04.1*%
%TF.CreationDate,2022-10-02T19:47:36+02:00*%
%TF.ProjectId,soundseeker,736f756e-6473-4656-956b-65722e6b6963,0.1*%
%TF.SameCoordinates,Original*%
%TF.FileFunction,Soldermask,Top*%
%TF.FilePolarity,Negative*%
%FSLAX46Y46*%
G04 Gerber Fmt 4.6, Leading zero omitted, Abs format (unit mm)*
G04 Created by KiCad (PCBNEW 6.0.7-f9a2dced07~116~ubuntu20.04.1) date 2022-10-02 19:47:36*
%MOMM*%
%LPD*%
G01*
G04 APERTURE LIST*
G04 Aperture macros list*
%AMRoundRect*
0 Rectangle with rounded corners*
0 $1 Rounding radius*
0 $2 $3 $4 $5 $6 $7 $8 $9 X,Y pos of 4 corners*
0 Add a 4 corners polygon primitive as box body*
4,1,4,$2,$3,$4,$5,$6,$7,$8,$9,$2,$3,0*
0 Add four circle primitives for the rounded corners*
1,1,$1+$1,$2,$3*
1,1,$1+$1,$4,$5*
1,1,$1+$1,$6,$7*
1,1,$1+$1,$8,$9*
0 Add four rect primitives between the rounded corners*
20,1,$1+$1,$2,$3,$4,$5,0*
20,1,$1+$1,$4,$5,$6,$7,0*
20,1,$1+$1,$6,$7,$8,$9,0*
20,1,$1+$1,$8,$9,$2,$3,0*%
G04 Aperture macros list end*
%ADD10R,2.500000X1.800000*%
%ADD11RoundRect,0.250000X-0.337500X-0.475000X0.337500X-0.475000X0.337500X0.475000X-0.337500X0.475000X0*%
%ADD12RoundRect,0.250000X0.650000X-0.412500X0.650000X0.412500X-0.650000X0.412500X-0.650000X-0.412500X0*%
%ADD13RoundRect,0.250000X-0.650000X0.412500X-0.650000X-0.412500X0.650000X-0.412500X0.650000X0.412500X0*%
%ADD14RoundRect,0.250000X0.475000X-0.337500X0.475000X0.337500X-0.475000X0.337500X-0.475000X-0.337500X0*%
%ADD15R,1.560000X0.650000*%
%ADD16RoundRect,0.150000X0.512500X0.150000X-0.512500X0.150000X-0.512500X-0.150000X0.512500X-0.150000X0*%
%ADD17RoundRect,0.250000X0.450000X-0.350000X0.450000X0.350000X-0.450000X0.350000X-0.450000X-0.350000X0*%
%ADD18RoundRect,0.250000X-0.350000X-0.450000X0.350000X-0.450000X0.350000X0.450000X-0.350000X0.450000X0*%
%ADD19RoundRect,0.250000X0.350000X0.450000X-0.350000X0.450000X-0.350000X-0.450000X0.350000X-0.450000X0*%
%ADD20R,1.700000X1.700000*%
%ADD21O,1.700000X1.700000*%
%ADD22RoundRect,0.250000X0.412500X0.650000X-0.412500X0.650000X-0.412500X-0.650000X0.412500X-0.650000X0*%
%ADD23RoundRect,0.150000X0.825000X0.150000X-0.825000X0.150000X-0.825000X-0.150000X0.825000X-0.150000X0*%
%ADD24R,0.650000X1.560000*%
%ADD25C,2.000000*%
%ADD26R,1.700000X3.500000*%
%ADD27R,3.500000X1.700000*%
%ADD28O,1.800000X1.800000*%
%ADD29O,1.500000X1.500000*%
%ADD30R,2.000000X1.500000*%
%ADD31R,2.000000X3.800000*%
%ADD32RoundRect,0.100000X-0.712500X-0.100000X0.712500X-0.100000X0.712500X0.100000X-0.712500X0.100000X0*%
%ADD33RoundRect,0.250000X-1.000000X1.950000X-1.000000X-1.950000X1.000000X-1.950000X1.000000X1.950000X0*%
%ADD34RoundRect,0.250000X-0.450000X0.350000X-0.450000X-0.350000X0.450000X-0.350000X0.450000X0.350000X0*%
%ADD35R,1.150000X3.600000*%
%ADD36RoundRect,0.250000X0.337500X0.475000X-0.337500X0.475000X-0.337500X-0.475000X0.337500X-0.475000X0*%
G04 APERTURE END LIST*
D10*
%TO.C,D1*%
X178225000Y-80975000D03*
X182225000Y-80975000D03*
%TD*%
D11*
%TO.C,C22*%
X132512500Y-80600000D03*
X134587500Y-80600000D03*
%TD*%
D12*
%TO.C,C21*%
X130250000Y-83387500D03*
X130250000Y-80262500D03*
%TD*%
D13*
%TO.C,C20*%
X130300000Y-85487500D03*
X130300000Y-88612500D03*
%TD*%
D14*
%TO.C,C19*%
X128825000Y-76737500D03*
X128825000Y-74662500D03*
%TD*%
%TO.C,C13*%
X177475000Y-105262500D03*
X177475000Y-103187500D03*
%TD*%
D11*
%TO.C,C12*%
X168887500Y-100525000D03*
X170962500Y-100525000D03*
%TD*%
%TO.C,C10*%
X123650000Y-90325000D03*
X125725000Y-90325000D03*
%TD*%
%TO.C,C4*%
X123662500Y-82625000D03*
X125737500Y-82625000D03*
%TD*%
D14*
%TO.C,C3*%
X174425000Y-72787500D03*
X174425000Y-70712500D03*
%TD*%
D12*
%TO.C,C2*%
X180150000Y-72737500D03*
X180150000Y-69612500D03*
%TD*%
%TO.C,C1*%
X177250000Y-72812500D03*
X177250000Y-69687500D03*
%TD*%
D15*
%TO.C,U5*%
X131225000Y-74700000D03*
X131225000Y-75650000D03*
X131225000Y-76600000D03*
X133925000Y-76600000D03*
X133925000Y-75650000D03*
X133925000Y-74700000D03*
%TD*%
D14*
%TO.C,C7*%
X120875000Y-88700000D03*
X120875000Y-90775000D03*
%TD*%
D16*
%TO.C,U4*%
X125912500Y-87675000D03*
X125912500Y-86725000D03*
X125912500Y-85775000D03*
X123637500Y-85775000D03*
X123637500Y-87675000D03*
%TD*%
D17*
%TO.C,R18*%
X129175000Y-107625000D03*
X129175000Y-109625000D03*
%TD*%
D18*
%TO.C,R5*%
X168850000Y-112675000D03*
X170850000Y-112675000D03*
%TD*%
D19*
%TO.C,R12*%
X166875000Y-102800000D03*
X164875000Y-102800000D03*
%TD*%
D20*
%TO.C,J1*%
X193550000Y-108165000D03*
D21*
X193550000Y-105625000D03*
%TD*%
D11*
%TO.C,C17*%
X129350000Y-98500000D03*
X131425000Y-98500000D03*
%TD*%
D20*
%TO.C,J4*%
X146110000Y-69775000D03*
D21*
X148650000Y-69775000D03*
X151190000Y-69775000D03*
%TD*%
D18*
%TO.C,R31*%
X129350000Y-100500000D03*
X131350000Y-100500000D03*
%TD*%
D22*
%TO.C,C15*%
X193725000Y-101475000D03*
X190600000Y-101475000D03*
%TD*%
D23*
%TO.C,U3*%
X187850000Y-105905000D03*
X187850000Y-104635000D03*
X187850000Y-103365000D03*
X187850000Y-102095000D03*
X182900000Y-102095000D03*
X182900000Y-103365000D03*
X182900000Y-104635000D03*
X182900000Y-105905000D03*
%TD*%
D20*
%TO.C,J8*%
X126100000Y-94500000D03*
D21*
X123560000Y-94500000D03*
%TD*%
D24*
%TO.C,U6*%
X132550000Y-85575000D03*
X133500000Y-85575000D03*
X134450000Y-85575000D03*
X134450000Y-82875000D03*
X132550000Y-82875000D03*
%TD*%
D25*
%TO.C,SW1*%
X118350000Y-118675000D03*
X118350000Y-112175000D03*
X113850000Y-118675000D03*
X113850000Y-112175000D03*
%TD*%
D18*
%TO.C,R17*%
X168875000Y-102800000D03*
X170875000Y-102800000D03*
%TD*%
D25*
%TO.C,SW6*%
X188725000Y-120075000D03*
X188725000Y-113575000D03*
X184225000Y-120075000D03*
X184225000Y-113575000D03*
%TD*%
D19*
%TO.C,R24*%
X177475000Y-122650000D03*
X175475000Y-122650000D03*
%TD*%
D25*
%TO.C,SW5*%
X180675000Y-113525000D03*
X180675000Y-120025000D03*
X176175000Y-113525000D03*
X176175000Y-120025000D03*
%TD*%
D22*
%TO.C,C14*%
X186050000Y-107975000D03*
X182925000Y-107975000D03*
%TD*%
D21*
%TO.C,U2*%
X146050000Y-75160000D03*
D26*
X146050000Y-74260000D03*
X148590000Y-74260000D03*
D20*
X148590000Y-75160000D03*
D26*
X151130000Y-74260000D03*
D21*
X151130000Y-75160000D03*
D27*
X138800000Y-123190000D03*
D21*
X139700000Y-123190000D03*
X139700000Y-120650000D03*
D27*
X138800000Y-120650000D03*
X138800000Y-118110000D03*
D20*
X139700000Y-118110000D03*
D27*
X138800000Y-115570000D03*
D21*
X139700000Y-115570000D03*
X139700000Y-113030000D03*
D27*
X138800000Y-113030000D03*
D21*
X139700000Y-110490000D03*
D27*
X138800000Y-110490000D03*
D21*
X139700000Y-107950000D03*
D27*
X138800000Y-107950000D03*
X138800000Y-105410000D03*
D20*
X139700000Y-105410000D03*
D27*
X138800000Y-102870000D03*
D21*
X139700000Y-102870000D03*
D27*
X138800000Y-100330000D03*
D21*
X139700000Y-100330000D03*
X139700000Y-97790000D03*
D27*
X138800000Y-97790000D03*
X138800000Y-95250000D03*
D21*
X139700000Y-95250000D03*
D27*
X138800000Y-92710000D03*
D20*
X139700000Y-92710000D03*
D27*
X138800000Y-90170000D03*
D21*
X139700000Y-90170000D03*
X139700000Y-87630000D03*
D27*
X138800000Y-87630000D03*
X138800000Y-85090000D03*
D21*
X139700000Y-85090000D03*
X139700000Y-82550000D03*
D27*
X138800000Y-82550000D03*
D20*
X139700000Y-80010000D03*
D27*
X138800000Y-80010000D03*
D21*
X139700000Y-77470000D03*
D27*
X138800000Y-77470000D03*
X138800000Y-74930000D03*
D21*
X139700000Y-74930000D03*
X157480000Y-74930000D03*
D27*
X158380000Y-74930000D03*
X158380000Y-77470000D03*
D21*
X157480000Y-77470000D03*
D20*
X157480000Y-80010000D03*
D27*
X158380000Y-80010000D03*
D21*
X157480000Y-82550000D03*
D27*
X158380000Y-82550000D03*
D21*
X157480000Y-85090000D03*
D27*
X158380000Y-85090000D03*
X158380000Y-87630000D03*
D21*
X157480000Y-87630000D03*
D27*
X158380000Y-90170000D03*
D21*
X157480000Y-90170000D03*
D20*
X157480000Y-92710000D03*
D27*
X158380000Y-92710000D03*
X158380000Y-95250000D03*
D21*
X157480000Y-95250000D03*
X157480000Y-97790000D03*
D27*
X158380000Y-97790000D03*
D21*
X157480000Y-100330000D03*
D27*
X158380000Y-100330000D03*
D21*
X157480000Y-102870000D03*
D27*
X158380000Y-102870000D03*
X158380000Y-105410000D03*
D20*
X157480000Y-105410000D03*
D21*
X157480000Y-107950000D03*
D27*
X158380000Y-107950000D03*
X158380000Y-110490000D03*
D21*
X157480000Y-110490000D03*
X157480000Y-113030000D03*
D27*
X158380000Y-113030000D03*
D21*
X157480000Y-115570000D03*
D27*
X158380000Y-115570000D03*
X158380000Y-118110000D03*
D20*
X157480000Y-118110000D03*
D21*
X157480000Y-120650000D03*
D27*
X158380000Y-120650000D03*
D21*
X157480000Y-123190000D03*
D27*
X158380000Y-123190000D03*
D28*
X145865000Y-123060000D03*
D29*
X151015000Y-120030000D03*
X146165000Y-120030000D03*
D28*
X151315000Y-123060000D03*
%TD*%
D18*
%TO.C,R9*%
X168850000Y-107600000D03*
X170850000Y-107600000D03*
%TD*%
%TO.C,R20*%
X176425000Y-100625000D03*
X178425000Y-100625000D03*
%TD*%
D11*
%TO.C,C16*%
X129350000Y-94475000D03*
X131425000Y-94475000D03*
%TD*%
D18*
%TO.C,R7*%
X168850000Y-110150000D03*
X170850000Y-110150000D03*
%TD*%
D30*
%TO.C,Q1*%
X185250000Y-74950000D03*
D31*
X191550000Y-77250000D03*
D30*
X185250000Y-77250000D03*
X185250000Y-79550000D03*
%TD*%
D25*
%TO.C,SW4*%
X125925000Y-123350000D03*
X125925000Y-116850000D03*
X121425000Y-123350000D03*
X121425000Y-116850000D03*
%TD*%
D17*
%TO.C,R28*%
X120875000Y-84900000D03*
X120875000Y-86900000D03*
%TD*%
%TO.C,R13*%
X117275000Y-107700000D03*
X117275000Y-109700000D03*
%TD*%
%TO.C,R19*%
X131250000Y-107625000D03*
X131250000Y-109625000D03*
%TD*%
D11*
%TO.C,C18*%
X129350000Y-102500000D03*
X131425000Y-102500000D03*
%TD*%
D32*
%TO.C,U1*%
X172787500Y-75475000D03*
X172787500Y-76125000D03*
X172787500Y-76775000D03*
X172787500Y-77425000D03*
X177012500Y-77425000D03*
X177012500Y-76775000D03*
X177012500Y-76125000D03*
X177012500Y-75475000D03*
%TD*%
D18*
%TO.C,R3*%
X168850000Y-114950000D03*
X170850000Y-114950000D03*
%TD*%
D33*
%TO.C,C8*%
X191175000Y-87575000D03*
X191175000Y-94975000D03*
%TD*%
%TO.C,C11*%
X171500000Y-87425000D03*
X171500000Y-94825000D03*
%TD*%
D19*
%TO.C,R8*%
X166875000Y-107600000D03*
X164875000Y-107600000D03*
%TD*%
D18*
%TO.C,R27*%
X123650000Y-80525000D03*
X125650000Y-80525000D03*
%TD*%
D19*
%TO.C,R4*%
X166912500Y-112675000D03*
X164912500Y-112675000D03*
%TD*%
D20*
%TO.C,J5*%
X116250000Y-96025000D03*
D21*
X116250000Y-93485000D03*
X116250000Y-90945000D03*
%TD*%
D18*
%TO.C,R11*%
X168875000Y-105175000D03*
X170875000Y-105175000D03*
%TD*%
D34*
%TO.C,R16*%
X172850000Y-79675000D03*
X172850000Y-81675000D03*
%TD*%
D19*
%TO.C,R32*%
X134600000Y-88125000D03*
X132600000Y-88125000D03*
%TD*%
%TO.C,R26*%
X125650000Y-78500000D03*
X123650000Y-78500000D03*
%TD*%
D35*
%TO.C,L1*%
X179475000Y-76575000D03*
X182425000Y-76575000D03*
%TD*%
D25*
%TO.C,SW2*%
X133550000Y-112150000D03*
X133550000Y-118650000D03*
X129050000Y-118650000D03*
X129050000Y-112150000D03*
%TD*%
D20*
%TO.C,J3*%
X164450000Y-118000000D03*
D21*
X164450000Y-120540000D03*
X164450000Y-123080000D03*
%TD*%
D18*
%TO.C,R22*%
X185550000Y-96925000D03*
X187550000Y-96925000D03*
%TD*%
D19*
%TO.C,R1*%
X170837500Y-117375000D03*
X168837500Y-117375000D03*
%TD*%
D33*
%TO.C,C9*%
X181425000Y-87425000D03*
X181425000Y-94825000D03*
%TD*%
D17*
%TO.C,R21*%
X180175000Y-105225000D03*
X180175000Y-103225000D03*
%TD*%
D18*
%TO.C,R23*%
X190575000Y-98775000D03*
X192575000Y-98775000D03*
%TD*%
D19*
%TO.C,R6*%
X166912500Y-110150000D03*
X164912500Y-110150000D03*
%TD*%
D17*
%TO.C,R15*%
X175150000Y-81675000D03*
X175150000Y-79675000D03*
%TD*%
D25*
%TO.C,SW3*%
X125925000Y-113750000D03*
X125925000Y-107250000D03*
X121425000Y-113750000D03*
X121425000Y-107250000D03*
%TD*%
D36*
%TO.C,C5*%
X166925000Y-100525000D03*
X164850000Y-100525000D03*
%TD*%
D18*
%TO.C,R29*%
X129350000Y-92475000D03*
X131350000Y-92475000D03*
%TD*%
D19*
%TO.C,R2*%
X166912500Y-114950000D03*
X164912500Y-114950000D03*
%TD*%
%TO.C,R25*%
X185600000Y-122700000D03*
X183600000Y-122700000D03*
%TD*%
D20*
%TO.C,J6*%
X126100000Y-98175000D03*
D21*
X123560000Y-98175000D03*
%TD*%
D19*
%TO.C,R10*%
X166875000Y-105175000D03*
X164875000Y-105175000D03*
%TD*%
D18*
%TO.C,R30*%
X129350000Y-96475000D03*
X131350000Y-96475000D03*
%TD*%
D20*
%TO.C,J7*%
X126100000Y-101850000D03*
D21*
X123560000Y-101850000D03*
%TD*%
D17*
%TO.C,R14*%
X133300000Y-107625000D03*
X133300000Y-109625000D03*
%TD*%
D20*
%TO.C,J2*%
X164500000Y-93150000D03*
D21*
X164500000Y-90610000D03*
X164500000Y-88070000D03*
X164500000Y-85530000D03*
X164500000Y-82990000D03*
X164500000Y-80450000D03*
X164500000Y-77910000D03*
X164500000Y-75370000D03*
%TD*%
M02*
