%TF.GenerationSoftware,KiCad,Pcbnew,6.0.7-f9a2dced07~116~ubuntu20.04.1*%
%TF.CreationDate,2022-10-02T19:47:36+02:00*%
%TF.ProjectId,soundseeker,736f756e-6473-4656-956b-65722e6b6963,0.1*%
%TF.SameCoordinates,Original*%
%TF.FileFunction,Soldermask,Bot*%
%TF.FilePolarity,Negative*%
%FSLAX46Y46*%
G04 Gerber Fmt 4.6, Leading zero omitted, Abs format (unit mm)*
G04 Created by KiCad (PCBNEW 6.0.7-f9a2dced07~116~ubuntu20.04.1) date 2022-10-02 19:47:36*
%MOMM*%
%LPD*%
G01*
G04 APERTURE LIST*
%ADD10R,1.700000X1.700000*%
%ADD11O,1.700000X1.700000*%
%ADD12C,2.000000*%
%ADD13O,1.800000X1.800000*%
%ADD14O,1.500000X1.500000*%
G04 APERTURE END LIST*
D10*
%TO.C,J1*%
X193550000Y-108165000D03*
D11*
X193550000Y-105625000D03*
%TD*%
D10*
%TO.C,J4*%
X146110000Y-69775000D03*
D11*
X148650000Y-69775000D03*
X151190000Y-69775000D03*
%TD*%
D10*
%TO.C,J8*%
X126100000Y-94500000D03*
D11*
X123560000Y-94500000D03*
%TD*%
D12*
%TO.C,SW1*%
X118350000Y-118675000D03*
X118350000Y-112175000D03*
X113850000Y-118675000D03*
X113850000Y-112175000D03*
%TD*%
%TO.C,SW6*%
X188725000Y-120075000D03*
X188725000Y-113575000D03*
X184225000Y-120075000D03*
X184225000Y-113575000D03*
%TD*%
%TO.C,SW5*%
X180675000Y-113525000D03*
X180675000Y-120025000D03*
X176175000Y-113525000D03*
X176175000Y-120025000D03*
%TD*%
D11*
%TO.C,U2*%
X146050000Y-75160000D03*
D10*
X148590000Y-75160000D03*
D11*
X151130000Y-75160000D03*
X139700000Y-123190000D03*
X139700000Y-120650000D03*
D10*
X139700000Y-118110000D03*
D11*
X139700000Y-115570000D03*
X139700000Y-113030000D03*
X139700000Y-110490000D03*
X139700000Y-107950000D03*
D10*
X139700000Y-105410000D03*
D11*
X139700000Y-102870000D03*
X139700000Y-100330000D03*
X139700000Y-97790000D03*
X139700000Y-95250000D03*
D10*
X139700000Y-92710000D03*
D11*
X139700000Y-90170000D03*
X139700000Y-87630000D03*
X139700000Y-85090000D03*
X139700000Y-82550000D03*
D10*
X139700000Y-80010000D03*
D11*
X139700000Y-77470000D03*
X139700000Y-74930000D03*
X157480000Y-74930000D03*
X157480000Y-77470000D03*
D10*
X157480000Y-80010000D03*
D11*
X157480000Y-82550000D03*
X157480000Y-85090000D03*
X157480000Y-87630000D03*
X157480000Y-90170000D03*
D10*
X157480000Y-92710000D03*
D11*
X157480000Y-95250000D03*
X157480000Y-97790000D03*
X157480000Y-100330000D03*
X157480000Y-102870000D03*
D10*
X157480000Y-105410000D03*
D11*
X157480000Y-107950000D03*
X157480000Y-110490000D03*
X157480000Y-113030000D03*
X157480000Y-115570000D03*
D10*
X157480000Y-118110000D03*
D11*
X157480000Y-120650000D03*
X157480000Y-123190000D03*
D13*
X145865000Y-123060000D03*
D14*
X151015000Y-120030000D03*
X146165000Y-120030000D03*
D13*
X151315000Y-123060000D03*
%TD*%
D12*
%TO.C,SW4*%
X125925000Y-123350000D03*
X125925000Y-116850000D03*
X121425000Y-123350000D03*
X121425000Y-116850000D03*
%TD*%
D10*
%TO.C,J5*%
X116250000Y-96025000D03*
D11*
X116250000Y-93485000D03*
X116250000Y-90945000D03*
%TD*%
D12*
%TO.C,SW2*%
X133550000Y-112150000D03*
X133550000Y-118650000D03*
X129050000Y-118650000D03*
X129050000Y-112150000D03*
%TD*%
D10*
%TO.C,J3*%
X164450000Y-118000000D03*
D11*
X164450000Y-120540000D03*
X164450000Y-123080000D03*
%TD*%
D12*
%TO.C,SW3*%
X125925000Y-113750000D03*
X125925000Y-107250000D03*
X121425000Y-113750000D03*
X121425000Y-107250000D03*
%TD*%
D10*
%TO.C,J6*%
X126100000Y-98175000D03*
D11*
X123560000Y-98175000D03*
%TD*%
D10*
%TO.C,J7*%
X126100000Y-101850000D03*
D11*
X123560000Y-101850000D03*
%TD*%
D10*
%TO.C,J2*%
X164500000Y-93150000D03*
D11*
X164500000Y-90610000D03*
X164500000Y-88070000D03*
X164500000Y-85530000D03*
X164500000Y-82990000D03*
X164500000Y-80450000D03*
X164500000Y-77910000D03*
X164500000Y-75370000D03*
%TD*%
M02*
