%TF.GenerationSoftware,KiCad,Pcbnew,6.0.7-f9a2dced07~116~ubuntu20.04.1*%
%TF.CreationDate,2022-10-02T17:37:33+02:00*%
%TF.ProjectId,soundseeker,736f756e-6473-4656-956b-65722e6b6963,0.1*%
%TF.SameCoordinates,Original*%
%TF.FileFunction,Paste,Top*%
%TF.FilePolarity,Positive*%
%FSLAX46Y46*%
G04 Gerber Fmt 4.6, Leading zero omitted, Abs format (unit mm)*
G04 Created by KiCad (PCBNEW 6.0.7-f9a2dced07~116~ubuntu20.04.1) date 2022-10-02 17:37:33*
%MOMM*%
%LPD*%
G01*
G04 APERTURE LIST*
G04 Aperture macros list*
%AMRoundRect*
0 Rectangle with rounded corners*
0 $1 Rounding radius*
0 $2 $3 $4 $5 $6 $7 $8 $9 X,Y pos of 4 corners*
0 Add a 4 corners polygon primitive as box body*
4,1,4,$2,$3,$4,$5,$6,$7,$8,$9,$2,$3,0*
0 Add four circle primitives for the rounded corners*
1,1,$1+$1,$2,$3*
1,1,$1+$1,$4,$5*
1,1,$1+$1,$6,$7*
1,1,$1+$1,$8,$9*
0 Add four rect primitives between the rounded corners*
20,1,$1+$1,$2,$3,$4,$5,0*
20,1,$1+$1,$4,$5,$6,$7,0*
20,1,$1+$1,$6,$7,$8,$9,0*
20,1,$1+$1,$8,$9,$2,$3,0*%
G04 Aperture macros list end*
%ADD10R,1.560000X0.650000*%
%ADD11RoundRect,0.250000X0.475000X-0.337500X0.475000X0.337500X-0.475000X0.337500X-0.475000X-0.337500X0*%
%ADD12RoundRect,0.150000X0.512500X0.150000X-0.512500X0.150000X-0.512500X-0.150000X0.512500X-0.150000X0*%
%ADD13RoundRect,0.250000X0.450000X-0.350000X0.450000X0.350000X-0.450000X0.350000X-0.450000X-0.350000X0*%
%ADD14RoundRect,0.250000X-0.350000X-0.450000X0.350000X-0.450000X0.350000X0.450000X-0.350000X0.450000X0*%
%ADD15RoundRect,0.250000X0.350000X0.450000X-0.350000X0.450000X-0.350000X-0.450000X0.350000X-0.450000X0*%
%ADD16RoundRect,0.250000X-0.337500X-0.475000X0.337500X-0.475000X0.337500X0.475000X-0.337500X0.475000X0*%
%ADD17RoundRect,0.250000X0.412500X0.650000X-0.412500X0.650000X-0.412500X-0.650000X0.412500X-0.650000X0*%
%ADD18RoundRect,0.150000X0.825000X0.150000X-0.825000X0.150000X-0.825000X-0.150000X0.825000X-0.150000X0*%
%ADD19RoundRect,0.250000X0.625000X-0.400000X0.625000X0.400000X-0.625000X0.400000X-0.625000X-0.400000X0*%
%ADD20R,0.650000X1.560000*%
%ADD21R,2.000000X1.500000*%
%ADD22R,2.000000X3.800000*%
%ADD23RoundRect,0.100000X-0.712500X-0.100000X0.712500X-0.100000X0.712500X0.100000X-0.712500X0.100000X0*%
%ADD24RoundRect,0.250000X-1.000000X1.950000X-1.000000X-1.950000X1.000000X-1.950000X1.000000X1.950000X0*%
%ADD25R,1.400000X2.100000*%
%ADD26RoundRect,0.250000X-0.625000X0.400000X-0.625000X-0.400000X0.625000X-0.400000X0.625000X0.400000X0*%
%ADD27RoundRect,0.250000X-0.450000X0.350000X-0.450000X-0.350000X0.450000X-0.350000X0.450000X0.350000X0*%
%ADD28R,1.150000X3.600000*%
%ADD29RoundRect,0.250000X0.337500X0.475000X-0.337500X0.475000X-0.337500X-0.475000X0.337500X-0.475000X0*%
G04 APERTURE END LIST*
D10*
%TO.C,U5*%
X131225000Y-74700000D03*
X131225000Y-75650000D03*
X131225000Y-76600000D03*
X133925000Y-76600000D03*
X133925000Y-75650000D03*
X133925000Y-74700000D03*
%TD*%
D11*
%TO.C,C7*%
X120875000Y-88700000D03*
X120875000Y-90775000D03*
%TD*%
D12*
%TO.C,U4*%
X125912500Y-87675000D03*
X125912500Y-86725000D03*
X125912500Y-85775000D03*
X123637500Y-85775000D03*
X123637500Y-87675000D03*
%TD*%
D13*
%TO.C,C3*%
X174425000Y-72750000D03*
X174425000Y-70750000D03*
%TD*%
%TO.C,R18*%
X129175000Y-107625000D03*
X129175000Y-109625000D03*
%TD*%
D14*
%TO.C,R5*%
X168850000Y-112675000D03*
X170850000Y-112675000D03*
%TD*%
D15*
%TO.C,R12*%
X166875000Y-102800000D03*
X164875000Y-102800000D03*
%TD*%
D13*
%TO.C,C13*%
X177475000Y-105225000D03*
X177475000Y-103225000D03*
%TD*%
D16*
%TO.C,C17*%
X129350000Y-98500000D03*
X131425000Y-98500000D03*
%TD*%
D14*
%TO.C,C10*%
X123687500Y-90325000D03*
X125687500Y-90325000D03*
%TD*%
%TO.C,R31*%
X129350000Y-100500000D03*
X131350000Y-100500000D03*
%TD*%
D17*
%TO.C,C15*%
X193725000Y-101475000D03*
X190600000Y-101475000D03*
%TD*%
D18*
%TO.C,U3*%
X187850000Y-105905000D03*
X187850000Y-104635000D03*
X187850000Y-103365000D03*
X187850000Y-102095000D03*
X182900000Y-102095000D03*
X182900000Y-103365000D03*
X182900000Y-104635000D03*
X182900000Y-105905000D03*
%TD*%
D19*
%TO.C,C21*%
X130250000Y-83375000D03*
X130250000Y-80275000D03*
%TD*%
%TO.C,C2*%
X180150000Y-72725000D03*
X180150000Y-69625000D03*
%TD*%
D20*
%TO.C,U6*%
X132550000Y-85575000D03*
X133500000Y-85575000D03*
X134450000Y-85575000D03*
X134450000Y-82875000D03*
X132550000Y-82875000D03*
%TD*%
D14*
%TO.C,R17*%
X168875000Y-102800000D03*
X170875000Y-102800000D03*
%TD*%
D15*
%TO.C,R24*%
X177475000Y-122650000D03*
X175475000Y-122650000D03*
%TD*%
D17*
%TO.C,C14*%
X186050000Y-107975000D03*
X182925000Y-107975000D03*
%TD*%
D14*
%TO.C,R9*%
X168850000Y-107600000D03*
X170850000Y-107600000D03*
%TD*%
%TO.C,R20*%
X176425000Y-100625000D03*
X178425000Y-100625000D03*
%TD*%
D16*
%TO.C,C16*%
X129350000Y-94475000D03*
X131425000Y-94475000D03*
%TD*%
D14*
%TO.C,R7*%
X168850000Y-110150000D03*
X170850000Y-110150000D03*
%TD*%
D21*
%TO.C,Q1*%
X185250000Y-74950000D03*
D22*
X191550000Y-77250000D03*
D21*
X185250000Y-77250000D03*
X185250000Y-79550000D03*
%TD*%
D13*
%TO.C,C19*%
X128825000Y-76700000D03*
X128825000Y-74700000D03*
%TD*%
%TO.C,R28*%
X120875000Y-84900000D03*
X120875000Y-86900000D03*
%TD*%
%TO.C,R13*%
X117275000Y-107700000D03*
X117275000Y-109700000D03*
%TD*%
D14*
%TO.C,C4*%
X123700000Y-82625000D03*
X125700000Y-82625000D03*
%TD*%
D13*
%TO.C,R19*%
X131250000Y-107625000D03*
X131250000Y-109625000D03*
%TD*%
D16*
%TO.C,C18*%
X129350000Y-102500000D03*
X131425000Y-102500000D03*
%TD*%
D23*
%TO.C,U1*%
X172787500Y-75475000D03*
X172787500Y-76125000D03*
X172787500Y-76775000D03*
X172787500Y-77425000D03*
X177012500Y-77425000D03*
X177012500Y-76775000D03*
X177012500Y-76125000D03*
X177012500Y-75475000D03*
%TD*%
D14*
%TO.C,R3*%
X168850000Y-114950000D03*
X170850000Y-114950000D03*
%TD*%
D24*
%TO.C,C8*%
X191175000Y-87575000D03*
X191175000Y-94975000D03*
%TD*%
%TO.C,C11*%
X171500000Y-87425000D03*
X171500000Y-94825000D03*
%TD*%
D15*
%TO.C,R8*%
X166875000Y-107600000D03*
X164875000Y-107600000D03*
%TD*%
D14*
%TO.C,R27*%
X123650000Y-80500000D03*
X125650000Y-80500000D03*
%TD*%
D15*
%TO.C,R4*%
X166912500Y-112675000D03*
X164912500Y-112675000D03*
%TD*%
D19*
%TO.C,C1*%
X177250000Y-72800000D03*
X177250000Y-69700000D03*
%TD*%
D25*
%TO.C,D1*%
X178025000Y-80975000D03*
X182425000Y-80975000D03*
%TD*%
D26*
%TO.C,C20*%
X130300000Y-85500000D03*
X130300000Y-88600000D03*
%TD*%
D14*
%TO.C,C22*%
X132550000Y-80600000D03*
X134550000Y-80600000D03*
%TD*%
%TO.C,R11*%
X168875000Y-105175000D03*
X170875000Y-105175000D03*
%TD*%
D27*
%TO.C,R16*%
X172850000Y-79675000D03*
X172850000Y-81675000D03*
%TD*%
D15*
%TO.C,R32*%
X134600000Y-88125000D03*
X132600000Y-88125000D03*
%TD*%
%TO.C,R26*%
X125650000Y-78500000D03*
X123650000Y-78500000D03*
%TD*%
D28*
%TO.C,L1*%
X179475000Y-76575000D03*
X182425000Y-76575000D03*
%TD*%
D14*
%TO.C,R22*%
X185550000Y-96925000D03*
X187550000Y-96925000D03*
%TD*%
D15*
%TO.C,R1*%
X170837500Y-117375000D03*
X168837500Y-117375000D03*
%TD*%
D24*
%TO.C,C9*%
X181425000Y-87425000D03*
X181425000Y-94825000D03*
%TD*%
D13*
%TO.C,R21*%
X180175000Y-105225000D03*
X180175000Y-103225000D03*
%TD*%
D14*
%TO.C,R23*%
X190575000Y-98775000D03*
X192575000Y-98775000D03*
%TD*%
D15*
%TO.C,R6*%
X166912500Y-110150000D03*
X164912500Y-110150000D03*
%TD*%
D14*
%TO.C,C12*%
X168925000Y-100525000D03*
X170925000Y-100525000D03*
%TD*%
D13*
%TO.C,R15*%
X175150000Y-81675000D03*
X175150000Y-79675000D03*
%TD*%
D29*
%TO.C,C5*%
X166925000Y-100525000D03*
X164850000Y-100525000D03*
%TD*%
D14*
%TO.C,R29*%
X129350000Y-92475000D03*
X131350000Y-92475000D03*
%TD*%
D15*
%TO.C,R2*%
X166912500Y-114950000D03*
X164912500Y-114950000D03*
%TD*%
%TO.C,R25*%
X185600000Y-122700000D03*
X183600000Y-122700000D03*
%TD*%
%TO.C,R10*%
X166875000Y-105175000D03*
X164875000Y-105175000D03*
%TD*%
D14*
%TO.C,R30*%
X129350000Y-96475000D03*
X131350000Y-96475000D03*
%TD*%
D13*
%TO.C,R14*%
X133300000Y-107625000D03*
X133300000Y-109625000D03*
%TD*%
M02*
