%TF.GenerationSoftware,KiCad,Pcbnew,6.0.7-f9a2dced07~116~ubuntu20.04.1*%
%TF.CreationDate,2022-10-02T17:37:33+02:00*%
%TF.ProjectId,soundseeker,736f756e-6473-4656-956b-65722e6b6963,0.1*%
%TF.SameCoordinates,Original*%
%TF.FileFunction,Legend,Top*%
%TF.FilePolarity,Positive*%
%FSLAX46Y46*%
G04 Gerber Fmt 4.6, Leading zero omitted, Abs format (unit mm)*
G04 Created by KiCad (PCBNEW 6.0.7-f9a2dced07~116~ubuntu20.04.1) date 2022-10-02 17:37:33*
%MOMM*%
%LPD*%
G01*
G04 APERTURE LIST*
%ADD10C,0.150000*%
%ADD11C,0.200000*%
%ADD12C,0.120000*%
G04 APERTURE END LIST*
D10*
X117762976Y-68944761D02*
X117905833Y-68992380D01*
X118143928Y-68992380D01*
X118239166Y-68944761D01*
X118286785Y-68897142D01*
X118334404Y-68801904D01*
X118334404Y-68706666D01*
X118286785Y-68611428D01*
X118239166Y-68563809D01*
X118143928Y-68516190D01*
X117953452Y-68468571D01*
X117858214Y-68420952D01*
X117810595Y-68373333D01*
X117762976Y-68278095D01*
X117762976Y-68182857D01*
X117810595Y-68087619D01*
X117858214Y-68040000D01*
X117953452Y-67992380D01*
X118191547Y-67992380D01*
X118334404Y-68040000D01*
X118905833Y-68992380D02*
X118810595Y-68944761D01*
X118762976Y-68897142D01*
X118715357Y-68801904D01*
X118715357Y-68516190D01*
X118762976Y-68420952D01*
X118810595Y-68373333D01*
X118905833Y-68325714D01*
X119048690Y-68325714D01*
X119143928Y-68373333D01*
X119191547Y-68420952D01*
X119239166Y-68516190D01*
X119239166Y-68801904D01*
X119191547Y-68897142D01*
X119143928Y-68944761D01*
X119048690Y-68992380D01*
X118905833Y-68992380D01*
X120096309Y-68325714D02*
X120096309Y-68992380D01*
X119667738Y-68325714D02*
X119667738Y-68849523D01*
X119715357Y-68944761D01*
X119810595Y-68992380D01*
X119953452Y-68992380D01*
X120048690Y-68944761D01*
X120096309Y-68897142D01*
X120572500Y-68325714D02*
X120572500Y-68992380D01*
X120572500Y-68420952D02*
X120620119Y-68373333D01*
X120715357Y-68325714D01*
X120858214Y-68325714D01*
X120953452Y-68373333D01*
X121001071Y-68468571D01*
X121001071Y-68992380D01*
X121905833Y-68992380D02*
X121905833Y-67992380D01*
X121905833Y-68944761D02*
X121810595Y-68992380D01*
X121620119Y-68992380D01*
X121524880Y-68944761D01*
X121477261Y-68897142D01*
X121429642Y-68801904D01*
X121429642Y-68516190D01*
X121477261Y-68420952D01*
X121524880Y-68373333D01*
X121620119Y-68325714D01*
X121810595Y-68325714D01*
X121905833Y-68373333D01*
X122334404Y-68944761D02*
X122429642Y-68992380D01*
X122620119Y-68992380D01*
X122715357Y-68944761D01*
X122762976Y-68849523D01*
X122762976Y-68801904D01*
X122715357Y-68706666D01*
X122620119Y-68659047D01*
X122477261Y-68659047D01*
X122382023Y-68611428D01*
X122334404Y-68516190D01*
X122334404Y-68468571D01*
X122382023Y-68373333D01*
X122477261Y-68325714D01*
X122620119Y-68325714D01*
X122715357Y-68373333D01*
X123572500Y-68944761D02*
X123477261Y-68992380D01*
X123286785Y-68992380D01*
X123191547Y-68944761D01*
X123143928Y-68849523D01*
X123143928Y-68468571D01*
X123191547Y-68373333D01*
X123286785Y-68325714D01*
X123477261Y-68325714D01*
X123572500Y-68373333D01*
X123620119Y-68468571D01*
X123620119Y-68563809D01*
X123143928Y-68659047D01*
X124429642Y-68944761D02*
X124334404Y-68992380D01*
X124143928Y-68992380D01*
X124048690Y-68944761D01*
X124001071Y-68849523D01*
X124001071Y-68468571D01*
X124048690Y-68373333D01*
X124143928Y-68325714D01*
X124334404Y-68325714D01*
X124429642Y-68373333D01*
X124477261Y-68468571D01*
X124477261Y-68563809D01*
X124001071Y-68659047D01*
X124905833Y-68992380D02*
X124905833Y-67992380D01*
X125001071Y-68611428D02*
X125286785Y-68992380D01*
X125286785Y-68325714D02*
X124905833Y-68706666D01*
X126096309Y-68944761D02*
X126001071Y-68992380D01*
X125810595Y-68992380D01*
X125715357Y-68944761D01*
X125667738Y-68849523D01*
X125667738Y-68468571D01*
X125715357Y-68373333D01*
X125810595Y-68325714D01*
X126001071Y-68325714D01*
X126096309Y-68373333D01*
X126143928Y-68468571D01*
X126143928Y-68563809D01*
X125667738Y-68659047D01*
X126572500Y-68992380D02*
X126572500Y-68325714D01*
X126572500Y-68516190D02*
X126620119Y-68420952D01*
X126667738Y-68373333D01*
X126762976Y-68325714D01*
X126858214Y-68325714D01*
X117715357Y-69935714D02*
X117953452Y-70602380D01*
X118191547Y-69935714D01*
X118762976Y-69602380D02*
X118858214Y-69602380D01*
X118953452Y-69650000D01*
X119001071Y-69697619D01*
X119048690Y-69792857D01*
X119096309Y-69983333D01*
X119096309Y-70221428D01*
X119048690Y-70411904D01*
X119001071Y-70507142D01*
X118953452Y-70554761D01*
X118858214Y-70602380D01*
X118762976Y-70602380D01*
X118667738Y-70554761D01*
X118620119Y-70507142D01*
X118572500Y-70411904D01*
X118524880Y-70221428D01*
X118524880Y-69983333D01*
X118572500Y-69792857D01*
X118620119Y-69697619D01*
X118667738Y-69650000D01*
X118762976Y-69602380D01*
X119524880Y-70507142D02*
X119572500Y-70554761D01*
X119524880Y-70602380D01*
X119477261Y-70554761D01*
X119524880Y-70507142D01*
X119524880Y-70602380D01*
X120524880Y-70602380D02*
X119953452Y-70602380D01*
X120239166Y-70602380D02*
X120239166Y-69602380D01*
X120143928Y-69745238D01*
X120048690Y-69840476D01*
X119953452Y-69888095D01*
X118001071Y-71212380D02*
X118096309Y-71212380D01*
X118191547Y-71260000D01*
X118239166Y-71307619D01*
X118286785Y-71402857D01*
X118334404Y-71593333D01*
X118334404Y-71831428D01*
X118286785Y-72021904D01*
X118239166Y-72117142D01*
X118191547Y-72164761D01*
X118096309Y-72212380D01*
X118001071Y-72212380D01*
X117905833Y-72164761D01*
X117858214Y-72117142D01*
X117810595Y-72021904D01*
X117762976Y-71831428D01*
X117762976Y-71593333D01*
X117810595Y-71402857D01*
X117858214Y-71307619D01*
X117905833Y-71260000D01*
X118001071Y-71212380D01*
X118810595Y-72212380D02*
X119001071Y-72212380D01*
X119096309Y-72164761D01*
X119143928Y-72117142D01*
X119239166Y-71974285D01*
X119286785Y-71783809D01*
X119286785Y-71402857D01*
X119239166Y-71307619D01*
X119191547Y-71260000D01*
X119096309Y-71212380D01*
X118905833Y-71212380D01*
X118810595Y-71260000D01*
X118762976Y-71307619D01*
X118715357Y-71402857D01*
X118715357Y-71640952D01*
X118762976Y-71736190D01*
X118810595Y-71783809D01*
X118905833Y-71831428D01*
X119096309Y-71831428D01*
X119191547Y-71783809D01*
X119239166Y-71736190D01*
X119286785Y-71640952D01*
X119715357Y-72117142D02*
X119762976Y-72164761D01*
X119715357Y-72212380D01*
X119667738Y-72164761D01*
X119715357Y-72117142D01*
X119715357Y-72212380D01*
X120143928Y-71307619D02*
X120191547Y-71260000D01*
X120286785Y-71212380D01*
X120524880Y-71212380D01*
X120620119Y-71260000D01*
X120667738Y-71307619D01*
X120715357Y-71402857D01*
X120715357Y-71498095D01*
X120667738Y-71640952D01*
X120096309Y-72212380D01*
X120715357Y-72212380D01*
X121096309Y-71307619D02*
X121143928Y-71260000D01*
X121239166Y-71212380D01*
X121477261Y-71212380D01*
X121572500Y-71260000D01*
X121620119Y-71307619D01*
X121667738Y-71402857D01*
X121667738Y-71498095D01*
X121620119Y-71640952D01*
X121048690Y-72212380D01*
X121667738Y-72212380D01*
D11*
X118396428Y-102938095D02*
X119077380Y-102071428D01*
X118396428Y-102071428D02*
X119077380Y-102938095D01*
X119510714Y-101761904D02*
X119572619Y-101700000D01*
X119696428Y-101638095D01*
X120005952Y-101638095D01*
X120129761Y-101700000D01*
X120191666Y-101761904D01*
X120253571Y-101885714D01*
X120253571Y-102009523D01*
X120191666Y-102195238D01*
X119448809Y-102938095D01*
X120253571Y-102938095D01*
X121058333Y-101638095D02*
X121182142Y-101638095D01*
X121305952Y-101700000D01*
X121367857Y-101761904D01*
X121429761Y-101885714D01*
X121491666Y-102133333D01*
X121491666Y-102442857D01*
X121429761Y-102690476D01*
X121367857Y-102814285D01*
X121305952Y-102876190D01*
X121182142Y-102938095D01*
X121058333Y-102938095D01*
X120934523Y-102876190D01*
X120872619Y-102814285D01*
X120810714Y-102690476D01*
X120748809Y-102442857D01*
X120748809Y-102133333D01*
X120810714Y-101885714D01*
X120872619Y-101761904D01*
X120934523Y-101700000D01*
X121058333Y-101638095D01*
X118421428Y-99188095D02*
X119102380Y-98321428D01*
X118421428Y-98321428D02*
X119102380Y-99188095D01*
X120278571Y-99188095D02*
X119535714Y-99188095D01*
X119907142Y-99188095D02*
X119907142Y-97888095D01*
X119783333Y-98073809D01*
X119659523Y-98197619D01*
X119535714Y-98259523D01*
X121083333Y-97888095D02*
X121207142Y-97888095D01*
X121330952Y-97950000D01*
X121392857Y-98011904D01*
X121454761Y-98135714D01*
X121516666Y-98383333D01*
X121516666Y-98692857D01*
X121454761Y-98940476D01*
X121392857Y-99064285D01*
X121330952Y-99126190D01*
X121207142Y-99188095D01*
X121083333Y-99188095D01*
X120959523Y-99126190D01*
X120897619Y-99064285D01*
X120835714Y-98940476D01*
X120773809Y-98692857D01*
X120773809Y-98383333D01*
X120835714Y-98135714D01*
X120897619Y-98011904D01*
X120959523Y-97950000D01*
X121083333Y-97888095D01*
X118415476Y-95288095D02*
X119096428Y-94421428D01*
X118415476Y-94421428D02*
X119096428Y-95288095D01*
X119529761Y-94111904D02*
X119591666Y-94050000D01*
X119715476Y-93988095D01*
X120025000Y-93988095D01*
X120148809Y-94050000D01*
X120210714Y-94111904D01*
X120272619Y-94235714D01*
X120272619Y-94359523D01*
X120210714Y-94545238D01*
X119467857Y-95288095D01*
X120272619Y-95288095D01*
D10*
%TO.C,U5*%
X131563095Y-72627380D02*
X131563095Y-73436904D01*
X131610714Y-73532142D01*
X131658333Y-73579761D01*
X131753571Y-73627380D01*
X131944047Y-73627380D01*
X132039285Y-73579761D01*
X132086904Y-73532142D01*
X132134523Y-73436904D01*
X132134523Y-72627380D01*
X133086904Y-72627380D02*
X132610714Y-72627380D01*
X132563095Y-73103571D01*
X132610714Y-73055952D01*
X132705952Y-73008333D01*
X132944047Y-73008333D01*
X133039285Y-73055952D01*
X133086904Y-73103571D01*
X133134523Y-73198809D01*
X133134523Y-73436904D01*
X133086904Y-73532142D01*
X133039285Y-73579761D01*
X132944047Y-73627380D01*
X132705952Y-73627380D01*
X132610714Y-73579761D01*
X132563095Y-73532142D01*
%TO.C,C7*%
X119552142Y-89904166D02*
X119599761Y-89951785D01*
X119647380Y-90094642D01*
X119647380Y-90189880D01*
X119599761Y-90332738D01*
X119504523Y-90427976D01*
X119409285Y-90475595D01*
X119218809Y-90523214D01*
X119075952Y-90523214D01*
X118885476Y-90475595D01*
X118790238Y-90427976D01*
X118695000Y-90332738D01*
X118647380Y-90189880D01*
X118647380Y-90094642D01*
X118695000Y-89951785D01*
X118742619Y-89904166D01*
X118647380Y-89570833D02*
X118647380Y-88904166D01*
X119647380Y-89332738D01*
%TO.C,U4*%
X123925595Y-83777380D02*
X123925595Y-84586904D01*
X123973214Y-84682142D01*
X124020833Y-84729761D01*
X124116071Y-84777380D01*
X124306547Y-84777380D01*
X124401785Y-84729761D01*
X124449404Y-84682142D01*
X124497023Y-84586904D01*
X124497023Y-83777380D01*
X125401785Y-84110714D02*
X125401785Y-84777380D01*
X125163690Y-83729761D02*
X124925595Y-84444047D01*
X125544642Y-84444047D01*
%TO.C,C3*%
X173107142Y-71366666D02*
X173154761Y-71414285D01*
X173202380Y-71557142D01*
X173202380Y-71652380D01*
X173154761Y-71795238D01*
X173059523Y-71890476D01*
X172964285Y-71938095D01*
X172773809Y-71985714D01*
X172630952Y-71985714D01*
X172440476Y-71938095D01*
X172345238Y-71890476D01*
X172250000Y-71795238D01*
X172202380Y-71652380D01*
X172202380Y-71557142D01*
X172250000Y-71414285D01*
X172297619Y-71366666D01*
X172202380Y-71033333D02*
X172202380Y-70414285D01*
X172583333Y-70747619D01*
X172583333Y-70604761D01*
X172630952Y-70509523D01*
X172678571Y-70461904D01*
X172773809Y-70414285D01*
X173011904Y-70414285D01*
X173107142Y-70461904D01*
X173154761Y-70509523D01*
X173202380Y-70604761D01*
X173202380Y-70890476D01*
X173154761Y-70985714D01*
X173107142Y-71033333D01*
%TO.C,R18*%
X129627380Y-106017857D02*
X129151190Y-106351190D01*
X129627380Y-106589285D02*
X128627380Y-106589285D01*
X128627380Y-106208333D01*
X128675000Y-106113095D01*
X128722619Y-106065476D01*
X128817857Y-106017857D01*
X128960714Y-106017857D01*
X129055952Y-106065476D01*
X129103571Y-106113095D01*
X129151190Y-106208333D01*
X129151190Y-106589285D01*
X129627380Y-105065476D02*
X129627380Y-105636904D01*
X129627380Y-105351190D02*
X128627380Y-105351190D01*
X128770238Y-105446428D01*
X128865476Y-105541666D01*
X128913095Y-105636904D01*
X129055952Y-104494047D02*
X129008333Y-104589285D01*
X128960714Y-104636904D01*
X128865476Y-104684523D01*
X128817857Y-104684523D01*
X128722619Y-104636904D01*
X128675000Y-104589285D01*
X128627380Y-104494047D01*
X128627380Y-104303571D01*
X128675000Y-104208333D01*
X128722619Y-104160714D01*
X128817857Y-104113095D01*
X128865476Y-104113095D01*
X128960714Y-104160714D01*
X129008333Y-104208333D01*
X129055952Y-104303571D01*
X129055952Y-104494047D01*
X129103571Y-104589285D01*
X129151190Y-104636904D01*
X129246428Y-104684523D01*
X129436904Y-104684523D01*
X129532142Y-104636904D01*
X129579761Y-104589285D01*
X129627380Y-104494047D01*
X129627380Y-104303571D01*
X129579761Y-104208333D01*
X129532142Y-104160714D01*
X129436904Y-104113095D01*
X129246428Y-104113095D01*
X129151190Y-104160714D01*
X129103571Y-104208333D01*
X129055952Y-104303571D01*
%TO.C,R5*%
X172533333Y-113202380D02*
X172200000Y-112726190D01*
X171961904Y-113202380D02*
X171961904Y-112202380D01*
X172342857Y-112202380D01*
X172438095Y-112250000D01*
X172485714Y-112297619D01*
X172533333Y-112392857D01*
X172533333Y-112535714D01*
X172485714Y-112630952D01*
X172438095Y-112678571D01*
X172342857Y-112726190D01*
X171961904Y-112726190D01*
X173438095Y-112202380D02*
X172961904Y-112202380D01*
X172914285Y-112678571D01*
X172961904Y-112630952D01*
X173057142Y-112583333D01*
X173295238Y-112583333D01*
X173390476Y-112630952D01*
X173438095Y-112678571D01*
X173485714Y-112773809D01*
X173485714Y-113011904D01*
X173438095Y-113107142D01*
X173390476Y-113154761D01*
X173295238Y-113202380D01*
X173057142Y-113202380D01*
X172961904Y-113154761D01*
X172914285Y-113107142D01*
%TO.C,R12*%
X161707142Y-103252380D02*
X161373809Y-102776190D01*
X161135714Y-103252380D02*
X161135714Y-102252380D01*
X161516666Y-102252380D01*
X161611904Y-102300000D01*
X161659523Y-102347619D01*
X161707142Y-102442857D01*
X161707142Y-102585714D01*
X161659523Y-102680952D01*
X161611904Y-102728571D01*
X161516666Y-102776190D01*
X161135714Y-102776190D01*
X162659523Y-103252380D02*
X162088095Y-103252380D01*
X162373809Y-103252380D02*
X162373809Y-102252380D01*
X162278571Y-102395238D01*
X162183333Y-102490476D01*
X162088095Y-102538095D01*
X163040476Y-102347619D02*
X163088095Y-102300000D01*
X163183333Y-102252380D01*
X163421428Y-102252380D01*
X163516666Y-102300000D01*
X163564285Y-102347619D01*
X163611904Y-102442857D01*
X163611904Y-102538095D01*
X163564285Y-102680952D01*
X162992857Y-103252380D01*
X163611904Y-103252380D01*
%TO.C,J1*%
X193216666Y-109947380D02*
X193216666Y-110661666D01*
X193169047Y-110804523D01*
X193073809Y-110899761D01*
X192930952Y-110947380D01*
X192835714Y-110947380D01*
X194216666Y-110947380D02*
X193645238Y-110947380D01*
X193930952Y-110947380D02*
X193930952Y-109947380D01*
X193835714Y-110090238D01*
X193740476Y-110185476D01*
X193645238Y-110233095D01*
%TO.C,C13*%
X177807142Y-108367857D02*
X177854761Y-108415476D01*
X177902380Y-108558333D01*
X177902380Y-108653571D01*
X177854761Y-108796428D01*
X177759523Y-108891666D01*
X177664285Y-108939285D01*
X177473809Y-108986904D01*
X177330952Y-108986904D01*
X177140476Y-108939285D01*
X177045238Y-108891666D01*
X176950000Y-108796428D01*
X176902380Y-108653571D01*
X176902380Y-108558333D01*
X176950000Y-108415476D01*
X176997619Y-108367857D01*
X177902380Y-107415476D02*
X177902380Y-107986904D01*
X177902380Y-107701190D02*
X176902380Y-107701190D01*
X177045238Y-107796428D01*
X177140476Y-107891666D01*
X177188095Y-107986904D01*
X176902380Y-107082142D02*
X176902380Y-106463095D01*
X177283333Y-106796428D01*
X177283333Y-106653571D01*
X177330952Y-106558333D01*
X177378571Y-106510714D01*
X177473809Y-106463095D01*
X177711904Y-106463095D01*
X177807142Y-106510714D01*
X177854761Y-106558333D01*
X177902380Y-106653571D01*
X177902380Y-106939285D01*
X177854761Y-107034523D01*
X177807142Y-107082142D01*
%TO.C,C17*%
X133107142Y-98832142D02*
X133059523Y-98879761D01*
X132916666Y-98927380D01*
X132821428Y-98927380D01*
X132678571Y-98879761D01*
X132583333Y-98784523D01*
X132535714Y-98689285D01*
X132488095Y-98498809D01*
X132488095Y-98355952D01*
X132535714Y-98165476D01*
X132583333Y-98070238D01*
X132678571Y-97975000D01*
X132821428Y-97927380D01*
X132916666Y-97927380D01*
X133059523Y-97975000D01*
X133107142Y-98022619D01*
X134059523Y-98927380D02*
X133488095Y-98927380D01*
X133773809Y-98927380D02*
X133773809Y-97927380D01*
X133678571Y-98070238D01*
X133583333Y-98165476D01*
X133488095Y-98213095D01*
X134392857Y-97927380D02*
X135059523Y-97927380D01*
X134630952Y-98927380D01*
%TO.C,J4*%
X142777380Y-69733333D02*
X143491666Y-69733333D01*
X143634523Y-69780952D01*
X143729761Y-69876190D01*
X143777380Y-70019047D01*
X143777380Y-70114285D01*
X143110714Y-68828571D02*
X143777380Y-68828571D01*
X142729761Y-69066666D02*
X143444047Y-69304761D01*
X143444047Y-68685714D01*
%TO.C,C10*%
X127332142Y-90882142D02*
X127284523Y-90929761D01*
X127141666Y-90977380D01*
X127046428Y-90977380D01*
X126903571Y-90929761D01*
X126808333Y-90834523D01*
X126760714Y-90739285D01*
X126713095Y-90548809D01*
X126713095Y-90405952D01*
X126760714Y-90215476D01*
X126808333Y-90120238D01*
X126903571Y-90025000D01*
X127046428Y-89977380D01*
X127141666Y-89977380D01*
X127284523Y-90025000D01*
X127332142Y-90072619D01*
X128284523Y-90977380D02*
X127713095Y-90977380D01*
X127998809Y-90977380D02*
X127998809Y-89977380D01*
X127903571Y-90120238D01*
X127808333Y-90215476D01*
X127713095Y-90263095D01*
X128903571Y-89977380D02*
X128998809Y-89977380D01*
X129094047Y-90025000D01*
X129141666Y-90072619D01*
X129189285Y-90167857D01*
X129236904Y-90358333D01*
X129236904Y-90596428D01*
X129189285Y-90786904D01*
X129141666Y-90882142D01*
X129094047Y-90929761D01*
X128998809Y-90977380D01*
X128903571Y-90977380D01*
X128808333Y-90929761D01*
X128760714Y-90882142D01*
X128713095Y-90786904D01*
X128665476Y-90596428D01*
X128665476Y-90358333D01*
X128713095Y-90167857D01*
X128760714Y-90072619D01*
X128808333Y-90025000D01*
X128903571Y-89977380D01*
%TO.C,R31*%
X133332142Y-101002380D02*
X132998809Y-100526190D01*
X132760714Y-101002380D02*
X132760714Y-100002380D01*
X133141666Y-100002380D01*
X133236904Y-100050000D01*
X133284523Y-100097619D01*
X133332142Y-100192857D01*
X133332142Y-100335714D01*
X133284523Y-100430952D01*
X133236904Y-100478571D01*
X133141666Y-100526190D01*
X132760714Y-100526190D01*
X133665476Y-100002380D02*
X134284523Y-100002380D01*
X133951190Y-100383333D01*
X134094047Y-100383333D01*
X134189285Y-100430952D01*
X134236904Y-100478571D01*
X134284523Y-100573809D01*
X134284523Y-100811904D01*
X134236904Y-100907142D01*
X134189285Y-100954761D01*
X134094047Y-101002380D01*
X133808333Y-101002380D01*
X133713095Y-100954761D01*
X133665476Y-100907142D01*
X135236904Y-101002380D02*
X134665476Y-101002380D01*
X134951190Y-101002380D02*
X134951190Y-100002380D01*
X134855952Y-100145238D01*
X134760714Y-100240476D01*
X134665476Y-100288095D01*
%TO.C,C15*%
X190307142Y-103807142D02*
X190259523Y-103854761D01*
X190116666Y-103902380D01*
X190021428Y-103902380D01*
X189878571Y-103854761D01*
X189783333Y-103759523D01*
X189735714Y-103664285D01*
X189688095Y-103473809D01*
X189688095Y-103330952D01*
X189735714Y-103140476D01*
X189783333Y-103045238D01*
X189878571Y-102950000D01*
X190021428Y-102902380D01*
X190116666Y-102902380D01*
X190259523Y-102950000D01*
X190307142Y-102997619D01*
X191259523Y-103902380D02*
X190688095Y-103902380D01*
X190973809Y-103902380D02*
X190973809Y-102902380D01*
X190878571Y-103045238D01*
X190783333Y-103140476D01*
X190688095Y-103188095D01*
X192164285Y-102902380D02*
X191688095Y-102902380D01*
X191640476Y-103378571D01*
X191688095Y-103330952D01*
X191783333Y-103283333D01*
X192021428Y-103283333D01*
X192116666Y-103330952D01*
X192164285Y-103378571D01*
X192211904Y-103473809D01*
X192211904Y-103711904D01*
X192164285Y-103807142D01*
X192116666Y-103854761D01*
X192021428Y-103902380D01*
X191783333Y-103902380D01*
X191688095Y-103854761D01*
X191640476Y-103807142D01*
%TO.C,U3*%
X187388095Y-107177380D02*
X187388095Y-107986904D01*
X187435714Y-108082142D01*
X187483333Y-108129761D01*
X187578571Y-108177380D01*
X187769047Y-108177380D01*
X187864285Y-108129761D01*
X187911904Y-108082142D01*
X187959523Y-107986904D01*
X187959523Y-107177380D01*
X188340476Y-107177380D02*
X188959523Y-107177380D01*
X188626190Y-107558333D01*
X188769047Y-107558333D01*
X188864285Y-107605952D01*
X188911904Y-107653571D01*
X188959523Y-107748809D01*
X188959523Y-107986904D01*
X188911904Y-108082142D01*
X188864285Y-108129761D01*
X188769047Y-108177380D01*
X188483333Y-108177380D01*
X188388095Y-108129761D01*
X188340476Y-108082142D01*
%TO.C,C21*%
X128782142Y-81667857D02*
X128829761Y-81715476D01*
X128877380Y-81858333D01*
X128877380Y-81953571D01*
X128829761Y-82096428D01*
X128734523Y-82191666D01*
X128639285Y-82239285D01*
X128448809Y-82286904D01*
X128305952Y-82286904D01*
X128115476Y-82239285D01*
X128020238Y-82191666D01*
X127925000Y-82096428D01*
X127877380Y-81953571D01*
X127877380Y-81858333D01*
X127925000Y-81715476D01*
X127972619Y-81667857D01*
X127972619Y-81286904D02*
X127925000Y-81239285D01*
X127877380Y-81144047D01*
X127877380Y-80905952D01*
X127925000Y-80810714D01*
X127972619Y-80763095D01*
X128067857Y-80715476D01*
X128163095Y-80715476D01*
X128305952Y-80763095D01*
X128877380Y-81334523D01*
X128877380Y-80715476D01*
X128877380Y-79763095D02*
X128877380Y-80334523D01*
X128877380Y-80048809D02*
X127877380Y-80048809D01*
X128020238Y-80144047D01*
X128115476Y-80239285D01*
X128163095Y-80334523D01*
%TO.C,C2*%
X184032142Y-71441666D02*
X184079761Y-71489285D01*
X184127380Y-71632142D01*
X184127380Y-71727380D01*
X184079761Y-71870238D01*
X183984523Y-71965476D01*
X183889285Y-72013095D01*
X183698809Y-72060714D01*
X183555952Y-72060714D01*
X183365476Y-72013095D01*
X183270238Y-71965476D01*
X183175000Y-71870238D01*
X183127380Y-71727380D01*
X183127380Y-71632142D01*
X183175000Y-71489285D01*
X183222619Y-71441666D01*
X183222619Y-71060714D02*
X183175000Y-71013095D01*
X183127380Y-70917857D01*
X183127380Y-70679761D01*
X183175000Y-70584523D01*
X183222619Y-70536904D01*
X183317857Y-70489285D01*
X183413095Y-70489285D01*
X183555952Y-70536904D01*
X184127380Y-71108333D01*
X184127380Y-70489285D01*
%TO.C,J8*%
X120491666Y-92652380D02*
X120491666Y-93366666D01*
X120444047Y-93509523D01*
X120348809Y-93604761D01*
X120205952Y-93652380D01*
X120110714Y-93652380D01*
X121110714Y-93080952D02*
X121015476Y-93033333D01*
X120967857Y-92985714D01*
X120920238Y-92890476D01*
X120920238Y-92842857D01*
X120967857Y-92747619D01*
X121015476Y-92700000D01*
X121110714Y-92652380D01*
X121301190Y-92652380D01*
X121396428Y-92700000D01*
X121444047Y-92747619D01*
X121491666Y-92842857D01*
X121491666Y-92890476D01*
X121444047Y-92985714D01*
X121396428Y-93033333D01*
X121301190Y-93080952D01*
X121110714Y-93080952D01*
X121015476Y-93128571D01*
X120967857Y-93176190D01*
X120920238Y-93271428D01*
X120920238Y-93461904D01*
X120967857Y-93557142D01*
X121015476Y-93604761D01*
X121110714Y-93652380D01*
X121301190Y-93652380D01*
X121396428Y-93604761D01*
X121444047Y-93557142D01*
X121491666Y-93461904D01*
X121491666Y-93271428D01*
X121444047Y-93176190D01*
X121396428Y-93128571D01*
X121301190Y-93080952D01*
%TO.C,U6*%
X127827380Y-85111904D02*
X128636904Y-85111904D01*
X128732142Y-85064285D01*
X128779761Y-85016666D01*
X128827380Y-84921428D01*
X128827380Y-84730952D01*
X128779761Y-84635714D01*
X128732142Y-84588095D01*
X128636904Y-84540476D01*
X127827380Y-84540476D01*
X127827380Y-83635714D02*
X127827380Y-83826190D01*
X127875000Y-83921428D01*
X127922619Y-83969047D01*
X128065476Y-84064285D01*
X128255952Y-84111904D01*
X128636904Y-84111904D01*
X128732142Y-84064285D01*
X128779761Y-84016666D01*
X128827380Y-83921428D01*
X128827380Y-83730952D01*
X128779761Y-83635714D01*
X128732142Y-83588095D01*
X128636904Y-83540476D01*
X128398809Y-83540476D01*
X128303571Y-83588095D01*
X128255952Y-83635714D01*
X128208333Y-83730952D01*
X128208333Y-83921428D01*
X128255952Y-84016666D01*
X128303571Y-84064285D01*
X128398809Y-84111904D01*
%TO.C,SW1*%
X116166666Y-121354761D02*
X116309523Y-121402380D01*
X116547619Y-121402380D01*
X116642857Y-121354761D01*
X116690476Y-121307142D01*
X116738095Y-121211904D01*
X116738095Y-121116666D01*
X116690476Y-121021428D01*
X116642857Y-120973809D01*
X116547619Y-120926190D01*
X116357142Y-120878571D01*
X116261904Y-120830952D01*
X116214285Y-120783333D01*
X116166666Y-120688095D01*
X116166666Y-120592857D01*
X116214285Y-120497619D01*
X116261904Y-120450000D01*
X116357142Y-120402380D01*
X116595238Y-120402380D01*
X116738095Y-120450000D01*
X117071428Y-120402380D02*
X117309523Y-121402380D01*
X117500000Y-120688095D01*
X117690476Y-121402380D01*
X117928571Y-120402380D01*
X118833333Y-121402380D02*
X118261904Y-121402380D01*
X118547619Y-121402380D02*
X118547619Y-120402380D01*
X118452380Y-120545238D01*
X118357142Y-120640476D01*
X118261904Y-120688095D01*
%TO.C,R17*%
X172657142Y-103377380D02*
X172323809Y-102901190D01*
X172085714Y-103377380D02*
X172085714Y-102377380D01*
X172466666Y-102377380D01*
X172561904Y-102425000D01*
X172609523Y-102472619D01*
X172657142Y-102567857D01*
X172657142Y-102710714D01*
X172609523Y-102805952D01*
X172561904Y-102853571D01*
X172466666Y-102901190D01*
X172085714Y-102901190D01*
X173609523Y-103377380D02*
X173038095Y-103377380D01*
X173323809Y-103377380D02*
X173323809Y-102377380D01*
X173228571Y-102520238D01*
X173133333Y-102615476D01*
X173038095Y-102663095D01*
X173942857Y-102377380D02*
X174609523Y-102377380D01*
X174180952Y-103377380D01*
%TO.C,SW6*%
X184841666Y-111704761D02*
X184984523Y-111752380D01*
X185222619Y-111752380D01*
X185317857Y-111704761D01*
X185365476Y-111657142D01*
X185413095Y-111561904D01*
X185413095Y-111466666D01*
X185365476Y-111371428D01*
X185317857Y-111323809D01*
X185222619Y-111276190D01*
X185032142Y-111228571D01*
X184936904Y-111180952D01*
X184889285Y-111133333D01*
X184841666Y-111038095D01*
X184841666Y-110942857D01*
X184889285Y-110847619D01*
X184936904Y-110800000D01*
X185032142Y-110752380D01*
X185270238Y-110752380D01*
X185413095Y-110800000D01*
X185746428Y-110752380D02*
X185984523Y-111752380D01*
X186175000Y-111038095D01*
X186365476Y-111752380D01*
X186603571Y-110752380D01*
X187413095Y-110752380D02*
X187222619Y-110752380D01*
X187127380Y-110800000D01*
X187079761Y-110847619D01*
X186984523Y-110990476D01*
X186936904Y-111180952D01*
X186936904Y-111561904D01*
X186984523Y-111657142D01*
X187032142Y-111704761D01*
X187127380Y-111752380D01*
X187317857Y-111752380D01*
X187413095Y-111704761D01*
X187460714Y-111657142D01*
X187508333Y-111561904D01*
X187508333Y-111323809D01*
X187460714Y-111228571D01*
X187413095Y-111180952D01*
X187317857Y-111133333D01*
X187127380Y-111133333D01*
X187032142Y-111180952D01*
X186984523Y-111228571D01*
X186936904Y-111323809D01*
%TO.C,R24*%
X175632142Y-124952380D02*
X175298809Y-124476190D01*
X175060714Y-124952380D02*
X175060714Y-123952380D01*
X175441666Y-123952380D01*
X175536904Y-124000000D01*
X175584523Y-124047619D01*
X175632142Y-124142857D01*
X175632142Y-124285714D01*
X175584523Y-124380952D01*
X175536904Y-124428571D01*
X175441666Y-124476190D01*
X175060714Y-124476190D01*
X176013095Y-124047619D02*
X176060714Y-124000000D01*
X176155952Y-123952380D01*
X176394047Y-123952380D01*
X176489285Y-124000000D01*
X176536904Y-124047619D01*
X176584523Y-124142857D01*
X176584523Y-124238095D01*
X176536904Y-124380952D01*
X175965476Y-124952380D01*
X176584523Y-124952380D01*
X177441666Y-124285714D02*
X177441666Y-124952380D01*
X177203571Y-123904761D02*
X176965476Y-124619047D01*
X177584523Y-124619047D01*
%TO.C,SW5*%
X177341666Y-111754761D02*
X177484523Y-111802380D01*
X177722619Y-111802380D01*
X177817857Y-111754761D01*
X177865476Y-111707142D01*
X177913095Y-111611904D01*
X177913095Y-111516666D01*
X177865476Y-111421428D01*
X177817857Y-111373809D01*
X177722619Y-111326190D01*
X177532142Y-111278571D01*
X177436904Y-111230952D01*
X177389285Y-111183333D01*
X177341666Y-111088095D01*
X177341666Y-110992857D01*
X177389285Y-110897619D01*
X177436904Y-110850000D01*
X177532142Y-110802380D01*
X177770238Y-110802380D01*
X177913095Y-110850000D01*
X178246428Y-110802380D02*
X178484523Y-111802380D01*
X178675000Y-111088095D01*
X178865476Y-111802380D01*
X179103571Y-110802380D01*
X179960714Y-110802380D02*
X179484523Y-110802380D01*
X179436904Y-111278571D01*
X179484523Y-111230952D01*
X179579761Y-111183333D01*
X179817857Y-111183333D01*
X179913095Y-111230952D01*
X179960714Y-111278571D01*
X180008333Y-111373809D01*
X180008333Y-111611904D01*
X179960714Y-111707142D01*
X179913095Y-111754761D01*
X179817857Y-111802380D01*
X179579761Y-111802380D01*
X179484523Y-111754761D01*
X179436904Y-111707142D01*
%TO.C,C14*%
X183844642Y-110182142D02*
X183797023Y-110229761D01*
X183654166Y-110277380D01*
X183558928Y-110277380D01*
X183416071Y-110229761D01*
X183320833Y-110134523D01*
X183273214Y-110039285D01*
X183225595Y-109848809D01*
X183225595Y-109705952D01*
X183273214Y-109515476D01*
X183320833Y-109420238D01*
X183416071Y-109325000D01*
X183558928Y-109277380D01*
X183654166Y-109277380D01*
X183797023Y-109325000D01*
X183844642Y-109372619D01*
X184797023Y-110277380D02*
X184225595Y-110277380D01*
X184511309Y-110277380D02*
X184511309Y-109277380D01*
X184416071Y-109420238D01*
X184320833Y-109515476D01*
X184225595Y-109563095D01*
X185654166Y-109610714D02*
X185654166Y-110277380D01*
X185416071Y-109229761D02*
X185177976Y-109944047D01*
X185797023Y-109944047D01*
%TO.C,U2*%
X147828095Y-98512380D02*
X147828095Y-99321904D01*
X147875714Y-99417142D01*
X147923333Y-99464761D01*
X148018571Y-99512380D01*
X148209047Y-99512380D01*
X148304285Y-99464761D01*
X148351904Y-99417142D01*
X148399523Y-99321904D01*
X148399523Y-98512380D01*
X148828095Y-98607619D02*
X148875714Y-98560000D01*
X148970952Y-98512380D01*
X149209047Y-98512380D01*
X149304285Y-98560000D01*
X149351904Y-98607619D01*
X149399523Y-98702857D01*
X149399523Y-98798095D01*
X149351904Y-98940952D01*
X148780476Y-99512380D01*
X149399523Y-99512380D01*
X141120473Y-120719966D02*
X141874720Y-121097089D01*
X141497597Y-120342842D01*
X142197969Y-120719966D02*
X142305719Y-120666091D01*
X142440406Y-120531404D01*
X142467343Y-120450592D01*
X142467343Y-120396717D01*
X142440406Y-120315905D01*
X142386531Y-120262030D01*
X142305719Y-120235093D01*
X142251844Y-120235093D01*
X142171032Y-120262030D01*
X142036345Y-120342842D01*
X141955532Y-120369780D01*
X141901658Y-120369780D01*
X141820845Y-120342842D01*
X141766971Y-120288967D01*
X141740033Y-120208155D01*
X141740033Y-120154280D01*
X141766971Y-120073468D01*
X141901658Y-119938781D01*
X142009407Y-119884906D01*
X142628967Y-119804094D02*
X142898341Y-120073468D01*
X142144094Y-119696345D02*
X142628967Y-119804094D01*
X142521218Y-119319221D01*
X143221590Y-119696345D02*
X143329340Y-119642470D01*
X143464027Y-119507783D01*
X143490964Y-119426971D01*
X143490964Y-119373096D01*
X143464027Y-119292284D01*
X143410152Y-119238409D01*
X143329340Y-119211471D01*
X143275465Y-119211471D01*
X143194653Y-119238409D01*
X143059966Y-119319221D01*
X142979154Y-119346158D01*
X142925279Y-119346158D01*
X142844467Y-119319221D01*
X142790592Y-119265346D01*
X142763654Y-119184534D01*
X142763654Y-119130659D01*
X142790592Y-119049847D01*
X142925279Y-118915160D01*
X143033028Y-118861285D01*
X154036158Y-105698155D02*
X153955346Y-105725093D01*
X153874534Y-105805905D01*
X153820659Y-105913654D01*
X153820659Y-106021404D01*
X153847597Y-106102216D01*
X153928409Y-106236903D01*
X154009221Y-106317715D01*
X154143908Y-106398528D01*
X154224720Y-106425465D01*
X154332470Y-106425465D01*
X154440219Y-106371590D01*
X154494094Y-106317715D01*
X154547969Y-106209966D01*
X154547969Y-106156091D01*
X154359407Y-105967529D01*
X154251658Y-106075279D01*
X154844280Y-105967529D02*
X154278595Y-105401844D01*
X155167529Y-105644280D01*
X154601844Y-105078595D01*
X155436903Y-105374906D02*
X154871218Y-104809221D01*
X155005905Y-104674534D01*
X155113654Y-104620659D01*
X155221404Y-104620659D01*
X155302216Y-104647597D01*
X155436903Y-104728409D01*
X155517715Y-104809221D01*
X155598528Y-104943908D01*
X155625465Y-105024720D01*
X155625465Y-105132470D01*
X155571590Y-105240219D01*
X155436903Y-105374906D01*
X154113096Y-120696218D02*
X154032284Y-120723155D01*
X153951471Y-120803967D01*
X153897597Y-120911717D01*
X153897597Y-121019467D01*
X153924534Y-121100279D01*
X154005346Y-121234966D01*
X154086158Y-121315778D01*
X154220845Y-121396590D01*
X154301658Y-121423528D01*
X154409407Y-121423528D01*
X154517157Y-121369653D01*
X154571032Y-121315778D01*
X154624906Y-121208028D01*
X154624906Y-121154154D01*
X154436345Y-120965592D01*
X154328595Y-121073341D01*
X154921218Y-120965592D02*
X154355532Y-120399906D01*
X154571032Y-120184407D01*
X154651844Y-120157470D01*
X154705719Y-120157470D01*
X154786531Y-120184407D01*
X154867343Y-120265219D01*
X154894280Y-120346032D01*
X154894280Y-120399906D01*
X154867343Y-120480719D01*
X154651844Y-120696218D01*
X155783215Y-120103595D02*
X155459966Y-120426844D01*
X155621590Y-120265219D02*
X155055905Y-119699534D01*
X155082842Y-119834221D01*
X155082842Y-119941971D01*
X155055905Y-120022783D01*
X154336158Y-92948155D02*
X154255346Y-92975093D01*
X154174534Y-93055905D01*
X154120659Y-93163654D01*
X154120659Y-93271404D01*
X154147597Y-93352216D01*
X154228409Y-93486903D01*
X154309221Y-93567715D01*
X154443908Y-93648528D01*
X154524720Y-93675465D01*
X154632470Y-93675465D01*
X154740219Y-93621590D01*
X154794094Y-93567715D01*
X154847969Y-93459966D01*
X154847969Y-93406091D01*
X154659407Y-93217529D01*
X154551658Y-93325279D01*
X155144280Y-93217529D02*
X154578595Y-92651844D01*
X155467529Y-92894280D01*
X154901844Y-92328595D01*
X155736903Y-92624906D02*
X155171218Y-92059221D01*
X155305905Y-91924534D01*
X155413654Y-91870659D01*
X155521404Y-91870659D01*
X155602216Y-91897597D01*
X155736903Y-91978409D01*
X155817715Y-92059221D01*
X155898528Y-92193908D01*
X155925465Y-92274720D01*
X155925465Y-92382470D01*
X155871590Y-92490219D01*
X155736903Y-92624906D01*
X141589722Y-87430592D02*
X141508910Y-87457529D01*
X141428097Y-87538341D01*
X141374223Y-87646091D01*
X141374223Y-87753841D01*
X141401160Y-87834653D01*
X141481972Y-87969340D01*
X141562784Y-88050152D01*
X141697471Y-88130964D01*
X141778284Y-88157902D01*
X141886033Y-88157902D01*
X141993783Y-88104027D01*
X142047658Y-88050152D01*
X142101532Y-87942402D01*
X142101532Y-87888528D01*
X141912971Y-87699966D01*
X141805221Y-87807715D01*
X142397844Y-87699966D02*
X141832158Y-87134280D01*
X142047658Y-86918781D01*
X142128470Y-86891844D01*
X142182345Y-86891844D01*
X142263157Y-86918781D01*
X142343969Y-86999593D01*
X142370906Y-87080406D01*
X142370906Y-87134280D01*
X142343969Y-87215093D01*
X142128470Y-87430592D01*
X142424781Y-86649407D02*
X142424781Y-86595532D01*
X142451719Y-86514720D01*
X142586406Y-86380033D01*
X142667218Y-86353096D01*
X142721093Y-86353096D01*
X142801905Y-86380033D01*
X142855780Y-86433908D01*
X142909654Y-86541658D01*
X142909654Y-87188155D01*
X143259841Y-86837969D01*
X143044341Y-85922097D02*
X143098216Y-85868223D01*
X143179028Y-85841285D01*
X143232903Y-85841285D01*
X143313715Y-85868223D01*
X143448402Y-85949035D01*
X143583089Y-86083722D01*
X143663902Y-86218409D01*
X143690839Y-86299221D01*
X143690839Y-86353096D01*
X143663902Y-86433908D01*
X143610027Y-86487783D01*
X143529215Y-86514720D01*
X143475340Y-86514720D01*
X143394528Y-86487783D01*
X143259841Y-86406971D01*
X143125154Y-86272284D01*
X143044341Y-86137597D01*
X143017404Y-86056784D01*
X143017404Y-86002910D01*
X143044341Y-85922097D01*
X154163096Y-115646218D02*
X154082284Y-115673155D01*
X154001471Y-115753967D01*
X153947597Y-115861717D01*
X153947597Y-115969467D01*
X153974534Y-116050279D01*
X154055346Y-116184966D01*
X154136158Y-116265778D01*
X154270845Y-116346590D01*
X154351658Y-116373528D01*
X154459407Y-116373528D01*
X154567157Y-116319653D01*
X154621032Y-116265778D01*
X154674906Y-116158028D01*
X154674906Y-116104154D01*
X154486345Y-115915592D01*
X154378595Y-116023341D01*
X154971218Y-115915592D02*
X154405532Y-115349906D01*
X154621032Y-115134407D01*
X154701844Y-115107470D01*
X154755719Y-115107470D01*
X154836531Y-115134407D01*
X154917343Y-115215219D01*
X154944280Y-115296032D01*
X154944280Y-115349906D01*
X154917343Y-115430719D01*
X154701844Y-115646218D01*
X154998155Y-114865033D02*
X154998155Y-114811158D01*
X155025093Y-114730346D01*
X155159780Y-114595659D01*
X155240592Y-114568722D01*
X155294467Y-114568722D01*
X155375279Y-114595659D01*
X155429154Y-114649534D01*
X155483028Y-114757284D01*
X155483028Y-115403781D01*
X155833215Y-115053595D01*
X154311158Y-118373155D02*
X154230346Y-118400093D01*
X154149534Y-118480905D01*
X154095659Y-118588654D01*
X154095659Y-118696404D01*
X154122597Y-118777216D01*
X154203409Y-118911903D01*
X154284221Y-118992715D01*
X154418908Y-119073528D01*
X154499720Y-119100465D01*
X154607470Y-119100465D01*
X154715219Y-119046590D01*
X154769094Y-118992715D01*
X154822969Y-118884966D01*
X154822969Y-118831091D01*
X154634407Y-118642529D01*
X154526658Y-118750279D01*
X155119280Y-118642529D02*
X154553595Y-118076844D01*
X155442529Y-118319280D01*
X154876844Y-117753595D01*
X155711903Y-118049906D02*
X155146218Y-117484221D01*
X155280905Y-117349534D01*
X155388654Y-117295659D01*
X155496404Y-117295659D01*
X155577216Y-117322597D01*
X155711903Y-117403409D01*
X155792715Y-117484221D01*
X155873528Y-117618908D01*
X155900465Y-117699720D01*
X155900465Y-117807470D01*
X155846590Y-117915219D01*
X155711903Y-118049906D01*
X140654761Y-71573809D02*
X140769047Y-71611904D01*
X140959523Y-71611904D01*
X141035714Y-71573809D01*
X141073809Y-71535714D01*
X141111904Y-71459523D01*
X141111904Y-71383333D01*
X141073809Y-71307142D01*
X141035714Y-71269047D01*
X140959523Y-71230952D01*
X140807142Y-71192857D01*
X140730952Y-71154761D01*
X140692857Y-71116666D01*
X140654761Y-71040476D01*
X140654761Y-70964285D01*
X140692857Y-70888095D01*
X140730952Y-70850000D01*
X140807142Y-70811904D01*
X140997619Y-70811904D01*
X141111904Y-70850000D01*
X141378571Y-70811904D02*
X141569047Y-71611904D01*
X141721428Y-71040476D01*
X141873809Y-71611904D01*
X142064285Y-70811904D01*
X142369047Y-71611904D02*
X142369047Y-70811904D01*
X142559523Y-70811904D01*
X142673809Y-70850000D01*
X142750000Y-70926190D01*
X142788095Y-71002380D01*
X142826190Y-71154761D01*
X142826190Y-71269047D01*
X142788095Y-71421428D01*
X142750000Y-71497619D01*
X142673809Y-71573809D01*
X142559523Y-71611904D01*
X142369047Y-71611904D01*
X143169047Y-71611904D02*
X143169047Y-70811904D01*
X143702380Y-70811904D02*
X143854761Y-70811904D01*
X143930952Y-70850000D01*
X144007142Y-70926190D01*
X144045238Y-71078571D01*
X144045238Y-71345238D01*
X144007142Y-71497619D01*
X143930952Y-71573809D01*
X143854761Y-71611904D01*
X143702380Y-71611904D01*
X143626190Y-71573809D01*
X143550000Y-71497619D01*
X143511904Y-71345238D01*
X143511904Y-71078571D01*
X143550000Y-70926190D01*
X143626190Y-70850000D01*
X143702380Y-70811904D01*
X141711158Y-79623155D02*
X141630346Y-79650093D01*
X141549534Y-79730905D01*
X141495659Y-79838654D01*
X141495659Y-79946404D01*
X141522597Y-80027216D01*
X141603409Y-80161903D01*
X141684221Y-80242715D01*
X141818908Y-80323528D01*
X141899720Y-80350465D01*
X142007470Y-80350465D01*
X142115219Y-80296590D01*
X142169094Y-80242715D01*
X142222969Y-80134966D01*
X142222969Y-80081091D01*
X142034407Y-79892529D01*
X141926658Y-80000279D01*
X142519280Y-79892529D02*
X141953595Y-79326844D01*
X142842529Y-79569280D01*
X142276844Y-79003595D01*
X143111903Y-79299906D02*
X142546218Y-78734221D01*
X142680905Y-78599534D01*
X142788654Y-78545659D01*
X142896404Y-78545659D01*
X142977216Y-78572597D01*
X143111903Y-78653409D01*
X143192715Y-78734221D01*
X143273528Y-78868908D01*
X143300465Y-78949720D01*
X143300465Y-79057470D01*
X143246590Y-79165219D01*
X143111903Y-79299906D01*
X141579788Y-111083773D02*
X141849162Y-110814399D01*
X141687537Y-111299272D02*
X141310414Y-110545025D01*
X142064661Y-110922149D01*
X142253223Y-110733587D02*
X141687537Y-110167902D01*
X141822224Y-110033215D01*
X141929974Y-109979340D01*
X142037723Y-109979340D01*
X142118536Y-110006277D01*
X142253223Y-110087089D01*
X142334035Y-110167902D01*
X142414847Y-110302589D01*
X142441784Y-110383401D01*
X142441784Y-110491150D01*
X142387910Y-110598900D01*
X142253223Y-110733587D01*
X143088282Y-109790778D02*
X143088282Y-109844653D01*
X143034407Y-109952402D01*
X142980532Y-110006277D01*
X142872783Y-110060152D01*
X142765033Y-110060152D01*
X142684221Y-110033215D01*
X142549534Y-109952402D01*
X142468722Y-109871590D01*
X142387910Y-109736903D01*
X142360972Y-109656091D01*
X142360972Y-109548341D01*
X142414847Y-109440592D01*
X142468722Y-109386717D01*
X142576471Y-109332842D01*
X142630346Y-109332842D01*
X143303781Y-109790778D02*
X143734780Y-109359780D01*
X143169094Y-108686345D02*
X143923341Y-109063468D01*
X143546218Y-108309221D01*
X144623714Y-108363096D02*
X144165778Y-108282284D01*
X144300465Y-108686345D02*
X143734780Y-108120659D01*
X143950279Y-107905160D01*
X144031091Y-107878223D01*
X144084966Y-107878223D01*
X144165778Y-107905160D01*
X144246590Y-107985972D01*
X144273528Y-108066784D01*
X144273528Y-108120659D01*
X144246590Y-108201471D01*
X144031091Y-108416971D01*
X144569839Y-107824348D02*
X144758401Y-107635786D01*
X145135524Y-107851285D02*
X144866150Y-108120659D01*
X144300465Y-107554974D01*
X144569839Y-107285600D01*
X145270211Y-107123975D02*
X145081650Y-107312537D01*
X145377961Y-107608849D02*
X144812276Y-107043163D01*
X145081650Y-106773789D01*
X141589722Y-89960592D02*
X141508910Y-89987529D01*
X141428097Y-90068341D01*
X141374223Y-90176091D01*
X141374223Y-90283841D01*
X141401160Y-90364653D01*
X141481972Y-90499340D01*
X141562784Y-90580152D01*
X141697471Y-90660964D01*
X141778284Y-90687902D01*
X141886033Y-90687902D01*
X141993783Y-90634027D01*
X142047658Y-90580152D01*
X142101532Y-90472402D01*
X142101532Y-90418528D01*
X141912971Y-90229966D01*
X141805221Y-90337715D01*
X142397844Y-90229966D02*
X141832158Y-89664280D01*
X142047658Y-89448781D01*
X142128470Y-89421844D01*
X142182345Y-89421844D01*
X142263157Y-89448781D01*
X142343969Y-89529593D01*
X142370906Y-89610406D01*
X142370906Y-89664280D01*
X142343969Y-89745093D01*
X142128470Y-89960592D01*
X142424781Y-89179407D02*
X142424781Y-89125532D01*
X142451719Y-89044720D01*
X142586406Y-88910033D01*
X142667218Y-88883096D01*
X142721093Y-88883096D01*
X142801905Y-88910033D01*
X142855780Y-88963908D01*
X142909654Y-89071658D01*
X142909654Y-89718155D01*
X143259841Y-89367969D01*
X143798589Y-88829221D02*
X143475340Y-89152470D01*
X143636964Y-88990845D02*
X143071279Y-88425160D01*
X143098216Y-88559847D01*
X143098216Y-88667597D01*
X143071279Y-88748409D01*
X154238096Y-113296218D02*
X154157284Y-113323155D01*
X154076471Y-113403967D01*
X154022597Y-113511717D01*
X154022597Y-113619467D01*
X154049534Y-113700279D01*
X154130346Y-113834966D01*
X154211158Y-113915778D01*
X154345845Y-113996590D01*
X154426658Y-114023528D01*
X154534407Y-114023528D01*
X154642157Y-113969653D01*
X154696032Y-113915778D01*
X154749906Y-113808028D01*
X154749906Y-113754154D01*
X154561345Y-113565592D01*
X154453595Y-113673341D01*
X155046218Y-113565592D02*
X154480532Y-112999906D01*
X154696032Y-112784407D01*
X154776844Y-112757470D01*
X154830719Y-112757470D01*
X154911531Y-112784407D01*
X154992343Y-112865219D01*
X155019280Y-112946032D01*
X155019280Y-112999906D01*
X154992343Y-113080719D01*
X154776844Y-113296218D01*
X154992343Y-112488096D02*
X155342529Y-112137910D01*
X155369467Y-112541971D01*
X155450279Y-112461158D01*
X155531091Y-112434221D01*
X155584966Y-112434221D01*
X155665778Y-112461158D01*
X155800465Y-112595845D01*
X155827402Y-112676658D01*
X155827402Y-112730532D01*
X155800465Y-112811345D01*
X155638841Y-112972969D01*
X155558028Y-112999906D01*
X155504154Y-112999906D01*
X141586158Y-92273155D02*
X141505346Y-92300093D01*
X141424534Y-92380905D01*
X141370659Y-92488654D01*
X141370659Y-92596404D01*
X141397597Y-92677216D01*
X141478409Y-92811903D01*
X141559221Y-92892715D01*
X141693908Y-92973528D01*
X141774720Y-93000465D01*
X141882470Y-93000465D01*
X141990219Y-92946590D01*
X142044094Y-92892715D01*
X142097969Y-92784966D01*
X142097969Y-92731091D01*
X141909407Y-92542529D01*
X141801658Y-92650279D01*
X142394280Y-92542529D02*
X141828595Y-91976844D01*
X142717529Y-92219280D01*
X142151844Y-91653595D01*
X142986903Y-91949906D02*
X142421218Y-91384221D01*
X142555905Y-91249534D01*
X142663654Y-91195659D01*
X142771404Y-91195659D01*
X142852216Y-91222597D01*
X142986903Y-91303409D01*
X143067715Y-91384221D01*
X143148528Y-91518908D01*
X143175465Y-91599720D01*
X143175465Y-91707470D01*
X143121590Y-91815219D01*
X142986903Y-91949906D01*
X141153129Y-123252309D02*
X141907377Y-123629433D01*
X141530253Y-122875186D01*
X142176751Y-122767436D02*
X142284500Y-122713561D01*
X142338375Y-122713561D01*
X142419187Y-122740499D01*
X142500000Y-122821311D01*
X142526937Y-122902123D01*
X142526937Y-122955998D01*
X142500000Y-123036810D01*
X142284500Y-123252309D01*
X141718815Y-122686624D01*
X141907377Y-122498062D01*
X141988189Y-122471125D01*
X142042064Y-122471125D01*
X142122876Y-122498062D01*
X142176751Y-122551937D01*
X142203688Y-122632749D01*
X142203688Y-122686624D01*
X142176751Y-122767436D01*
X141988189Y-122955998D01*
X142284500Y-122120938D02*
X142742436Y-122578874D01*
X142823248Y-122605812D01*
X142877123Y-122605812D01*
X142957935Y-122578874D01*
X143065685Y-122471125D01*
X143092622Y-122390312D01*
X143092622Y-122336438D01*
X143065685Y-122255625D01*
X142607749Y-121797690D01*
X143388934Y-122094001D02*
X143496683Y-122040126D01*
X143631370Y-121905439D01*
X143658308Y-121824627D01*
X143658308Y-121770752D01*
X143631370Y-121689940D01*
X143577496Y-121636065D01*
X143496683Y-121609128D01*
X143442809Y-121609128D01*
X143361996Y-121636065D01*
X143227309Y-121716877D01*
X143146497Y-121743815D01*
X143092622Y-121743815D01*
X143011810Y-121716877D01*
X142957935Y-121663003D01*
X142930998Y-121582190D01*
X142930998Y-121528316D01*
X142957935Y-121447503D01*
X143092622Y-121312816D01*
X143200372Y-121258942D01*
X154288096Y-98071218D02*
X154207284Y-98098155D01*
X154126471Y-98178967D01*
X154072597Y-98286717D01*
X154072597Y-98394467D01*
X154099534Y-98475279D01*
X154180346Y-98609966D01*
X154261158Y-98690778D01*
X154395845Y-98771590D01*
X154476658Y-98798528D01*
X154584407Y-98798528D01*
X154692157Y-98744653D01*
X154746032Y-98690778D01*
X154799906Y-98583028D01*
X154799906Y-98529154D01*
X154611345Y-98340592D01*
X154503595Y-98448341D01*
X155096218Y-98340592D02*
X154530532Y-97774906D01*
X154746032Y-97559407D01*
X154826844Y-97532470D01*
X154880719Y-97532470D01*
X154961531Y-97559407D01*
X155042343Y-97640219D01*
X155069280Y-97721032D01*
X155069280Y-97774906D01*
X155042343Y-97855719D01*
X154826844Y-98071218D01*
X155419467Y-97370845D02*
X155338654Y-97397783D01*
X155284780Y-97397783D01*
X155203967Y-97370845D01*
X155177030Y-97343908D01*
X155150093Y-97263096D01*
X155150093Y-97209221D01*
X155177030Y-97128409D01*
X155284780Y-97020659D01*
X155365592Y-96993722D01*
X155419467Y-96993722D01*
X155500279Y-97020659D01*
X155527216Y-97047597D01*
X155554154Y-97128409D01*
X155554154Y-97182284D01*
X155527216Y-97263096D01*
X155419467Y-97370845D01*
X155392529Y-97451658D01*
X155392529Y-97505532D01*
X155419467Y-97586345D01*
X155527216Y-97694094D01*
X155608028Y-97721032D01*
X155661903Y-97721032D01*
X155742715Y-97694094D01*
X155850465Y-97586345D01*
X155877402Y-97505532D01*
X155877402Y-97451658D01*
X155850465Y-97370845D01*
X155742715Y-97263096D01*
X155661903Y-97236158D01*
X155608028Y-97236158D01*
X155527216Y-97263096D01*
X153943722Y-78315592D02*
X153862910Y-78342529D01*
X153782097Y-78423341D01*
X153728223Y-78531091D01*
X153728223Y-78638841D01*
X153755160Y-78719653D01*
X153835972Y-78854340D01*
X153916784Y-78935152D01*
X154051471Y-79015964D01*
X154132284Y-79042902D01*
X154240033Y-79042902D01*
X154347783Y-78989027D01*
X154401658Y-78935152D01*
X154455532Y-78827402D01*
X154455532Y-78773528D01*
X154266971Y-78584966D01*
X154159221Y-78692715D01*
X154751844Y-78584966D02*
X154186158Y-78019280D01*
X154401658Y-77803781D01*
X154482470Y-77776844D01*
X154536345Y-77776844D01*
X154617157Y-77803781D01*
X154697969Y-77884593D01*
X154724906Y-77965406D01*
X154724906Y-78019280D01*
X154697969Y-78100093D01*
X154482470Y-78315592D01*
X155613841Y-77722969D02*
X155290592Y-78046218D01*
X155452216Y-77884593D02*
X154886531Y-77318908D01*
X154913468Y-77453595D01*
X154913468Y-77561345D01*
X154886531Y-77642157D01*
X155721590Y-76860972D02*
X156098714Y-77238096D01*
X155371404Y-76780160D02*
X155640778Y-77318908D01*
X155990964Y-76968722D01*
X141589722Y-108004592D02*
X141508910Y-108031529D01*
X141428097Y-108112341D01*
X141374223Y-108220091D01*
X141374223Y-108327841D01*
X141401160Y-108408653D01*
X141481972Y-108543340D01*
X141562784Y-108624152D01*
X141697471Y-108704964D01*
X141778284Y-108731902D01*
X141886033Y-108731902D01*
X141993783Y-108678027D01*
X142047658Y-108624152D01*
X142101532Y-108516402D01*
X142101532Y-108462528D01*
X141912971Y-108273966D01*
X141805221Y-108381715D01*
X142397844Y-108273966D02*
X141832158Y-107708280D01*
X142047658Y-107492781D01*
X142128470Y-107465844D01*
X142182345Y-107465844D01*
X142263157Y-107492781D01*
X142343969Y-107573593D01*
X142370906Y-107654406D01*
X142370906Y-107708280D01*
X142343969Y-107789093D01*
X142128470Y-108004592D01*
X142424781Y-107223407D02*
X142424781Y-107169532D01*
X142451719Y-107088720D01*
X142586406Y-106954033D01*
X142667218Y-106927096D01*
X142721093Y-106927096D01*
X142801905Y-106954033D01*
X142855780Y-107007908D01*
X142909654Y-107115658D01*
X142909654Y-107762155D01*
X143259841Y-107411969D01*
X143259841Y-106765471D02*
X143179028Y-106792409D01*
X143125154Y-106792409D01*
X143044341Y-106765471D01*
X143017404Y-106738534D01*
X142990467Y-106657722D01*
X142990467Y-106603847D01*
X143017404Y-106523035D01*
X143125154Y-106415285D01*
X143205966Y-106388348D01*
X143259841Y-106388348D01*
X143340653Y-106415285D01*
X143367590Y-106442223D01*
X143394528Y-106523035D01*
X143394528Y-106576910D01*
X143367590Y-106657722D01*
X143259841Y-106765471D01*
X143232903Y-106846284D01*
X143232903Y-106900158D01*
X143259841Y-106980971D01*
X143367590Y-107088720D01*
X143448402Y-107115658D01*
X143502277Y-107115658D01*
X143583089Y-107088720D01*
X143690839Y-106980971D01*
X143717776Y-106900158D01*
X143717776Y-106846284D01*
X143690839Y-106765471D01*
X143583089Y-106657722D01*
X143502277Y-106630784D01*
X143448402Y-106630784D01*
X143367590Y-106657722D01*
X154236158Y-80398155D02*
X154155346Y-80425093D01*
X154074534Y-80505905D01*
X154020659Y-80613654D01*
X154020659Y-80721404D01*
X154047597Y-80802216D01*
X154128409Y-80936903D01*
X154209221Y-81017715D01*
X154343908Y-81098528D01*
X154424720Y-81125465D01*
X154532470Y-81125465D01*
X154640219Y-81071590D01*
X154694094Y-81017715D01*
X154747969Y-80909966D01*
X154747969Y-80856091D01*
X154559407Y-80667529D01*
X154451658Y-80775279D01*
X155044280Y-80667529D02*
X154478595Y-80101844D01*
X155367529Y-80344280D01*
X154801844Y-79778595D01*
X155636903Y-80074906D02*
X155071218Y-79509221D01*
X155205905Y-79374534D01*
X155313654Y-79320659D01*
X155421404Y-79320659D01*
X155502216Y-79347597D01*
X155636903Y-79428409D01*
X155717715Y-79509221D01*
X155798528Y-79643908D01*
X155825465Y-79724720D01*
X155825465Y-79832470D01*
X155771590Y-79940219D01*
X155636903Y-80074906D01*
X154088096Y-108396218D02*
X154007284Y-108423155D01*
X153926471Y-108503967D01*
X153872597Y-108611717D01*
X153872597Y-108719467D01*
X153899534Y-108800279D01*
X153980346Y-108934966D01*
X154061158Y-109015778D01*
X154195845Y-109096590D01*
X154276658Y-109123528D01*
X154384407Y-109123528D01*
X154492157Y-109069653D01*
X154546032Y-109015778D01*
X154599906Y-108908028D01*
X154599906Y-108854154D01*
X154411345Y-108665592D01*
X154303595Y-108773341D01*
X154896218Y-108665592D02*
X154330532Y-108099906D01*
X154546032Y-107884407D01*
X154626844Y-107857470D01*
X154680719Y-107857470D01*
X154761531Y-107884407D01*
X154842343Y-107965219D01*
X154869280Y-108046032D01*
X154869280Y-108099906D01*
X154842343Y-108180719D01*
X154626844Y-108396218D01*
X155165592Y-107264847D02*
X154896218Y-107534221D01*
X155138654Y-107830532D01*
X155138654Y-107776658D01*
X155165592Y-107695845D01*
X155300279Y-107561158D01*
X155381091Y-107534221D01*
X155434966Y-107534221D01*
X155515778Y-107561158D01*
X155650465Y-107695845D01*
X155677402Y-107776658D01*
X155677402Y-107830532D01*
X155650465Y-107911345D01*
X155515778Y-108046032D01*
X155434966Y-108072969D01*
X155381091Y-108072969D01*
X141589722Y-95050592D02*
X141508910Y-95077529D01*
X141428097Y-95158341D01*
X141374223Y-95266091D01*
X141374223Y-95373841D01*
X141401160Y-95454653D01*
X141481972Y-95589340D01*
X141562784Y-95670152D01*
X141697471Y-95750964D01*
X141778284Y-95777902D01*
X141886033Y-95777902D01*
X141993783Y-95724027D01*
X142047658Y-95670152D01*
X142101532Y-95562402D01*
X142101532Y-95508528D01*
X141912971Y-95319966D01*
X141805221Y-95427715D01*
X142397844Y-95319966D02*
X141832158Y-94754280D01*
X142047658Y-94538781D01*
X142128470Y-94511844D01*
X142182345Y-94511844D01*
X142263157Y-94538781D01*
X142343969Y-94619593D01*
X142370906Y-94700406D01*
X142370906Y-94754280D01*
X142343969Y-94835093D01*
X142128470Y-95050592D01*
X142424781Y-94269407D02*
X142424781Y-94215532D01*
X142451719Y-94134720D01*
X142586406Y-94000033D01*
X142667218Y-93973096D01*
X142721093Y-93973096D01*
X142801905Y-94000033D01*
X142855780Y-94053908D01*
X142909654Y-94161658D01*
X142909654Y-94808155D01*
X143259841Y-94457969D01*
X142963529Y-93730659D02*
X142963529Y-93676784D01*
X142990467Y-93595972D01*
X143125154Y-93461285D01*
X143205966Y-93434348D01*
X143259841Y-93434348D01*
X143340653Y-93461285D01*
X143394528Y-93515160D01*
X143448402Y-93622910D01*
X143448402Y-94269407D01*
X143798589Y-93919221D01*
X153843722Y-75740592D02*
X153762910Y-75767529D01*
X153682097Y-75848341D01*
X153628223Y-75956091D01*
X153628223Y-76063841D01*
X153655160Y-76144653D01*
X153735972Y-76279340D01*
X153816784Y-76360152D01*
X153951471Y-76440964D01*
X154032284Y-76467902D01*
X154140033Y-76467902D01*
X154247783Y-76414027D01*
X154301658Y-76360152D01*
X154355532Y-76252402D01*
X154355532Y-76198528D01*
X154166971Y-76009966D01*
X154059221Y-76117715D01*
X154651844Y-76009966D02*
X154086158Y-75444280D01*
X154301658Y-75228781D01*
X154382470Y-75201844D01*
X154436345Y-75201844D01*
X154517157Y-75228781D01*
X154597969Y-75309593D01*
X154624906Y-75390406D01*
X154624906Y-75444280D01*
X154597969Y-75525093D01*
X154382470Y-75740592D01*
X155513841Y-75147969D02*
X155190592Y-75471218D01*
X155352216Y-75309593D02*
X154786531Y-74743908D01*
X154813468Y-74878595D01*
X154813468Y-74986345D01*
X154786531Y-75067157D01*
X155459966Y-74070473D02*
X155190592Y-74339847D01*
X155433028Y-74636158D01*
X155433028Y-74582284D01*
X155459966Y-74501471D01*
X155594653Y-74366784D01*
X155675465Y-74339847D01*
X155729340Y-74339847D01*
X155810152Y-74366784D01*
X155944839Y-74501471D01*
X155971776Y-74582284D01*
X155971776Y-74636158D01*
X155944839Y-74716971D01*
X155810152Y-74851658D01*
X155729340Y-74878595D01*
X155675465Y-74878595D01*
X153893722Y-88265592D02*
X153812910Y-88292529D01*
X153732097Y-88373341D01*
X153678223Y-88481091D01*
X153678223Y-88588841D01*
X153705160Y-88669653D01*
X153785972Y-88804340D01*
X153866784Y-88885152D01*
X154001471Y-88965964D01*
X154082284Y-88992902D01*
X154190033Y-88992902D01*
X154297783Y-88939027D01*
X154351658Y-88885152D01*
X154405532Y-88777402D01*
X154405532Y-88723528D01*
X154216971Y-88534966D01*
X154109221Y-88642715D01*
X154701844Y-88534966D02*
X154136158Y-87969280D01*
X154351658Y-87753781D01*
X154432470Y-87726844D01*
X154486345Y-87726844D01*
X154567157Y-87753781D01*
X154647969Y-87834593D01*
X154674906Y-87915406D01*
X154674906Y-87969280D01*
X154647969Y-88050093D01*
X154432470Y-88265592D01*
X155563841Y-87672969D02*
X155240592Y-87996218D01*
X155402216Y-87834593D02*
X154836531Y-87268908D01*
X154863468Y-87403595D01*
X154863468Y-87511345D01*
X154836531Y-87592157D01*
X156102589Y-87134221D02*
X155779340Y-87457470D01*
X155940964Y-87295845D02*
X155375279Y-86730160D01*
X155402216Y-86864847D01*
X155402216Y-86972597D01*
X155375279Y-87053409D01*
X154313096Y-103071218D02*
X154232284Y-103098155D01*
X154151471Y-103178967D01*
X154097597Y-103286717D01*
X154097597Y-103394467D01*
X154124534Y-103475279D01*
X154205346Y-103609966D01*
X154286158Y-103690778D01*
X154420845Y-103771590D01*
X154501658Y-103798528D01*
X154609407Y-103798528D01*
X154717157Y-103744653D01*
X154771032Y-103690778D01*
X154824906Y-103583028D01*
X154824906Y-103529154D01*
X154636345Y-103340592D01*
X154528595Y-103448341D01*
X155121218Y-103340592D02*
X154555532Y-102774906D01*
X154771032Y-102559407D01*
X154851844Y-102532470D01*
X154905719Y-102532470D01*
X154986531Y-102559407D01*
X155067343Y-102640219D01*
X155094280Y-102721032D01*
X155094280Y-102774906D01*
X155067343Y-102855719D01*
X154851844Y-103071218D01*
X155363654Y-101966784D02*
X155255905Y-102074534D01*
X155228967Y-102155346D01*
X155228967Y-102209221D01*
X155255905Y-102343908D01*
X155336717Y-102478595D01*
X155552216Y-102694094D01*
X155633028Y-102721032D01*
X155686903Y-102721032D01*
X155767715Y-102694094D01*
X155875465Y-102586345D01*
X155902402Y-102505532D01*
X155902402Y-102451658D01*
X155875465Y-102370845D01*
X155740778Y-102236158D01*
X155659966Y-102209221D01*
X155606091Y-102209221D01*
X155525279Y-102236158D01*
X155417529Y-102343908D01*
X155390592Y-102424720D01*
X155390592Y-102478595D01*
X155417529Y-102559407D01*
X154413096Y-95521218D02*
X154332284Y-95548155D01*
X154251471Y-95628967D01*
X154197597Y-95736717D01*
X154197597Y-95844467D01*
X154224534Y-95925279D01*
X154305346Y-96059966D01*
X154386158Y-96140778D01*
X154520845Y-96221590D01*
X154601658Y-96248528D01*
X154709407Y-96248528D01*
X154817157Y-96194653D01*
X154871032Y-96140778D01*
X154924906Y-96033028D01*
X154924906Y-95979154D01*
X154736345Y-95790592D01*
X154628595Y-95898341D01*
X155221218Y-95790592D02*
X154655532Y-95224906D01*
X154871032Y-95009407D01*
X154951844Y-94982470D01*
X155005719Y-94982470D01*
X155086531Y-95009407D01*
X155167343Y-95090219D01*
X155194280Y-95171032D01*
X155194280Y-95224906D01*
X155167343Y-95305719D01*
X154951844Y-95521218D01*
X155813841Y-95197969D02*
X155921590Y-95090219D01*
X155948528Y-95009407D01*
X155948528Y-94955532D01*
X155921590Y-94820845D01*
X155840778Y-94686158D01*
X155625279Y-94470659D01*
X155544467Y-94443722D01*
X155490592Y-94443722D01*
X155409780Y-94470659D01*
X155302030Y-94578409D01*
X155275093Y-94659221D01*
X155275093Y-94713096D01*
X155302030Y-94793908D01*
X155436717Y-94928595D01*
X155517529Y-94955532D01*
X155571404Y-94955532D01*
X155652216Y-94928595D01*
X155759966Y-94820845D01*
X155786903Y-94740033D01*
X155786903Y-94686158D01*
X155759966Y-94605346D01*
X153215476Y-71573809D02*
X153329761Y-71611904D01*
X153520238Y-71611904D01*
X153596428Y-71573809D01*
X153634523Y-71535714D01*
X153672619Y-71459523D01*
X153672619Y-71383333D01*
X153634523Y-71307142D01*
X153596428Y-71269047D01*
X153520238Y-71230952D01*
X153367857Y-71192857D01*
X153291666Y-71154761D01*
X153253571Y-71116666D01*
X153215476Y-71040476D01*
X153215476Y-70964285D01*
X153253571Y-70888095D01*
X153291666Y-70850000D01*
X153367857Y-70811904D01*
X153558333Y-70811904D01*
X153672619Y-70850000D01*
X153939285Y-70811904D02*
X154129761Y-71611904D01*
X154282142Y-71040476D01*
X154434523Y-71611904D01*
X154625000Y-70811904D01*
X155386904Y-71535714D02*
X155348809Y-71573809D01*
X155234523Y-71611904D01*
X155158333Y-71611904D01*
X155044047Y-71573809D01*
X154967857Y-71497619D01*
X154929761Y-71421428D01*
X154891666Y-71269047D01*
X154891666Y-71154761D01*
X154929761Y-71002380D01*
X154967857Y-70926190D01*
X155044047Y-70850000D01*
X155158333Y-70811904D01*
X155234523Y-70811904D01*
X155348809Y-70850000D01*
X155386904Y-70888095D01*
X156110714Y-71611904D02*
X155729761Y-71611904D01*
X155729761Y-70811904D01*
X156377380Y-71611904D02*
X156377380Y-70811904D01*
X156834523Y-71611904D02*
X156491666Y-71154761D01*
X156834523Y-70811904D02*
X156377380Y-71269047D01*
X141643597Y-105910964D02*
X141912971Y-105641590D01*
X141751346Y-106126463D02*
X141374223Y-105372216D01*
X142128470Y-105749340D01*
X142074595Y-104725719D02*
X141993783Y-104752656D01*
X141912971Y-104833468D01*
X141859096Y-104941218D01*
X141859096Y-105048967D01*
X141886033Y-105129780D01*
X141966845Y-105264467D01*
X142047658Y-105345279D01*
X142182345Y-105426091D01*
X142263157Y-105453028D01*
X142370906Y-105453028D01*
X142478656Y-105399154D01*
X142532531Y-105345279D01*
X142586406Y-105237529D01*
X142586406Y-105183654D01*
X142397844Y-104995093D01*
X142290094Y-105102842D01*
X142882717Y-104995093D02*
X142317032Y-104429407D01*
X143205966Y-104671844D01*
X142640280Y-104106158D01*
X143475340Y-104402470D02*
X142909654Y-103836784D01*
X143044341Y-103702097D01*
X143152091Y-103648223D01*
X143259841Y-103648223D01*
X143340653Y-103675160D01*
X143475340Y-103755972D01*
X143556152Y-103836784D01*
X143636964Y-103971471D01*
X143663902Y-104052284D01*
X143663902Y-104160033D01*
X143610027Y-104267783D01*
X143475340Y-104402470D01*
X153818722Y-85990592D02*
X153737910Y-86017529D01*
X153657097Y-86098341D01*
X153603223Y-86206091D01*
X153603223Y-86313841D01*
X153630160Y-86394653D01*
X153710972Y-86529340D01*
X153791784Y-86610152D01*
X153926471Y-86690964D01*
X154007284Y-86717902D01*
X154115033Y-86717902D01*
X154222783Y-86664027D01*
X154276658Y-86610152D01*
X154330532Y-86502402D01*
X154330532Y-86448528D01*
X154141971Y-86259966D01*
X154034221Y-86367715D01*
X154626844Y-86259966D02*
X154061158Y-85694280D01*
X154276658Y-85478781D01*
X154357470Y-85451844D01*
X154411345Y-85451844D01*
X154492157Y-85478781D01*
X154572969Y-85559593D01*
X154599906Y-85640406D01*
X154599906Y-85694280D01*
X154572969Y-85775093D01*
X154357470Y-85990592D01*
X155488841Y-85397969D02*
X155165592Y-85721218D01*
X155327216Y-85559593D02*
X154761531Y-84993908D01*
X154788468Y-85128595D01*
X154788468Y-85236345D01*
X154761531Y-85317157D01*
X155192529Y-84670659D02*
X155192529Y-84616784D01*
X155219467Y-84535972D01*
X155354154Y-84401285D01*
X155434966Y-84374348D01*
X155488841Y-84374348D01*
X155569653Y-84401285D01*
X155623528Y-84455160D01*
X155677402Y-84562910D01*
X155677402Y-85209407D01*
X156027589Y-84859221D01*
X153963096Y-123121218D02*
X153882284Y-123148155D01*
X153801471Y-123228967D01*
X153747597Y-123336717D01*
X153747597Y-123444467D01*
X153774534Y-123525279D01*
X153855346Y-123659966D01*
X153936158Y-123740778D01*
X154070845Y-123821590D01*
X154151658Y-123848528D01*
X154259407Y-123848528D01*
X154367157Y-123794653D01*
X154421032Y-123740778D01*
X154474906Y-123633028D01*
X154474906Y-123579154D01*
X154286345Y-123390592D01*
X154178595Y-123498341D01*
X154771218Y-123390592D02*
X154205532Y-122824906D01*
X154421032Y-122609407D01*
X154501844Y-122582470D01*
X154555719Y-122582470D01*
X154636531Y-122609407D01*
X154717343Y-122690219D01*
X154744280Y-122771032D01*
X154744280Y-122824906D01*
X154717343Y-122905719D01*
X154501844Y-123121218D01*
X154878967Y-122151471D02*
X154932842Y-122097597D01*
X155013654Y-122070659D01*
X155067529Y-122070659D01*
X155148341Y-122097597D01*
X155283028Y-122178409D01*
X155417715Y-122313096D01*
X155498528Y-122447783D01*
X155525465Y-122528595D01*
X155525465Y-122582470D01*
X155498528Y-122663282D01*
X155444653Y-122717157D01*
X155363841Y-122744094D01*
X155309966Y-122744094D01*
X155229154Y-122717157D01*
X155094467Y-122636345D01*
X154959780Y-122501658D01*
X154878967Y-122366971D01*
X154852030Y-122286158D01*
X154852030Y-122232284D01*
X154878967Y-122151471D01*
X153868722Y-90815592D02*
X153787910Y-90842529D01*
X153707097Y-90923341D01*
X153653223Y-91031091D01*
X153653223Y-91138841D01*
X153680160Y-91219653D01*
X153760972Y-91354340D01*
X153841784Y-91435152D01*
X153976471Y-91515964D01*
X154057284Y-91542902D01*
X154165033Y-91542902D01*
X154272783Y-91489027D01*
X154326658Y-91435152D01*
X154380532Y-91327402D01*
X154380532Y-91273528D01*
X154191971Y-91084966D01*
X154084221Y-91192715D01*
X154676844Y-91084966D02*
X154111158Y-90519280D01*
X154326658Y-90303781D01*
X154407470Y-90276844D01*
X154461345Y-90276844D01*
X154542157Y-90303781D01*
X154622969Y-90384593D01*
X154649906Y-90465406D01*
X154649906Y-90519280D01*
X154622969Y-90600093D01*
X154407470Y-90815592D01*
X155538841Y-90222969D02*
X155215592Y-90546218D01*
X155377216Y-90384593D02*
X154811531Y-89818908D01*
X154838468Y-89953595D01*
X154838468Y-90061345D01*
X154811531Y-90142157D01*
X155323341Y-89307097D02*
X155377216Y-89253223D01*
X155458028Y-89226285D01*
X155511903Y-89226285D01*
X155592715Y-89253223D01*
X155727402Y-89334035D01*
X155862089Y-89468722D01*
X155942902Y-89603409D01*
X155969839Y-89684221D01*
X155969839Y-89738096D01*
X155942902Y-89818908D01*
X155889027Y-89872783D01*
X155808215Y-89899720D01*
X155754340Y-89899720D01*
X155673528Y-89872783D01*
X155538841Y-89791971D01*
X155404154Y-89657284D01*
X155323341Y-89522597D01*
X155296404Y-89441784D01*
X155296404Y-89387910D01*
X155323341Y-89307097D01*
X141443722Y-75415592D02*
X141362910Y-75442529D01*
X141282097Y-75523341D01*
X141228223Y-75631091D01*
X141228223Y-75738841D01*
X141255160Y-75819653D01*
X141335972Y-75954340D01*
X141416784Y-76035152D01*
X141551471Y-76115964D01*
X141632284Y-76142902D01*
X141740033Y-76142902D01*
X141847783Y-76089027D01*
X141901658Y-76035152D01*
X141955532Y-75927402D01*
X141955532Y-75873528D01*
X141766971Y-75684966D01*
X141659221Y-75792715D01*
X142251844Y-75684966D02*
X141686158Y-75119280D01*
X141901658Y-74903781D01*
X141982470Y-74876844D01*
X142036345Y-74876844D01*
X142117157Y-74903781D01*
X142197969Y-74984593D01*
X142224906Y-75065406D01*
X142224906Y-75119280D01*
X142197969Y-75200093D01*
X141982470Y-75415592D01*
X143113841Y-74822969D02*
X142790592Y-75146218D01*
X142952216Y-74984593D02*
X142386531Y-74418908D01*
X142413468Y-74553595D01*
X142413468Y-74661345D01*
X142386531Y-74742157D01*
X143033028Y-73772410D02*
X142925279Y-73880160D01*
X142898341Y-73960972D01*
X142898341Y-74014847D01*
X142925279Y-74149534D01*
X143006091Y-74284221D01*
X143221590Y-74499720D01*
X143302402Y-74526658D01*
X143356277Y-74526658D01*
X143437089Y-74499720D01*
X143544839Y-74391971D01*
X143571776Y-74311158D01*
X143571776Y-74257284D01*
X143544839Y-74176471D01*
X143410152Y-74041784D01*
X143329340Y-74014847D01*
X143275465Y-74014847D01*
X143194653Y-74041784D01*
X143086903Y-74149534D01*
X143059966Y-74230346D01*
X143059966Y-74284221D01*
X143086903Y-74365033D01*
X141589722Y-102660592D02*
X141508910Y-102687529D01*
X141428097Y-102768341D01*
X141374223Y-102876091D01*
X141374223Y-102983841D01*
X141401160Y-103064653D01*
X141481972Y-103199340D01*
X141562784Y-103280152D01*
X141697471Y-103360964D01*
X141778284Y-103387902D01*
X141886033Y-103387902D01*
X141993783Y-103334027D01*
X142047658Y-103280152D01*
X142101532Y-103172402D01*
X142101532Y-103118528D01*
X141912971Y-102929966D01*
X141805221Y-103037715D01*
X142397844Y-102929966D02*
X141832158Y-102364280D01*
X142047658Y-102148781D01*
X142128470Y-102121844D01*
X142182345Y-102121844D01*
X142263157Y-102148781D01*
X142343969Y-102229593D01*
X142370906Y-102310406D01*
X142370906Y-102364280D01*
X142343969Y-102445093D01*
X142128470Y-102660592D01*
X142424781Y-101879407D02*
X142424781Y-101825532D01*
X142451719Y-101744720D01*
X142586406Y-101610033D01*
X142667218Y-101583096D01*
X142721093Y-101583096D01*
X142801905Y-101610033D01*
X142855780Y-101663908D01*
X142909654Y-101771658D01*
X142909654Y-102418155D01*
X143259841Y-102067969D01*
X142882717Y-101313722D02*
X143259841Y-100936598D01*
X143583089Y-101744720D01*
X141589722Y-77270592D02*
X141508910Y-77297529D01*
X141428097Y-77378341D01*
X141374223Y-77486091D01*
X141374223Y-77593841D01*
X141401160Y-77674653D01*
X141481972Y-77809340D01*
X141562784Y-77890152D01*
X141697471Y-77970964D01*
X141778284Y-77997902D01*
X141886033Y-77997902D01*
X141993783Y-77944027D01*
X142047658Y-77890152D01*
X142101532Y-77782402D01*
X142101532Y-77728528D01*
X141912971Y-77539966D01*
X141805221Y-77647715D01*
X142397844Y-77539966D02*
X141832158Y-76974280D01*
X142047658Y-76758781D01*
X142128470Y-76731844D01*
X142182345Y-76731844D01*
X142263157Y-76758781D01*
X142343969Y-76839593D01*
X142370906Y-76920406D01*
X142370906Y-76974280D01*
X142343969Y-77055093D01*
X142128470Y-77270592D01*
X143259841Y-76677969D02*
X142936592Y-77001218D01*
X143098216Y-76839593D02*
X142532531Y-76273908D01*
X142559468Y-76408595D01*
X142559468Y-76516345D01*
X142532531Y-76597157D01*
X142882717Y-75923722D02*
X143259841Y-75546598D01*
X143583089Y-76354720D01*
X153868722Y-83415592D02*
X153787910Y-83442529D01*
X153707097Y-83523341D01*
X153653223Y-83631091D01*
X153653223Y-83738841D01*
X153680160Y-83819653D01*
X153760972Y-83954340D01*
X153841784Y-84035152D01*
X153976471Y-84115964D01*
X154057284Y-84142902D01*
X154165033Y-84142902D01*
X154272783Y-84089027D01*
X154326658Y-84035152D01*
X154380532Y-83927402D01*
X154380532Y-83873528D01*
X154191971Y-83684966D01*
X154084221Y-83792715D01*
X154676844Y-83684966D02*
X154111158Y-83119280D01*
X154326658Y-82903781D01*
X154407470Y-82876844D01*
X154461345Y-82876844D01*
X154542157Y-82903781D01*
X154622969Y-82984593D01*
X154649906Y-83065406D01*
X154649906Y-83119280D01*
X154622969Y-83200093D01*
X154407470Y-83415592D01*
X155538841Y-82822969D02*
X155215592Y-83146218D01*
X155377216Y-82984593D02*
X154811531Y-82418908D01*
X154838468Y-82553595D01*
X154838468Y-82661345D01*
X154811531Y-82742157D01*
X155161717Y-82068722D02*
X155511903Y-81718536D01*
X155538841Y-82122597D01*
X155619653Y-82041784D01*
X155700465Y-82014847D01*
X155754340Y-82014847D01*
X155835152Y-82041784D01*
X155969839Y-82176471D01*
X155996776Y-82257284D01*
X155996776Y-82311158D01*
X155969839Y-82391971D01*
X155808215Y-82553595D01*
X155727402Y-82580532D01*
X155673528Y-82580532D01*
X142086158Y-117668155D02*
X142005346Y-117695093D01*
X141924534Y-117775905D01*
X141870659Y-117883654D01*
X141870659Y-117991404D01*
X141897597Y-118072216D01*
X141978409Y-118206903D01*
X142059221Y-118287715D01*
X142193908Y-118368528D01*
X142274720Y-118395465D01*
X142382470Y-118395465D01*
X142490219Y-118341590D01*
X142544094Y-118287715D01*
X142597969Y-118179966D01*
X142597969Y-118126091D01*
X142409407Y-117937529D01*
X142301658Y-118045279D01*
X142894280Y-117937529D02*
X142328595Y-117371844D01*
X143217529Y-117614280D01*
X142651844Y-117048595D01*
X143486903Y-117344906D02*
X142921218Y-116779221D01*
X143055905Y-116644534D01*
X143163654Y-116590659D01*
X143271404Y-116590659D01*
X143352216Y-116617597D01*
X143486903Y-116698409D01*
X143567715Y-116779221D01*
X143648528Y-116913908D01*
X143675465Y-116994720D01*
X143675465Y-117102470D01*
X143621590Y-117210219D01*
X143486903Y-117344906D01*
X141589722Y-84890592D02*
X141508910Y-84917529D01*
X141428097Y-84998341D01*
X141374223Y-85106091D01*
X141374223Y-85213841D01*
X141401160Y-85294653D01*
X141481972Y-85429340D01*
X141562784Y-85510152D01*
X141697471Y-85590964D01*
X141778284Y-85617902D01*
X141886033Y-85617902D01*
X141993783Y-85564027D01*
X142047658Y-85510152D01*
X142101532Y-85402402D01*
X142101532Y-85348528D01*
X141912971Y-85159966D01*
X141805221Y-85267715D01*
X142397844Y-85159966D02*
X141832158Y-84594280D01*
X142047658Y-84378781D01*
X142128470Y-84351844D01*
X142182345Y-84351844D01*
X142263157Y-84378781D01*
X142343969Y-84459593D01*
X142370906Y-84540406D01*
X142370906Y-84594280D01*
X142343969Y-84675093D01*
X142128470Y-84890592D01*
X143259841Y-84297969D02*
X142936592Y-84621218D01*
X143098216Y-84459593D02*
X142532531Y-83893908D01*
X142559468Y-84028595D01*
X142559468Y-84136345D01*
X142532531Y-84217157D01*
X143529215Y-84028595D02*
X143636964Y-83920845D01*
X143663902Y-83840033D01*
X143663902Y-83786158D01*
X143636964Y-83651471D01*
X143556152Y-83516784D01*
X143340653Y-83301285D01*
X143259841Y-83274348D01*
X143205966Y-83274348D01*
X143125154Y-83301285D01*
X143017404Y-83409035D01*
X142990467Y-83489847D01*
X142990467Y-83543722D01*
X143017404Y-83624534D01*
X143152091Y-83759221D01*
X143232903Y-83786158D01*
X143286778Y-83786158D01*
X143367590Y-83759221D01*
X143475340Y-83651471D01*
X143502277Y-83570659D01*
X143502277Y-83516784D01*
X143475340Y-83435972D01*
X142438375Y-97873435D02*
X141980439Y-97792622D01*
X142115126Y-98196683D02*
X141549441Y-97630998D01*
X141764940Y-97415499D01*
X141845752Y-97388561D01*
X141899627Y-97388561D01*
X141980439Y-97415499D01*
X142061251Y-97496311D01*
X142088189Y-97577123D01*
X142088189Y-97630998D01*
X142061251Y-97711810D01*
X141845752Y-97927309D01*
X142115126Y-97065312D02*
X142573062Y-97523248D01*
X142653874Y-97550186D01*
X142707749Y-97550186D01*
X142788561Y-97523248D01*
X142896311Y-97415499D01*
X142923248Y-97334687D01*
X142923248Y-97280812D01*
X142896311Y-97199999D01*
X142438375Y-96742064D01*
X143273435Y-97038375D02*
X142707749Y-96472690D01*
X143596683Y-96715126D01*
X143030998Y-96149441D01*
X141589722Y-100130592D02*
X141508910Y-100157529D01*
X141428097Y-100238341D01*
X141374223Y-100346091D01*
X141374223Y-100453841D01*
X141401160Y-100534653D01*
X141481972Y-100669340D01*
X141562784Y-100750152D01*
X141697471Y-100830964D01*
X141778284Y-100857902D01*
X141886033Y-100857902D01*
X141993783Y-100804027D01*
X142047658Y-100750152D01*
X142101532Y-100642402D01*
X142101532Y-100588528D01*
X141912971Y-100399966D01*
X141805221Y-100507715D01*
X142397844Y-100399966D02*
X141832158Y-99834280D01*
X142047658Y-99618781D01*
X142128470Y-99591844D01*
X142182345Y-99591844D01*
X142263157Y-99618781D01*
X142343969Y-99699593D01*
X142370906Y-99780406D01*
X142370906Y-99834280D01*
X142343969Y-99915093D01*
X142128470Y-100130592D01*
X142424781Y-99349407D02*
X142424781Y-99295532D01*
X142451719Y-99214720D01*
X142586406Y-99080033D01*
X142667218Y-99053096D01*
X142721093Y-99053096D01*
X142801905Y-99080033D01*
X142855780Y-99133908D01*
X142909654Y-99241658D01*
X142909654Y-99888155D01*
X143259841Y-99537969D01*
X143179028Y-98487410D02*
X143071279Y-98595160D01*
X143044341Y-98675972D01*
X143044341Y-98729847D01*
X143071279Y-98864534D01*
X143152091Y-98999221D01*
X143367590Y-99214720D01*
X143448402Y-99241658D01*
X143502277Y-99241658D01*
X143583089Y-99214720D01*
X143690839Y-99106971D01*
X143717776Y-99026158D01*
X143717776Y-98972284D01*
X143690839Y-98891471D01*
X143556152Y-98756784D01*
X143475340Y-98729847D01*
X143421465Y-98729847D01*
X143340653Y-98756784D01*
X143232903Y-98864534D01*
X143205966Y-98945346D01*
X143205966Y-98999221D01*
X143232903Y-99080033D01*
X154313096Y-110896218D02*
X154232284Y-110923155D01*
X154151471Y-111003967D01*
X154097597Y-111111717D01*
X154097597Y-111219467D01*
X154124534Y-111300279D01*
X154205346Y-111434966D01*
X154286158Y-111515778D01*
X154420845Y-111596590D01*
X154501658Y-111623528D01*
X154609407Y-111623528D01*
X154717157Y-111569653D01*
X154771032Y-111515778D01*
X154824906Y-111408028D01*
X154824906Y-111354154D01*
X154636345Y-111165592D01*
X154528595Y-111273341D01*
X155121218Y-111165592D02*
X154555532Y-110599906D01*
X154771032Y-110384407D01*
X154851844Y-110357470D01*
X154905719Y-110357470D01*
X154986531Y-110384407D01*
X155067343Y-110465219D01*
X155094280Y-110546032D01*
X155094280Y-110599906D01*
X155067343Y-110680719D01*
X154851844Y-110896218D01*
X155552216Y-109980346D02*
X155929340Y-110357470D01*
X155202030Y-109899534D02*
X155471404Y-110438282D01*
X155821590Y-110088096D01*
X141589722Y-82350592D02*
X141508910Y-82377529D01*
X141428097Y-82458341D01*
X141374223Y-82566091D01*
X141374223Y-82673841D01*
X141401160Y-82754653D01*
X141481972Y-82889340D01*
X141562784Y-82970152D01*
X141697471Y-83050964D01*
X141778284Y-83077902D01*
X141886033Y-83077902D01*
X141993783Y-83024027D01*
X142047658Y-82970152D01*
X142101532Y-82862402D01*
X142101532Y-82808528D01*
X141912971Y-82619966D01*
X141805221Y-82727715D01*
X142397844Y-82619966D02*
X141832158Y-82054280D01*
X142047658Y-81838781D01*
X142128470Y-81811844D01*
X142182345Y-81811844D01*
X142263157Y-81838781D01*
X142343969Y-81919593D01*
X142370906Y-82000406D01*
X142370906Y-82054280D01*
X142343969Y-82135093D01*
X142128470Y-82350592D01*
X143259841Y-81757969D02*
X142936592Y-82081218D01*
X143098216Y-81919593D02*
X142532531Y-81353908D01*
X142559468Y-81488595D01*
X142559468Y-81596345D01*
X142532531Y-81677157D01*
X143259841Y-81111471D02*
X143179028Y-81138409D01*
X143125154Y-81138409D01*
X143044341Y-81111471D01*
X143017404Y-81084534D01*
X142990467Y-81003722D01*
X142990467Y-80949847D01*
X143017404Y-80869035D01*
X143125154Y-80761285D01*
X143205966Y-80734348D01*
X143259841Y-80734348D01*
X143340653Y-80761285D01*
X143367590Y-80788223D01*
X143394528Y-80869035D01*
X143394528Y-80922910D01*
X143367590Y-81003722D01*
X143259841Y-81111471D01*
X143232903Y-81192284D01*
X143232903Y-81246158D01*
X143259841Y-81326971D01*
X143367590Y-81434720D01*
X143448402Y-81461658D01*
X143502277Y-81461658D01*
X143583089Y-81434720D01*
X143690839Y-81326971D01*
X143717776Y-81246158D01*
X143717776Y-81192284D01*
X143690839Y-81111471D01*
X143583089Y-81003722D01*
X143502277Y-80976784D01*
X143448402Y-80976784D01*
X143367590Y-81003722D01*
X141297131Y-116033308D02*
X141647317Y-115683122D01*
X141674255Y-116087183D01*
X141755067Y-116006370D01*
X141835879Y-115979433D01*
X141889754Y-115979433D01*
X141970566Y-116006370D01*
X142105253Y-116141057D01*
X142132190Y-116221870D01*
X142132190Y-116275744D01*
X142105253Y-116356557D01*
X141943629Y-116518181D01*
X141862816Y-116545118D01*
X141808942Y-116545118D01*
X141808942Y-115521497D02*
X142563189Y-115898621D01*
X142186065Y-115144374D01*
X142320752Y-115009687D02*
X142670938Y-114659500D01*
X142697876Y-115063561D01*
X142778688Y-114982749D01*
X142859500Y-114955812D01*
X142913375Y-114955812D01*
X142994187Y-114982749D01*
X143128874Y-115117436D01*
X143155812Y-115198248D01*
X143155812Y-115252123D01*
X143128874Y-115332935D01*
X142967250Y-115494560D01*
X142886438Y-115521497D01*
X142832563Y-115521497D01*
X143398248Y-115171311D02*
X143829247Y-114740312D01*
X143613748Y-114255439D02*
X143802309Y-114066877D01*
X144179433Y-114282377D02*
X143910059Y-114551751D01*
X143344374Y-113986065D01*
X143613748Y-113716691D01*
X144421870Y-114039940D02*
X143856184Y-113474255D01*
X144745118Y-113716691D01*
X144179433Y-113151006D01*
X141589847Y-112590592D02*
X141940033Y-112240406D01*
X141966971Y-112644467D01*
X142047783Y-112563654D01*
X142128595Y-112536717D01*
X142182470Y-112536717D01*
X142263282Y-112563654D01*
X142397969Y-112698341D01*
X142424906Y-112779154D01*
X142424906Y-112833028D01*
X142397969Y-112913841D01*
X142236345Y-113075465D01*
X142155532Y-113102402D01*
X142101658Y-113102402D01*
X142101658Y-112078781D02*
X142855905Y-112455905D01*
X142478781Y-111701658D01*
X142613468Y-111566971D02*
X142963654Y-111216784D01*
X142990592Y-111620845D01*
X143071404Y-111540033D01*
X143152216Y-111513096D01*
X143206091Y-111513096D01*
X143286903Y-111540033D01*
X143421590Y-111674720D01*
X143448528Y-111755532D01*
X143448528Y-111809407D01*
X143421590Y-111890219D01*
X143259966Y-112051844D01*
X143179154Y-112078781D01*
X143125279Y-112078781D01*
X154388096Y-100471218D02*
X154307284Y-100498155D01*
X154226471Y-100578967D01*
X154172597Y-100686717D01*
X154172597Y-100794467D01*
X154199534Y-100875279D01*
X154280346Y-101009966D01*
X154361158Y-101090778D01*
X154495845Y-101171590D01*
X154576658Y-101198528D01*
X154684407Y-101198528D01*
X154792157Y-101144653D01*
X154846032Y-101090778D01*
X154899906Y-100983028D01*
X154899906Y-100929154D01*
X154711345Y-100740592D01*
X154603595Y-100848341D01*
X155196218Y-100740592D02*
X154630532Y-100174906D01*
X154846032Y-99959407D01*
X154926844Y-99932470D01*
X154980719Y-99932470D01*
X155061531Y-99959407D01*
X155142343Y-100040219D01*
X155169280Y-100121032D01*
X155169280Y-100174906D01*
X155142343Y-100255719D01*
X154926844Y-100471218D01*
X155142343Y-99663096D02*
X155519467Y-99285972D01*
X155842715Y-100094094D01*
%TO.C,R9*%
X172558333Y-108077380D02*
X172225000Y-107601190D01*
X171986904Y-108077380D02*
X171986904Y-107077380D01*
X172367857Y-107077380D01*
X172463095Y-107125000D01*
X172510714Y-107172619D01*
X172558333Y-107267857D01*
X172558333Y-107410714D01*
X172510714Y-107505952D01*
X172463095Y-107553571D01*
X172367857Y-107601190D01*
X171986904Y-107601190D01*
X173034523Y-108077380D02*
X173225000Y-108077380D01*
X173320238Y-108029761D01*
X173367857Y-107982142D01*
X173463095Y-107839285D01*
X173510714Y-107648809D01*
X173510714Y-107267857D01*
X173463095Y-107172619D01*
X173415476Y-107125000D01*
X173320238Y-107077380D01*
X173129761Y-107077380D01*
X173034523Y-107125000D01*
X172986904Y-107172619D01*
X172939285Y-107267857D01*
X172939285Y-107505952D01*
X172986904Y-107601190D01*
X173034523Y-107648809D01*
X173129761Y-107696428D01*
X173320238Y-107696428D01*
X173415476Y-107648809D01*
X173463095Y-107601190D01*
X173510714Y-107505952D01*
%TO.C,R20*%
X176707142Y-99202380D02*
X176373809Y-98726190D01*
X176135714Y-99202380D02*
X176135714Y-98202380D01*
X176516666Y-98202380D01*
X176611904Y-98250000D01*
X176659523Y-98297619D01*
X176707142Y-98392857D01*
X176707142Y-98535714D01*
X176659523Y-98630952D01*
X176611904Y-98678571D01*
X176516666Y-98726190D01*
X176135714Y-98726190D01*
X177088095Y-98297619D02*
X177135714Y-98250000D01*
X177230952Y-98202380D01*
X177469047Y-98202380D01*
X177564285Y-98250000D01*
X177611904Y-98297619D01*
X177659523Y-98392857D01*
X177659523Y-98488095D01*
X177611904Y-98630952D01*
X177040476Y-99202380D01*
X177659523Y-99202380D01*
X178278571Y-98202380D02*
X178373809Y-98202380D01*
X178469047Y-98250000D01*
X178516666Y-98297619D01*
X178564285Y-98392857D01*
X178611904Y-98583333D01*
X178611904Y-98821428D01*
X178564285Y-99011904D01*
X178516666Y-99107142D01*
X178469047Y-99154761D01*
X178373809Y-99202380D01*
X178278571Y-99202380D01*
X178183333Y-99154761D01*
X178135714Y-99107142D01*
X178088095Y-99011904D01*
X178040476Y-98821428D01*
X178040476Y-98583333D01*
X178088095Y-98392857D01*
X178135714Y-98297619D01*
X178183333Y-98250000D01*
X178278571Y-98202380D01*
%TO.C,C16*%
X133057142Y-94807142D02*
X133009523Y-94854761D01*
X132866666Y-94902380D01*
X132771428Y-94902380D01*
X132628571Y-94854761D01*
X132533333Y-94759523D01*
X132485714Y-94664285D01*
X132438095Y-94473809D01*
X132438095Y-94330952D01*
X132485714Y-94140476D01*
X132533333Y-94045238D01*
X132628571Y-93950000D01*
X132771428Y-93902380D01*
X132866666Y-93902380D01*
X133009523Y-93950000D01*
X133057142Y-93997619D01*
X134009523Y-94902380D02*
X133438095Y-94902380D01*
X133723809Y-94902380D02*
X133723809Y-93902380D01*
X133628571Y-94045238D01*
X133533333Y-94140476D01*
X133438095Y-94188095D01*
X134866666Y-93902380D02*
X134676190Y-93902380D01*
X134580952Y-93950000D01*
X134533333Y-93997619D01*
X134438095Y-94140476D01*
X134390476Y-94330952D01*
X134390476Y-94711904D01*
X134438095Y-94807142D01*
X134485714Y-94854761D01*
X134580952Y-94902380D01*
X134771428Y-94902380D01*
X134866666Y-94854761D01*
X134914285Y-94807142D01*
X134961904Y-94711904D01*
X134961904Y-94473809D01*
X134914285Y-94378571D01*
X134866666Y-94330952D01*
X134771428Y-94283333D01*
X134580952Y-94283333D01*
X134485714Y-94330952D01*
X134438095Y-94378571D01*
X134390476Y-94473809D01*
%TO.C,R7*%
X172533333Y-110627380D02*
X172200000Y-110151190D01*
X171961904Y-110627380D02*
X171961904Y-109627380D01*
X172342857Y-109627380D01*
X172438095Y-109675000D01*
X172485714Y-109722619D01*
X172533333Y-109817857D01*
X172533333Y-109960714D01*
X172485714Y-110055952D01*
X172438095Y-110103571D01*
X172342857Y-110151190D01*
X171961904Y-110151190D01*
X172866666Y-109627380D02*
X173533333Y-109627380D01*
X173104761Y-110627380D01*
%TO.C,Q1*%
X188304761Y-73297619D02*
X188209523Y-73250000D01*
X188114285Y-73154761D01*
X187971428Y-73011904D01*
X187876190Y-72964285D01*
X187780952Y-72964285D01*
X187828571Y-73202380D02*
X187733333Y-73154761D01*
X187638095Y-73059523D01*
X187590476Y-72869047D01*
X187590476Y-72535714D01*
X187638095Y-72345238D01*
X187733333Y-72250000D01*
X187828571Y-72202380D01*
X188019047Y-72202380D01*
X188114285Y-72250000D01*
X188209523Y-72345238D01*
X188257142Y-72535714D01*
X188257142Y-72869047D01*
X188209523Y-73059523D01*
X188114285Y-73154761D01*
X188019047Y-73202380D01*
X187828571Y-73202380D01*
X189209523Y-73202380D02*
X188638095Y-73202380D01*
X188923809Y-73202380D02*
X188923809Y-72202380D01*
X188828571Y-72345238D01*
X188733333Y-72440476D01*
X188638095Y-72488095D01*
%TO.C,SW4*%
X119579761Y-124433333D02*
X119627380Y-124290476D01*
X119627380Y-124052380D01*
X119579761Y-123957142D01*
X119532142Y-123909523D01*
X119436904Y-123861904D01*
X119341666Y-123861904D01*
X119246428Y-123909523D01*
X119198809Y-123957142D01*
X119151190Y-124052380D01*
X119103571Y-124242857D01*
X119055952Y-124338095D01*
X119008333Y-124385714D01*
X118913095Y-124433333D01*
X118817857Y-124433333D01*
X118722619Y-124385714D01*
X118675000Y-124338095D01*
X118627380Y-124242857D01*
X118627380Y-124004761D01*
X118675000Y-123861904D01*
X118627380Y-123528571D02*
X119627380Y-123290476D01*
X118913095Y-123100000D01*
X119627380Y-122909523D01*
X118627380Y-122671428D01*
X118960714Y-121861904D02*
X119627380Y-121861904D01*
X118579761Y-122100000D02*
X119294047Y-122338095D01*
X119294047Y-121719047D01*
%TO.C,C19*%
X127532142Y-76342857D02*
X127579761Y-76390476D01*
X127627380Y-76533333D01*
X127627380Y-76628571D01*
X127579761Y-76771428D01*
X127484523Y-76866666D01*
X127389285Y-76914285D01*
X127198809Y-76961904D01*
X127055952Y-76961904D01*
X126865476Y-76914285D01*
X126770238Y-76866666D01*
X126675000Y-76771428D01*
X126627380Y-76628571D01*
X126627380Y-76533333D01*
X126675000Y-76390476D01*
X126722619Y-76342857D01*
X127627380Y-75390476D02*
X127627380Y-75961904D01*
X127627380Y-75676190D02*
X126627380Y-75676190D01*
X126770238Y-75771428D01*
X126865476Y-75866666D01*
X126913095Y-75961904D01*
X127627380Y-74914285D02*
X127627380Y-74723809D01*
X127579761Y-74628571D01*
X127532142Y-74580952D01*
X127389285Y-74485714D01*
X127198809Y-74438095D01*
X126817857Y-74438095D01*
X126722619Y-74485714D01*
X126675000Y-74533333D01*
X126627380Y-74628571D01*
X126627380Y-74819047D01*
X126675000Y-74914285D01*
X126722619Y-74961904D01*
X126817857Y-75009523D01*
X127055952Y-75009523D01*
X127151190Y-74961904D01*
X127198809Y-74914285D01*
X127246428Y-74819047D01*
X127246428Y-74628571D01*
X127198809Y-74533333D01*
X127151190Y-74485714D01*
X127055952Y-74438095D01*
%TO.C,R28*%
X119602380Y-86467857D02*
X119126190Y-86801190D01*
X119602380Y-87039285D02*
X118602380Y-87039285D01*
X118602380Y-86658333D01*
X118650000Y-86563095D01*
X118697619Y-86515476D01*
X118792857Y-86467857D01*
X118935714Y-86467857D01*
X119030952Y-86515476D01*
X119078571Y-86563095D01*
X119126190Y-86658333D01*
X119126190Y-87039285D01*
X118697619Y-86086904D02*
X118650000Y-86039285D01*
X118602380Y-85944047D01*
X118602380Y-85705952D01*
X118650000Y-85610714D01*
X118697619Y-85563095D01*
X118792857Y-85515476D01*
X118888095Y-85515476D01*
X119030952Y-85563095D01*
X119602380Y-86134523D01*
X119602380Y-85515476D01*
X119030952Y-84944047D02*
X118983333Y-85039285D01*
X118935714Y-85086904D01*
X118840476Y-85134523D01*
X118792857Y-85134523D01*
X118697619Y-85086904D01*
X118650000Y-85039285D01*
X118602380Y-84944047D01*
X118602380Y-84753571D01*
X118650000Y-84658333D01*
X118697619Y-84610714D01*
X118792857Y-84563095D01*
X118840476Y-84563095D01*
X118935714Y-84610714D01*
X118983333Y-84658333D01*
X119030952Y-84753571D01*
X119030952Y-84944047D01*
X119078571Y-85039285D01*
X119126190Y-85086904D01*
X119221428Y-85134523D01*
X119411904Y-85134523D01*
X119507142Y-85086904D01*
X119554761Y-85039285D01*
X119602380Y-84944047D01*
X119602380Y-84753571D01*
X119554761Y-84658333D01*
X119507142Y-84610714D01*
X119411904Y-84563095D01*
X119221428Y-84563095D01*
X119126190Y-84610714D01*
X119078571Y-84658333D01*
X119030952Y-84753571D01*
%TO.C,R13*%
X116077380Y-109342857D02*
X115601190Y-109676190D01*
X116077380Y-109914285D02*
X115077380Y-109914285D01*
X115077380Y-109533333D01*
X115125000Y-109438095D01*
X115172619Y-109390476D01*
X115267857Y-109342857D01*
X115410714Y-109342857D01*
X115505952Y-109390476D01*
X115553571Y-109438095D01*
X115601190Y-109533333D01*
X115601190Y-109914285D01*
X116077380Y-108390476D02*
X116077380Y-108961904D01*
X116077380Y-108676190D02*
X115077380Y-108676190D01*
X115220238Y-108771428D01*
X115315476Y-108866666D01*
X115363095Y-108961904D01*
X115077380Y-108057142D02*
X115077380Y-107438095D01*
X115458333Y-107771428D01*
X115458333Y-107628571D01*
X115505952Y-107533333D01*
X115553571Y-107485714D01*
X115648809Y-107438095D01*
X115886904Y-107438095D01*
X115982142Y-107485714D01*
X116029761Y-107533333D01*
X116077380Y-107628571D01*
X116077380Y-107914285D01*
X116029761Y-108009523D01*
X115982142Y-108057142D01*
%TO.C,C4*%
X121458333Y-82982142D02*
X121410714Y-83029761D01*
X121267857Y-83077380D01*
X121172619Y-83077380D01*
X121029761Y-83029761D01*
X120934523Y-82934523D01*
X120886904Y-82839285D01*
X120839285Y-82648809D01*
X120839285Y-82505952D01*
X120886904Y-82315476D01*
X120934523Y-82220238D01*
X121029761Y-82125000D01*
X121172619Y-82077380D01*
X121267857Y-82077380D01*
X121410714Y-82125000D01*
X121458333Y-82172619D01*
X122315476Y-82410714D02*
X122315476Y-83077380D01*
X122077380Y-82029761D02*
X121839285Y-82744047D01*
X122458333Y-82744047D01*
%TO.C,R19*%
X131827380Y-105992857D02*
X131351190Y-106326190D01*
X131827380Y-106564285D02*
X130827380Y-106564285D01*
X130827380Y-106183333D01*
X130875000Y-106088095D01*
X130922619Y-106040476D01*
X131017857Y-105992857D01*
X131160714Y-105992857D01*
X131255952Y-106040476D01*
X131303571Y-106088095D01*
X131351190Y-106183333D01*
X131351190Y-106564285D01*
X131827380Y-105040476D02*
X131827380Y-105611904D01*
X131827380Y-105326190D02*
X130827380Y-105326190D01*
X130970238Y-105421428D01*
X131065476Y-105516666D01*
X131113095Y-105611904D01*
X131827380Y-104564285D02*
X131827380Y-104373809D01*
X131779761Y-104278571D01*
X131732142Y-104230952D01*
X131589285Y-104135714D01*
X131398809Y-104088095D01*
X131017857Y-104088095D01*
X130922619Y-104135714D01*
X130875000Y-104183333D01*
X130827380Y-104278571D01*
X130827380Y-104469047D01*
X130875000Y-104564285D01*
X130922619Y-104611904D01*
X131017857Y-104659523D01*
X131255952Y-104659523D01*
X131351190Y-104611904D01*
X131398809Y-104564285D01*
X131446428Y-104469047D01*
X131446428Y-104278571D01*
X131398809Y-104183333D01*
X131351190Y-104135714D01*
X131255952Y-104088095D01*
%TO.C,C18*%
X133407142Y-102832142D02*
X133359523Y-102879761D01*
X133216666Y-102927380D01*
X133121428Y-102927380D01*
X132978571Y-102879761D01*
X132883333Y-102784523D01*
X132835714Y-102689285D01*
X132788095Y-102498809D01*
X132788095Y-102355952D01*
X132835714Y-102165476D01*
X132883333Y-102070238D01*
X132978571Y-101975000D01*
X133121428Y-101927380D01*
X133216666Y-101927380D01*
X133359523Y-101975000D01*
X133407142Y-102022619D01*
X134359523Y-102927380D02*
X133788095Y-102927380D01*
X134073809Y-102927380D02*
X134073809Y-101927380D01*
X133978571Y-102070238D01*
X133883333Y-102165476D01*
X133788095Y-102213095D01*
X134930952Y-102355952D02*
X134835714Y-102308333D01*
X134788095Y-102260714D01*
X134740476Y-102165476D01*
X134740476Y-102117857D01*
X134788095Y-102022619D01*
X134835714Y-101975000D01*
X134930952Y-101927380D01*
X135121428Y-101927380D01*
X135216666Y-101975000D01*
X135264285Y-102022619D01*
X135311904Y-102117857D01*
X135311904Y-102165476D01*
X135264285Y-102260714D01*
X135216666Y-102308333D01*
X135121428Y-102355952D01*
X134930952Y-102355952D01*
X134835714Y-102403571D01*
X134788095Y-102451190D01*
X134740476Y-102546428D01*
X134740476Y-102736904D01*
X134788095Y-102832142D01*
X134835714Y-102879761D01*
X134930952Y-102927380D01*
X135121428Y-102927380D01*
X135216666Y-102879761D01*
X135264285Y-102832142D01*
X135311904Y-102736904D01*
X135311904Y-102546428D01*
X135264285Y-102451190D01*
X135216666Y-102403571D01*
X135121428Y-102355952D01*
%TO.C,U1*%
X169763095Y-75902380D02*
X169763095Y-76711904D01*
X169810714Y-76807142D01*
X169858333Y-76854761D01*
X169953571Y-76902380D01*
X170144047Y-76902380D01*
X170239285Y-76854761D01*
X170286904Y-76807142D01*
X170334523Y-76711904D01*
X170334523Y-75902380D01*
X171334523Y-76902380D02*
X170763095Y-76902380D01*
X171048809Y-76902380D02*
X171048809Y-75902380D01*
X170953571Y-76045238D01*
X170858333Y-76140476D01*
X170763095Y-76188095D01*
%TO.C,R3*%
X172608333Y-115602380D02*
X172275000Y-115126190D01*
X172036904Y-115602380D02*
X172036904Y-114602380D01*
X172417857Y-114602380D01*
X172513095Y-114650000D01*
X172560714Y-114697619D01*
X172608333Y-114792857D01*
X172608333Y-114935714D01*
X172560714Y-115030952D01*
X172513095Y-115078571D01*
X172417857Y-115126190D01*
X172036904Y-115126190D01*
X172941666Y-114602380D02*
X173560714Y-114602380D01*
X173227380Y-114983333D01*
X173370238Y-114983333D01*
X173465476Y-115030952D01*
X173513095Y-115078571D01*
X173560714Y-115173809D01*
X173560714Y-115411904D01*
X173513095Y-115507142D01*
X173465476Y-115554761D01*
X173370238Y-115602380D01*
X173084523Y-115602380D01*
X172989285Y-115554761D01*
X172941666Y-115507142D01*
%TO.C,C8*%
X188507142Y-85091666D02*
X188554761Y-85139285D01*
X188602380Y-85282142D01*
X188602380Y-85377380D01*
X188554761Y-85520238D01*
X188459523Y-85615476D01*
X188364285Y-85663095D01*
X188173809Y-85710714D01*
X188030952Y-85710714D01*
X187840476Y-85663095D01*
X187745238Y-85615476D01*
X187650000Y-85520238D01*
X187602380Y-85377380D01*
X187602380Y-85282142D01*
X187650000Y-85139285D01*
X187697619Y-85091666D01*
X188030952Y-84520238D02*
X187983333Y-84615476D01*
X187935714Y-84663095D01*
X187840476Y-84710714D01*
X187792857Y-84710714D01*
X187697619Y-84663095D01*
X187650000Y-84615476D01*
X187602380Y-84520238D01*
X187602380Y-84329761D01*
X187650000Y-84234523D01*
X187697619Y-84186904D01*
X187792857Y-84139285D01*
X187840476Y-84139285D01*
X187935714Y-84186904D01*
X187983333Y-84234523D01*
X188030952Y-84329761D01*
X188030952Y-84520238D01*
X188078571Y-84615476D01*
X188126190Y-84663095D01*
X188221428Y-84710714D01*
X188411904Y-84710714D01*
X188507142Y-84663095D01*
X188554761Y-84615476D01*
X188602380Y-84520238D01*
X188602380Y-84329761D01*
X188554761Y-84234523D01*
X188507142Y-84186904D01*
X188411904Y-84139285D01*
X188221428Y-84139285D01*
X188126190Y-84186904D01*
X188078571Y-84234523D01*
X188030952Y-84329761D01*
%TO.C,C11*%
X169457142Y-85267857D02*
X169504761Y-85315476D01*
X169552380Y-85458333D01*
X169552380Y-85553571D01*
X169504761Y-85696428D01*
X169409523Y-85791666D01*
X169314285Y-85839285D01*
X169123809Y-85886904D01*
X168980952Y-85886904D01*
X168790476Y-85839285D01*
X168695238Y-85791666D01*
X168600000Y-85696428D01*
X168552380Y-85553571D01*
X168552380Y-85458333D01*
X168600000Y-85315476D01*
X168647619Y-85267857D01*
X169552380Y-84315476D02*
X169552380Y-84886904D01*
X169552380Y-84601190D02*
X168552380Y-84601190D01*
X168695238Y-84696428D01*
X168790476Y-84791666D01*
X168838095Y-84886904D01*
X169552380Y-83363095D02*
X169552380Y-83934523D01*
X169552380Y-83648809D02*
X168552380Y-83648809D01*
X168695238Y-83744047D01*
X168790476Y-83839285D01*
X168838095Y-83934523D01*
%TO.C,R8*%
X162658333Y-108027380D02*
X162325000Y-107551190D01*
X162086904Y-108027380D02*
X162086904Y-107027380D01*
X162467857Y-107027380D01*
X162563095Y-107075000D01*
X162610714Y-107122619D01*
X162658333Y-107217857D01*
X162658333Y-107360714D01*
X162610714Y-107455952D01*
X162563095Y-107503571D01*
X162467857Y-107551190D01*
X162086904Y-107551190D01*
X163229761Y-107455952D02*
X163134523Y-107408333D01*
X163086904Y-107360714D01*
X163039285Y-107265476D01*
X163039285Y-107217857D01*
X163086904Y-107122619D01*
X163134523Y-107075000D01*
X163229761Y-107027380D01*
X163420238Y-107027380D01*
X163515476Y-107075000D01*
X163563095Y-107122619D01*
X163610714Y-107217857D01*
X163610714Y-107265476D01*
X163563095Y-107360714D01*
X163515476Y-107408333D01*
X163420238Y-107455952D01*
X163229761Y-107455952D01*
X163134523Y-107503571D01*
X163086904Y-107551190D01*
X163039285Y-107646428D01*
X163039285Y-107836904D01*
X163086904Y-107932142D01*
X163134523Y-107979761D01*
X163229761Y-108027380D01*
X163420238Y-108027380D01*
X163515476Y-107979761D01*
X163563095Y-107932142D01*
X163610714Y-107836904D01*
X163610714Y-107646428D01*
X163563095Y-107551190D01*
X163515476Y-107503571D01*
X163420238Y-107455952D01*
%TO.C,R27*%
X120582142Y-81002380D02*
X120248809Y-80526190D01*
X120010714Y-81002380D02*
X120010714Y-80002380D01*
X120391666Y-80002380D01*
X120486904Y-80050000D01*
X120534523Y-80097619D01*
X120582142Y-80192857D01*
X120582142Y-80335714D01*
X120534523Y-80430952D01*
X120486904Y-80478571D01*
X120391666Y-80526190D01*
X120010714Y-80526190D01*
X120963095Y-80097619D02*
X121010714Y-80050000D01*
X121105952Y-80002380D01*
X121344047Y-80002380D01*
X121439285Y-80050000D01*
X121486904Y-80097619D01*
X121534523Y-80192857D01*
X121534523Y-80288095D01*
X121486904Y-80430952D01*
X120915476Y-81002380D01*
X121534523Y-81002380D01*
X121867857Y-80002380D02*
X122534523Y-80002380D01*
X122105952Y-81002380D01*
%TO.C,R4*%
X162633333Y-113027380D02*
X162300000Y-112551190D01*
X162061904Y-113027380D02*
X162061904Y-112027380D01*
X162442857Y-112027380D01*
X162538095Y-112075000D01*
X162585714Y-112122619D01*
X162633333Y-112217857D01*
X162633333Y-112360714D01*
X162585714Y-112455952D01*
X162538095Y-112503571D01*
X162442857Y-112551190D01*
X162061904Y-112551190D01*
X163490476Y-112360714D02*
X163490476Y-113027380D01*
X163252380Y-111979761D02*
X163014285Y-112694047D01*
X163633333Y-112694047D01*
%TO.C,C1*%
X182507142Y-71316666D02*
X182554761Y-71364285D01*
X182602380Y-71507142D01*
X182602380Y-71602380D01*
X182554761Y-71745238D01*
X182459523Y-71840476D01*
X182364285Y-71888095D01*
X182173809Y-71935714D01*
X182030952Y-71935714D01*
X181840476Y-71888095D01*
X181745238Y-71840476D01*
X181650000Y-71745238D01*
X181602380Y-71602380D01*
X181602380Y-71507142D01*
X181650000Y-71364285D01*
X181697619Y-71316666D01*
X182602380Y-70364285D02*
X182602380Y-70935714D01*
X182602380Y-70650000D02*
X181602380Y-70650000D01*
X181745238Y-70745238D01*
X181840476Y-70840476D01*
X181888095Y-70935714D01*
%TO.C,J5*%
X115916666Y-97807380D02*
X115916666Y-98521666D01*
X115869047Y-98664523D01*
X115773809Y-98759761D01*
X115630952Y-98807380D01*
X115535714Y-98807380D01*
X116869047Y-97807380D02*
X116392857Y-97807380D01*
X116345238Y-98283571D01*
X116392857Y-98235952D01*
X116488095Y-98188333D01*
X116726190Y-98188333D01*
X116821428Y-98235952D01*
X116869047Y-98283571D01*
X116916666Y-98378809D01*
X116916666Y-98616904D01*
X116869047Y-98712142D01*
X116821428Y-98759761D01*
X116726190Y-98807380D01*
X116488095Y-98807380D01*
X116392857Y-98759761D01*
X116345238Y-98712142D01*
%TO.C,D1*%
X179586904Y-83802380D02*
X179586904Y-82802380D01*
X179825000Y-82802380D01*
X179967857Y-82850000D01*
X180063095Y-82945238D01*
X180110714Y-83040476D01*
X180158333Y-83230952D01*
X180158333Y-83373809D01*
X180110714Y-83564285D01*
X180063095Y-83659523D01*
X179967857Y-83754761D01*
X179825000Y-83802380D01*
X179586904Y-83802380D01*
X181110714Y-83802380D02*
X180539285Y-83802380D01*
X180825000Y-83802380D02*
X180825000Y-82802380D01*
X180729761Y-82945238D01*
X180634523Y-83040476D01*
X180539285Y-83088095D01*
%TO.C,C20*%
X128882142Y-88192857D02*
X128929761Y-88240476D01*
X128977380Y-88383333D01*
X128977380Y-88478571D01*
X128929761Y-88621428D01*
X128834523Y-88716666D01*
X128739285Y-88764285D01*
X128548809Y-88811904D01*
X128405952Y-88811904D01*
X128215476Y-88764285D01*
X128120238Y-88716666D01*
X128025000Y-88621428D01*
X127977380Y-88478571D01*
X127977380Y-88383333D01*
X128025000Y-88240476D01*
X128072619Y-88192857D01*
X128072619Y-87811904D02*
X128025000Y-87764285D01*
X127977380Y-87669047D01*
X127977380Y-87430952D01*
X128025000Y-87335714D01*
X128072619Y-87288095D01*
X128167857Y-87240476D01*
X128263095Y-87240476D01*
X128405952Y-87288095D01*
X128977380Y-87859523D01*
X128977380Y-87240476D01*
X127977380Y-86621428D02*
X127977380Y-86526190D01*
X128025000Y-86430952D01*
X128072619Y-86383333D01*
X128167857Y-86335714D01*
X128358333Y-86288095D01*
X128596428Y-86288095D01*
X128786904Y-86335714D01*
X128882142Y-86383333D01*
X128929761Y-86430952D01*
X128977380Y-86526190D01*
X128977380Y-86621428D01*
X128929761Y-86716666D01*
X128882142Y-86764285D01*
X128786904Y-86811904D01*
X128596428Y-86859523D01*
X128358333Y-86859523D01*
X128167857Y-86811904D01*
X128072619Y-86764285D01*
X128025000Y-86716666D01*
X127977380Y-86621428D01*
%TO.C,C22*%
X132907142Y-79307142D02*
X132859523Y-79354761D01*
X132716666Y-79402380D01*
X132621428Y-79402380D01*
X132478571Y-79354761D01*
X132383333Y-79259523D01*
X132335714Y-79164285D01*
X132288095Y-78973809D01*
X132288095Y-78830952D01*
X132335714Y-78640476D01*
X132383333Y-78545238D01*
X132478571Y-78450000D01*
X132621428Y-78402380D01*
X132716666Y-78402380D01*
X132859523Y-78450000D01*
X132907142Y-78497619D01*
X133288095Y-78497619D02*
X133335714Y-78450000D01*
X133430952Y-78402380D01*
X133669047Y-78402380D01*
X133764285Y-78450000D01*
X133811904Y-78497619D01*
X133859523Y-78592857D01*
X133859523Y-78688095D01*
X133811904Y-78830952D01*
X133240476Y-79402380D01*
X133859523Y-79402380D01*
X134240476Y-78497619D02*
X134288095Y-78450000D01*
X134383333Y-78402380D01*
X134621428Y-78402380D01*
X134716666Y-78450000D01*
X134764285Y-78497619D01*
X134811904Y-78592857D01*
X134811904Y-78688095D01*
X134764285Y-78830952D01*
X134192857Y-79402380D01*
X134811904Y-79402380D01*
%TO.C,R11*%
X172632142Y-105602380D02*
X172298809Y-105126190D01*
X172060714Y-105602380D02*
X172060714Y-104602380D01*
X172441666Y-104602380D01*
X172536904Y-104650000D01*
X172584523Y-104697619D01*
X172632142Y-104792857D01*
X172632142Y-104935714D01*
X172584523Y-105030952D01*
X172536904Y-105078571D01*
X172441666Y-105126190D01*
X172060714Y-105126190D01*
X173584523Y-105602380D02*
X173013095Y-105602380D01*
X173298809Y-105602380D02*
X173298809Y-104602380D01*
X173203571Y-104745238D01*
X173108333Y-104840476D01*
X173013095Y-104888095D01*
X174536904Y-105602380D02*
X173965476Y-105602380D01*
X174251190Y-105602380D02*
X174251190Y-104602380D01*
X174155952Y-104745238D01*
X174060714Y-104840476D01*
X173965476Y-104888095D01*
%TO.C,R16*%
X171577380Y-81442857D02*
X171101190Y-81776190D01*
X171577380Y-82014285D02*
X170577380Y-82014285D01*
X170577380Y-81633333D01*
X170625000Y-81538095D01*
X170672619Y-81490476D01*
X170767857Y-81442857D01*
X170910714Y-81442857D01*
X171005952Y-81490476D01*
X171053571Y-81538095D01*
X171101190Y-81633333D01*
X171101190Y-82014285D01*
X171577380Y-80490476D02*
X171577380Y-81061904D01*
X171577380Y-80776190D02*
X170577380Y-80776190D01*
X170720238Y-80871428D01*
X170815476Y-80966666D01*
X170863095Y-81061904D01*
X170577380Y-79633333D02*
X170577380Y-79823809D01*
X170625000Y-79919047D01*
X170672619Y-79966666D01*
X170815476Y-80061904D01*
X171005952Y-80109523D01*
X171386904Y-80109523D01*
X171482142Y-80061904D01*
X171529761Y-80014285D01*
X171577380Y-79919047D01*
X171577380Y-79728571D01*
X171529761Y-79633333D01*
X171482142Y-79585714D01*
X171386904Y-79538095D01*
X171148809Y-79538095D01*
X171053571Y-79585714D01*
X171005952Y-79633333D01*
X170958333Y-79728571D01*
X170958333Y-79919047D01*
X171005952Y-80014285D01*
X171053571Y-80061904D01*
X171148809Y-80109523D01*
%TO.C,R32*%
X132957142Y-90227380D02*
X132623809Y-89751190D01*
X132385714Y-90227380D02*
X132385714Y-89227380D01*
X132766666Y-89227380D01*
X132861904Y-89275000D01*
X132909523Y-89322619D01*
X132957142Y-89417857D01*
X132957142Y-89560714D01*
X132909523Y-89655952D01*
X132861904Y-89703571D01*
X132766666Y-89751190D01*
X132385714Y-89751190D01*
X133290476Y-89227380D02*
X133909523Y-89227380D01*
X133576190Y-89608333D01*
X133719047Y-89608333D01*
X133814285Y-89655952D01*
X133861904Y-89703571D01*
X133909523Y-89798809D01*
X133909523Y-90036904D01*
X133861904Y-90132142D01*
X133814285Y-90179761D01*
X133719047Y-90227380D01*
X133433333Y-90227380D01*
X133338095Y-90179761D01*
X133290476Y-90132142D01*
X134290476Y-89322619D02*
X134338095Y-89275000D01*
X134433333Y-89227380D01*
X134671428Y-89227380D01*
X134766666Y-89275000D01*
X134814285Y-89322619D01*
X134861904Y-89417857D01*
X134861904Y-89513095D01*
X134814285Y-89655952D01*
X134242857Y-90227380D01*
X134861904Y-90227380D01*
%TO.C,R26*%
X120582142Y-78927380D02*
X120248809Y-78451190D01*
X120010714Y-78927380D02*
X120010714Y-77927380D01*
X120391666Y-77927380D01*
X120486904Y-77975000D01*
X120534523Y-78022619D01*
X120582142Y-78117857D01*
X120582142Y-78260714D01*
X120534523Y-78355952D01*
X120486904Y-78403571D01*
X120391666Y-78451190D01*
X120010714Y-78451190D01*
X120963095Y-78022619D02*
X121010714Y-77975000D01*
X121105952Y-77927380D01*
X121344047Y-77927380D01*
X121439285Y-77975000D01*
X121486904Y-78022619D01*
X121534523Y-78117857D01*
X121534523Y-78213095D01*
X121486904Y-78355952D01*
X120915476Y-78927380D01*
X121534523Y-78927380D01*
X122391666Y-77927380D02*
X122201190Y-77927380D01*
X122105952Y-77975000D01*
X122058333Y-78022619D01*
X121963095Y-78165476D01*
X121915476Y-78355952D01*
X121915476Y-78736904D01*
X121963095Y-78832142D01*
X122010714Y-78879761D01*
X122105952Y-78927380D01*
X122296428Y-78927380D01*
X122391666Y-78879761D01*
X122439285Y-78832142D01*
X122486904Y-78736904D01*
X122486904Y-78498809D01*
X122439285Y-78403571D01*
X122391666Y-78355952D01*
X122296428Y-78308333D01*
X122105952Y-78308333D01*
X122010714Y-78355952D01*
X121963095Y-78403571D01*
X121915476Y-78498809D01*
%TO.C,L1*%
X182008333Y-73502380D02*
X181532142Y-73502380D01*
X181532142Y-72502380D01*
X182865476Y-73502380D02*
X182294047Y-73502380D01*
X182579761Y-73502380D02*
X182579761Y-72502380D01*
X182484523Y-72645238D01*
X182389285Y-72740476D01*
X182294047Y-72788095D01*
%TO.C,SW2*%
X130066666Y-121504761D02*
X130209523Y-121552380D01*
X130447619Y-121552380D01*
X130542857Y-121504761D01*
X130590476Y-121457142D01*
X130638095Y-121361904D01*
X130638095Y-121266666D01*
X130590476Y-121171428D01*
X130542857Y-121123809D01*
X130447619Y-121076190D01*
X130257142Y-121028571D01*
X130161904Y-120980952D01*
X130114285Y-120933333D01*
X130066666Y-120838095D01*
X130066666Y-120742857D01*
X130114285Y-120647619D01*
X130161904Y-120600000D01*
X130257142Y-120552380D01*
X130495238Y-120552380D01*
X130638095Y-120600000D01*
X130971428Y-120552380D02*
X131209523Y-121552380D01*
X131400000Y-120838095D01*
X131590476Y-121552380D01*
X131828571Y-120552380D01*
X132161904Y-120647619D02*
X132209523Y-120600000D01*
X132304761Y-120552380D01*
X132542857Y-120552380D01*
X132638095Y-120600000D01*
X132685714Y-120647619D01*
X132733333Y-120742857D01*
X132733333Y-120838095D01*
X132685714Y-120980952D01*
X132114285Y-121552380D01*
X132733333Y-121552380D01*
%TO.C,J3*%
X167091666Y-119927380D02*
X167091666Y-120641666D01*
X167044047Y-120784523D01*
X166948809Y-120879761D01*
X166805952Y-120927380D01*
X166710714Y-120927380D01*
X167472619Y-119927380D02*
X168091666Y-119927380D01*
X167758333Y-120308333D01*
X167901190Y-120308333D01*
X167996428Y-120355952D01*
X168044047Y-120403571D01*
X168091666Y-120498809D01*
X168091666Y-120736904D01*
X168044047Y-120832142D01*
X167996428Y-120879761D01*
X167901190Y-120927380D01*
X167615476Y-120927380D01*
X167520238Y-120879761D01*
X167472619Y-120832142D01*
%TO.C,R22*%
X186582142Y-99277380D02*
X186248809Y-98801190D01*
X186010714Y-99277380D02*
X186010714Y-98277380D01*
X186391666Y-98277380D01*
X186486904Y-98325000D01*
X186534523Y-98372619D01*
X186582142Y-98467857D01*
X186582142Y-98610714D01*
X186534523Y-98705952D01*
X186486904Y-98753571D01*
X186391666Y-98801190D01*
X186010714Y-98801190D01*
X186963095Y-98372619D02*
X187010714Y-98325000D01*
X187105952Y-98277380D01*
X187344047Y-98277380D01*
X187439285Y-98325000D01*
X187486904Y-98372619D01*
X187534523Y-98467857D01*
X187534523Y-98563095D01*
X187486904Y-98705952D01*
X186915476Y-99277380D01*
X187534523Y-99277380D01*
X187915476Y-98372619D02*
X187963095Y-98325000D01*
X188058333Y-98277380D01*
X188296428Y-98277380D01*
X188391666Y-98325000D01*
X188439285Y-98372619D01*
X188486904Y-98467857D01*
X188486904Y-98563095D01*
X188439285Y-98705952D01*
X187867857Y-99277380D01*
X188486904Y-99277380D01*
%TO.C,R1*%
X172558333Y-117852380D02*
X172225000Y-117376190D01*
X171986904Y-117852380D02*
X171986904Y-116852380D01*
X172367857Y-116852380D01*
X172463095Y-116900000D01*
X172510714Y-116947619D01*
X172558333Y-117042857D01*
X172558333Y-117185714D01*
X172510714Y-117280952D01*
X172463095Y-117328571D01*
X172367857Y-117376190D01*
X171986904Y-117376190D01*
X173510714Y-117852380D02*
X172939285Y-117852380D01*
X173225000Y-117852380D02*
X173225000Y-116852380D01*
X173129761Y-116995238D01*
X173034523Y-117090476D01*
X172939285Y-117138095D01*
%TO.C,C9*%
X178857142Y-85241666D02*
X178904761Y-85289285D01*
X178952380Y-85432142D01*
X178952380Y-85527380D01*
X178904761Y-85670238D01*
X178809523Y-85765476D01*
X178714285Y-85813095D01*
X178523809Y-85860714D01*
X178380952Y-85860714D01*
X178190476Y-85813095D01*
X178095238Y-85765476D01*
X178000000Y-85670238D01*
X177952380Y-85527380D01*
X177952380Y-85432142D01*
X178000000Y-85289285D01*
X178047619Y-85241666D01*
X178952380Y-84765476D02*
X178952380Y-84575000D01*
X178904761Y-84479761D01*
X178857142Y-84432142D01*
X178714285Y-84336904D01*
X178523809Y-84289285D01*
X178142857Y-84289285D01*
X178047619Y-84336904D01*
X178000000Y-84384523D01*
X177952380Y-84479761D01*
X177952380Y-84670238D01*
X178000000Y-84765476D01*
X178047619Y-84813095D01*
X178142857Y-84860714D01*
X178380952Y-84860714D01*
X178476190Y-84813095D01*
X178523809Y-84765476D01*
X178571428Y-84670238D01*
X178571428Y-84479761D01*
X178523809Y-84384523D01*
X178476190Y-84336904D01*
X178380952Y-84289285D01*
%TO.C,R21*%
X180502380Y-108342857D02*
X180026190Y-108676190D01*
X180502380Y-108914285D02*
X179502380Y-108914285D01*
X179502380Y-108533333D01*
X179550000Y-108438095D01*
X179597619Y-108390476D01*
X179692857Y-108342857D01*
X179835714Y-108342857D01*
X179930952Y-108390476D01*
X179978571Y-108438095D01*
X180026190Y-108533333D01*
X180026190Y-108914285D01*
X179597619Y-107961904D02*
X179550000Y-107914285D01*
X179502380Y-107819047D01*
X179502380Y-107580952D01*
X179550000Y-107485714D01*
X179597619Y-107438095D01*
X179692857Y-107390476D01*
X179788095Y-107390476D01*
X179930952Y-107438095D01*
X180502380Y-108009523D01*
X180502380Y-107390476D01*
X180502380Y-106438095D02*
X180502380Y-107009523D01*
X180502380Y-106723809D02*
X179502380Y-106723809D01*
X179645238Y-106819047D01*
X179740476Y-106914285D01*
X179788095Y-107009523D01*
%TO.C,R23*%
X193682142Y-97477380D02*
X193348809Y-97001190D01*
X193110714Y-97477380D02*
X193110714Y-96477380D01*
X193491666Y-96477380D01*
X193586904Y-96525000D01*
X193634523Y-96572619D01*
X193682142Y-96667857D01*
X193682142Y-96810714D01*
X193634523Y-96905952D01*
X193586904Y-96953571D01*
X193491666Y-97001190D01*
X193110714Y-97001190D01*
X194063095Y-96572619D02*
X194110714Y-96525000D01*
X194205952Y-96477380D01*
X194444047Y-96477380D01*
X194539285Y-96525000D01*
X194586904Y-96572619D01*
X194634523Y-96667857D01*
X194634523Y-96763095D01*
X194586904Y-96905952D01*
X194015476Y-97477380D01*
X194634523Y-97477380D01*
X194967857Y-96477380D02*
X195586904Y-96477380D01*
X195253571Y-96858333D01*
X195396428Y-96858333D01*
X195491666Y-96905952D01*
X195539285Y-96953571D01*
X195586904Y-97048809D01*
X195586904Y-97286904D01*
X195539285Y-97382142D01*
X195491666Y-97429761D01*
X195396428Y-97477380D01*
X195110714Y-97477380D01*
X195015476Y-97429761D01*
X194967857Y-97382142D01*
%TO.C,R6*%
X162558333Y-110827380D02*
X162225000Y-110351190D01*
X161986904Y-110827380D02*
X161986904Y-109827380D01*
X162367857Y-109827380D01*
X162463095Y-109875000D01*
X162510714Y-109922619D01*
X162558333Y-110017857D01*
X162558333Y-110160714D01*
X162510714Y-110255952D01*
X162463095Y-110303571D01*
X162367857Y-110351190D01*
X161986904Y-110351190D01*
X163415476Y-109827380D02*
X163225000Y-109827380D01*
X163129761Y-109875000D01*
X163082142Y-109922619D01*
X162986904Y-110065476D01*
X162939285Y-110255952D01*
X162939285Y-110636904D01*
X162986904Y-110732142D01*
X163034523Y-110779761D01*
X163129761Y-110827380D01*
X163320238Y-110827380D01*
X163415476Y-110779761D01*
X163463095Y-110732142D01*
X163510714Y-110636904D01*
X163510714Y-110398809D01*
X163463095Y-110303571D01*
X163415476Y-110255952D01*
X163320238Y-110208333D01*
X163129761Y-110208333D01*
X163034523Y-110255952D01*
X162986904Y-110303571D01*
X162939285Y-110398809D01*
%TO.C,C12*%
X172707142Y-100982142D02*
X172659523Y-101029761D01*
X172516666Y-101077380D01*
X172421428Y-101077380D01*
X172278571Y-101029761D01*
X172183333Y-100934523D01*
X172135714Y-100839285D01*
X172088095Y-100648809D01*
X172088095Y-100505952D01*
X172135714Y-100315476D01*
X172183333Y-100220238D01*
X172278571Y-100125000D01*
X172421428Y-100077380D01*
X172516666Y-100077380D01*
X172659523Y-100125000D01*
X172707142Y-100172619D01*
X173659523Y-101077380D02*
X173088095Y-101077380D01*
X173373809Y-101077380D02*
X173373809Y-100077380D01*
X173278571Y-100220238D01*
X173183333Y-100315476D01*
X173088095Y-100363095D01*
X174040476Y-100172619D02*
X174088095Y-100125000D01*
X174183333Y-100077380D01*
X174421428Y-100077380D01*
X174516666Y-100125000D01*
X174564285Y-100172619D01*
X174611904Y-100267857D01*
X174611904Y-100363095D01*
X174564285Y-100505952D01*
X173992857Y-101077380D01*
X174611904Y-101077380D01*
%TO.C,R15*%
X175627380Y-84792857D02*
X175151190Y-85126190D01*
X175627380Y-85364285D02*
X174627380Y-85364285D01*
X174627380Y-84983333D01*
X174675000Y-84888095D01*
X174722619Y-84840476D01*
X174817857Y-84792857D01*
X174960714Y-84792857D01*
X175055952Y-84840476D01*
X175103571Y-84888095D01*
X175151190Y-84983333D01*
X175151190Y-85364285D01*
X175627380Y-83840476D02*
X175627380Y-84411904D01*
X175627380Y-84126190D02*
X174627380Y-84126190D01*
X174770238Y-84221428D01*
X174865476Y-84316666D01*
X174913095Y-84411904D01*
X174627380Y-82935714D02*
X174627380Y-83411904D01*
X175103571Y-83459523D01*
X175055952Y-83411904D01*
X175008333Y-83316666D01*
X175008333Y-83078571D01*
X175055952Y-82983333D01*
X175103571Y-82935714D01*
X175198809Y-82888095D01*
X175436904Y-82888095D01*
X175532142Y-82935714D01*
X175579761Y-82983333D01*
X175627380Y-83078571D01*
X175627380Y-83316666D01*
X175579761Y-83411904D01*
X175532142Y-83459523D01*
%TO.C,SW3*%
X119654761Y-109658333D02*
X119702380Y-109515476D01*
X119702380Y-109277380D01*
X119654761Y-109182142D01*
X119607142Y-109134523D01*
X119511904Y-109086904D01*
X119416666Y-109086904D01*
X119321428Y-109134523D01*
X119273809Y-109182142D01*
X119226190Y-109277380D01*
X119178571Y-109467857D01*
X119130952Y-109563095D01*
X119083333Y-109610714D01*
X118988095Y-109658333D01*
X118892857Y-109658333D01*
X118797619Y-109610714D01*
X118750000Y-109563095D01*
X118702380Y-109467857D01*
X118702380Y-109229761D01*
X118750000Y-109086904D01*
X118702380Y-108753571D02*
X119702380Y-108515476D01*
X118988095Y-108325000D01*
X119702380Y-108134523D01*
X118702380Y-107896428D01*
X118702380Y-107610714D02*
X118702380Y-106991666D01*
X119083333Y-107325000D01*
X119083333Y-107182142D01*
X119130952Y-107086904D01*
X119178571Y-107039285D01*
X119273809Y-106991666D01*
X119511904Y-106991666D01*
X119607142Y-107039285D01*
X119654761Y-107086904D01*
X119702380Y-107182142D01*
X119702380Y-107467857D01*
X119654761Y-107563095D01*
X119607142Y-107610714D01*
%TO.C,C5*%
X162433333Y-100982142D02*
X162385714Y-101029761D01*
X162242857Y-101077380D01*
X162147619Y-101077380D01*
X162004761Y-101029761D01*
X161909523Y-100934523D01*
X161861904Y-100839285D01*
X161814285Y-100648809D01*
X161814285Y-100505952D01*
X161861904Y-100315476D01*
X161909523Y-100220238D01*
X162004761Y-100125000D01*
X162147619Y-100077380D01*
X162242857Y-100077380D01*
X162385714Y-100125000D01*
X162433333Y-100172619D01*
X163338095Y-100077380D02*
X162861904Y-100077380D01*
X162814285Y-100553571D01*
X162861904Y-100505952D01*
X162957142Y-100458333D01*
X163195238Y-100458333D01*
X163290476Y-100505952D01*
X163338095Y-100553571D01*
X163385714Y-100648809D01*
X163385714Y-100886904D01*
X163338095Y-100982142D01*
X163290476Y-101029761D01*
X163195238Y-101077380D01*
X162957142Y-101077380D01*
X162861904Y-101029761D01*
X162814285Y-100982142D01*
%TO.C,R29*%
X133032142Y-92877380D02*
X132698809Y-92401190D01*
X132460714Y-92877380D02*
X132460714Y-91877380D01*
X132841666Y-91877380D01*
X132936904Y-91925000D01*
X132984523Y-91972619D01*
X133032142Y-92067857D01*
X133032142Y-92210714D01*
X132984523Y-92305952D01*
X132936904Y-92353571D01*
X132841666Y-92401190D01*
X132460714Y-92401190D01*
X133413095Y-91972619D02*
X133460714Y-91925000D01*
X133555952Y-91877380D01*
X133794047Y-91877380D01*
X133889285Y-91925000D01*
X133936904Y-91972619D01*
X133984523Y-92067857D01*
X133984523Y-92163095D01*
X133936904Y-92305952D01*
X133365476Y-92877380D01*
X133984523Y-92877380D01*
X134460714Y-92877380D02*
X134651190Y-92877380D01*
X134746428Y-92829761D01*
X134794047Y-92782142D01*
X134889285Y-92639285D01*
X134936904Y-92448809D01*
X134936904Y-92067857D01*
X134889285Y-91972619D01*
X134841666Y-91925000D01*
X134746428Y-91877380D01*
X134555952Y-91877380D01*
X134460714Y-91925000D01*
X134413095Y-91972619D01*
X134365476Y-92067857D01*
X134365476Y-92305952D01*
X134413095Y-92401190D01*
X134460714Y-92448809D01*
X134555952Y-92496428D01*
X134746428Y-92496428D01*
X134841666Y-92448809D01*
X134889285Y-92401190D01*
X134936904Y-92305952D01*
%TO.C,R2*%
X162608333Y-115302380D02*
X162275000Y-114826190D01*
X162036904Y-115302380D02*
X162036904Y-114302380D01*
X162417857Y-114302380D01*
X162513095Y-114350000D01*
X162560714Y-114397619D01*
X162608333Y-114492857D01*
X162608333Y-114635714D01*
X162560714Y-114730952D01*
X162513095Y-114778571D01*
X162417857Y-114826190D01*
X162036904Y-114826190D01*
X162989285Y-114397619D02*
X163036904Y-114350000D01*
X163132142Y-114302380D01*
X163370238Y-114302380D01*
X163465476Y-114350000D01*
X163513095Y-114397619D01*
X163560714Y-114492857D01*
X163560714Y-114588095D01*
X163513095Y-114730952D01*
X162941666Y-115302380D01*
X163560714Y-115302380D01*
%TO.C,R25*%
X187357142Y-123227380D02*
X187023809Y-122751190D01*
X186785714Y-123227380D02*
X186785714Y-122227380D01*
X187166666Y-122227380D01*
X187261904Y-122275000D01*
X187309523Y-122322619D01*
X187357142Y-122417857D01*
X187357142Y-122560714D01*
X187309523Y-122655952D01*
X187261904Y-122703571D01*
X187166666Y-122751190D01*
X186785714Y-122751190D01*
X187738095Y-122322619D02*
X187785714Y-122275000D01*
X187880952Y-122227380D01*
X188119047Y-122227380D01*
X188214285Y-122275000D01*
X188261904Y-122322619D01*
X188309523Y-122417857D01*
X188309523Y-122513095D01*
X188261904Y-122655952D01*
X187690476Y-123227380D01*
X188309523Y-123227380D01*
X189214285Y-122227380D02*
X188738095Y-122227380D01*
X188690476Y-122703571D01*
X188738095Y-122655952D01*
X188833333Y-122608333D01*
X189071428Y-122608333D01*
X189166666Y-122655952D01*
X189214285Y-122703571D01*
X189261904Y-122798809D01*
X189261904Y-123036904D01*
X189214285Y-123132142D01*
X189166666Y-123179761D01*
X189071428Y-123227380D01*
X188833333Y-123227380D01*
X188738095Y-123179761D01*
X188690476Y-123132142D01*
%TO.C,J6*%
X120566666Y-96502380D02*
X120566666Y-97216666D01*
X120519047Y-97359523D01*
X120423809Y-97454761D01*
X120280952Y-97502380D01*
X120185714Y-97502380D01*
X121471428Y-96502380D02*
X121280952Y-96502380D01*
X121185714Y-96550000D01*
X121138095Y-96597619D01*
X121042857Y-96740476D01*
X120995238Y-96930952D01*
X120995238Y-97311904D01*
X121042857Y-97407142D01*
X121090476Y-97454761D01*
X121185714Y-97502380D01*
X121376190Y-97502380D01*
X121471428Y-97454761D01*
X121519047Y-97407142D01*
X121566666Y-97311904D01*
X121566666Y-97073809D01*
X121519047Y-96978571D01*
X121471428Y-96930952D01*
X121376190Y-96883333D01*
X121185714Y-96883333D01*
X121090476Y-96930952D01*
X121042857Y-96978571D01*
X120995238Y-97073809D01*
%TO.C,R10*%
X161732142Y-105802380D02*
X161398809Y-105326190D01*
X161160714Y-105802380D02*
X161160714Y-104802380D01*
X161541666Y-104802380D01*
X161636904Y-104850000D01*
X161684523Y-104897619D01*
X161732142Y-104992857D01*
X161732142Y-105135714D01*
X161684523Y-105230952D01*
X161636904Y-105278571D01*
X161541666Y-105326190D01*
X161160714Y-105326190D01*
X162684523Y-105802380D02*
X162113095Y-105802380D01*
X162398809Y-105802380D02*
X162398809Y-104802380D01*
X162303571Y-104945238D01*
X162208333Y-105040476D01*
X162113095Y-105088095D01*
X163303571Y-104802380D02*
X163398809Y-104802380D01*
X163494047Y-104850000D01*
X163541666Y-104897619D01*
X163589285Y-104992857D01*
X163636904Y-105183333D01*
X163636904Y-105421428D01*
X163589285Y-105611904D01*
X163541666Y-105707142D01*
X163494047Y-105754761D01*
X163398809Y-105802380D01*
X163303571Y-105802380D01*
X163208333Y-105754761D01*
X163160714Y-105707142D01*
X163113095Y-105611904D01*
X163065476Y-105421428D01*
X163065476Y-105183333D01*
X163113095Y-104992857D01*
X163160714Y-104897619D01*
X163208333Y-104850000D01*
X163303571Y-104802380D01*
%TO.C,R30*%
X133007142Y-96977380D02*
X132673809Y-96501190D01*
X132435714Y-96977380D02*
X132435714Y-95977380D01*
X132816666Y-95977380D01*
X132911904Y-96025000D01*
X132959523Y-96072619D01*
X133007142Y-96167857D01*
X133007142Y-96310714D01*
X132959523Y-96405952D01*
X132911904Y-96453571D01*
X132816666Y-96501190D01*
X132435714Y-96501190D01*
X133340476Y-95977380D02*
X133959523Y-95977380D01*
X133626190Y-96358333D01*
X133769047Y-96358333D01*
X133864285Y-96405952D01*
X133911904Y-96453571D01*
X133959523Y-96548809D01*
X133959523Y-96786904D01*
X133911904Y-96882142D01*
X133864285Y-96929761D01*
X133769047Y-96977380D01*
X133483333Y-96977380D01*
X133388095Y-96929761D01*
X133340476Y-96882142D01*
X134578571Y-95977380D02*
X134673809Y-95977380D01*
X134769047Y-96025000D01*
X134816666Y-96072619D01*
X134864285Y-96167857D01*
X134911904Y-96358333D01*
X134911904Y-96596428D01*
X134864285Y-96786904D01*
X134816666Y-96882142D01*
X134769047Y-96929761D01*
X134673809Y-96977380D01*
X134578571Y-96977380D01*
X134483333Y-96929761D01*
X134435714Y-96882142D01*
X134388095Y-96786904D01*
X134340476Y-96596428D01*
X134340476Y-96358333D01*
X134388095Y-96167857D01*
X134435714Y-96072619D01*
X134483333Y-96025000D01*
X134578571Y-95977380D01*
%TO.C,J7*%
X120466666Y-100202380D02*
X120466666Y-100916666D01*
X120419047Y-101059523D01*
X120323809Y-101154761D01*
X120180952Y-101202380D01*
X120085714Y-101202380D01*
X120847619Y-100202380D02*
X121514285Y-100202380D01*
X121085714Y-101202380D01*
%TO.C,R14*%
X133752380Y-105992857D02*
X133276190Y-106326190D01*
X133752380Y-106564285D02*
X132752380Y-106564285D01*
X132752380Y-106183333D01*
X132800000Y-106088095D01*
X132847619Y-106040476D01*
X132942857Y-105992857D01*
X133085714Y-105992857D01*
X133180952Y-106040476D01*
X133228571Y-106088095D01*
X133276190Y-106183333D01*
X133276190Y-106564285D01*
X133752380Y-105040476D02*
X133752380Y-105611904D01*
X133752380Y-105326190D02*
X132752380Y-105326190D01*
X132895238Y-105421428D01*
X132990476Y-105516666D01*
X133038095Y-105611904D01*
X133085714Y-104183333D02*
X133752380Y-104183333D01*
X132704761Y-104421428D02*
X133419047Y-104659523D01*
X133419047Y-104040476D01*
%TO.C,J2*%
X164041666Y-95227380D02*
X164041666Y-95941666D01*
X163994047Y-96084523D01*
X163898809Y-96179761D01*
X163755952Y-96227380D01*
X163660714Y-96227380D01*
X164470238Y-95322619D02*
X164517857Y-95275000D01*
X164613095Y-95227380D01*
X164851190Y-95227380D01*
X164946428Y-95275000D01*
X164994047Y-95322619D01*
X165041666Y-95417857D01*
X165041666Y-95513095D01*
X164994047Y-95655952D01*
X164422619Y-96227380D01*
X165041666Y-96227380D01*
D12*
%TO.C,U5*%
X131675000Y-77260000D02*
X133475000Y-77260000D01*
X133475000Y-74040000D02*
X130525000Y-74040000D01*
%TO.C,C7*%
X121610000Y-89998752D02*
X121610000Y-89476248D01*
X120140000Y-89998752D02*
X120140000Y-89476248D01*
%TO.C,U4*%
X124775000Y-88285000D02*
X123975000Y-88285000D01*
X124775000Y-85165000D02*
X125575000Y-85165000D01*
X124775000Y-88285000D02*
X126575000Y-88285000D01*
X124775000Y-85165000D02*
X123975000Y-85165000D01*
%TO.C,C3*%
X173690000Y-71977064D02*
X173690000Y-71522936D01*
X175160000Y-71977064D02*
X175160000Y-71522936D01*
%TO.C,R18*%
X128440000Y-108852064D02*
X128440000Y-108397936D01*
X129910000Y-108852064D02*
X129910000Y-108397936D01*
%TO.C,R5*%
X169622936Y-113410000D02*
X170077064Y-113410000D01*
X169622936Y-111940000D02*
X170077064Y-111940000D01*
%TO.C,R12*%
X166102064Y-103535000D02*
X165647936Y-103535000D01*
X166102064Y-102065000D02*
X165647936Y-102065000D01*
%TO.C,J1*%
X194880000Y-109495000D02*
X193550000Y-109495000D01*
X194880000Y-108165000D02*
X194880000Y-109495000D01*
X194880000Y-104295000D02*
X192220000Y-104295000D01*
X194880000Y-106895000D02*
X194880000Y-104295000D01*
X192220000Y-106895000D02*
X192220000Y-104295000D01*
X194880000Y-106895000D02*
X192220000Y-106895000D01*
%TO.C,C13*%
X178210000Y-104452064D02*
X178210000Y-103997936D01*
X176740000Y-104452064D02*
X176740000Y-103997936D01*
%TO.C,C17*%
X130126248Y-99235000D02*
X130648752Y-99235000D01*
X130126248Y-97765000D02*
X130648752Y-97765000D01*
%TO.C,J4*%
X146110000Y-71105000D02*
X144780000Y-71105000D01*
X147380000Y-71105000D02*
X152520000Y-71105000D01*
X147380000Y-71105000D02*
X147380000Y-68445000D01*
X147380000Y-68445000D02*
X152520000Y-68445000D01*
X144780000Y-71105000D02*
X144780000Y-69775000D01*
X152520000Y-71105000D02*
X152520000Y-68445000D01*
%TO.C,C10*%
X124460436Y-89590000D02*
X124914564Y-89590000D01*
X124460436Y-91060000D02*
X124914564Y-91060000D01*
%TO.C,R31*%
X130122936Y-99765000D02*
X130577064Y-99765000D01*
X130122936Y-101235000D02*
X130577064Y-101235000D01*
%TO.C,C15*%
X192873752Y-102385000D02*
X191451248Y-102385000D01*
X192873752Y-100565000D02*
X191451248Y-100565000D01*
%TO.C,U3*%
X185375000Y-106560000D02*
X188825000Y-106560000D01*
X185375000Y-101440000D02*
X183425000Y-101440000D01*
X185375000Y-106560000D02*
X183425000Y-106560000D01*
X185375000Y-101440000D02*
X187325000Y-101440000D01*
%TO.C,C21*%
X131160000Y-82552064D02*
X131160000Y-81097936D01*
X129340000Y-82552064D02*
X129340000Y-81097936D01*
%TO.C,C2*%
X179240000Y-71902064D02*
X179240000Y-70447936D01*
X181060000Y-71902064D02*
X181060000Y-70447936D01*
%TO.C,J8*%
X122230000Y-93170000D02*
X122230000Y-95830000D01*
X127430000Y-93170000D02*
X127430000Y-94500000D01*
X124830000Y-93170000D02*
X122230000Y-93170000D01*
X124830000Y-93170000D02*
X124830000Y-95830000D01*
X126100000Y-93170000D02*
X127430000Y-93170000D01*
X124830000Y-95830000D02*
X122230000Y-95830000D01*
%TO.C,U6*%
X135110000Y-85125000D02*
X135110000Y-83325000D01*
X131890000Y-83325000D02*
X131890000Y-85775000D01*
%TO.C,SW1*%
X115350000Y-118925000D02*
X116850000Y-118925000D01*
X119350000Y-117675000D02*
X119350000Y-113175000D01*
X116850000Y-111925000D02*
X115350000Y-111925000D01*
X112850000Y-113175000D02*
X112850000Y-117675000D01*
%TO.C,R17*%
X169647936Y-103535000D02*
X170102064Y-103535000D01*
X169647936Y-102065000D02*
X170102064Y-102065000D01*
%TO.C,SW6*%
X189725000Y-119075000D02*
X189725000Y-114575000D01*
X187225000Y-113325000D02*
X185725000Y-113325000D01*
X185725000Y-120325000D02*
X187225000Y-120325000D01*
X183225000Y-114575000D02*
X183225000Y-119075000D01*
%TO.C,R24*%
X176702064Y-123385000D02*
X176247936Y-123385000D01*
X176702064Y-121915000D02*
X176247936Y-121915000D01*
%TO.C,SW5*%
X177675000Y-120275000D02*
X179175000Y-120275000D01*
X175175000Y-114525000D02*
X175175000Y-119025000D01*
X179175000Y-113275000D02*
X177675000Y-113275000D01*
X181675000Y-119025000D02*
X181675000Y-114525000D01*
%TO.C,C14*%
X185198752Y-108885000D02*
X183776248Y-108885000D01*
X185198752Y-107065000D02*
X183776248Y-107065000D01*
%TO.C,U2*%
X138090000Y-111960000D02*
X138090000Y-111560000D01*
X156083000Y-121893000D02*
X156083000Y-124560000D01*
X138090000Y-106860000D02*
X138090000Y-106460000D01*
X138090000Y-109460000D02*
X138090000Y-109060000D01*
X138090000Y-119560000D02*
X138090000Y-119160000D01*
X159090000Y-89060000D02*
X159090000Y-88660000D01*
X150090000Y-73560000D02*
X149690000Y-73560000D01*
X159090000Y-111960000D02*
X159090000Y-111560000D01*
X138090000Y-124560000D02*
X138090000Y-124260000D01*
X138090000Y-89060000D02*
X138090000Y-88660000D01*
X138090000Y-117060000D02*
X138090000Y-116660000D01*
X159090000Y-76360000D02*
X159090000Y-75960000D01*
X138090000Y-114460000D02*
X138090000Y-114060000D01*
X138090000Y-91660000D02*
X138090000Y-91260000D01*
X138090000Y-94160000D02*
X138090000Y-93760000D01*
X138090000Y-83960000D02*
X138090000Y-83560000D01*
X138090000Y-81460000D02*
X138090000Y-81060000D01*
X138090000Y-104360000D02*
X138090000Y-103960000D01*
X159090000Y-91660000D02*
X159090000Y-91260000D01*
X159090000Y-121893000D02*
X156083000Y-121893000D01*
X138090000Y-73560000D02*
X144890000Y-73560000D01*
X159090000Y-109460000D02*
X159090000Y-109060000D01*
X159090000Y-117060000D02*
X159090000Y-116660000D01*
X159090000Y-104360000D02*
X159090000Y-103960000D01*
X138090000Y-99260000D02*
X138090000Y-98860000D01*
X159090000Y-83960000D02*
X159090000Y-83560000D01*
X138090000Y-122160000D02*
X138090000Y-121760000D01*
X152290000Y-73560000D02*
X159090000Y-73560000D01*
X159090000Y-99260000D02*
X159090000Y-98860000D01*
X159090000Y-119560000D02*
X159090000Y-119160000D01*
X138090000Y-78960000D02*
X138090000Y-78560000D01*
X159090000Y-124560000D02*
X138090000Y-124560000D01*
X138090000Y-96760000D02*
X138090000Y-96360000D01*
X159090000Y-94160000D02*
X159090000Y-93760000D01*
X159090000Y-106860000D02*
X159090000Y-106460000D01*
X159090000Y-124560000D02*
X159090000Y-124260000D01*
X138090000Y-76360000D02*
X138090000Y-75960000D01*
X159090000Y-81460000D02*
X159090000Y-81060000D01*
X147490000Y-73560000D02*
X147090000Y-73560000D01*
X138090000Y-101760000D02*
X138090000Y-101360000D01*
X159090000Y-96760000D02*
X159090000Y-96360000D01*
X159090000Y-114460000D02*
X159090000Y-114060000D01*
X138090000Y-86560000D02*
X138090000Y-86160000D01*
X159090000Y-101760000D02*
X159090000Y-101360000D01*
X159090000Y-86560000D02*
X159090000Y-86160000D01*
X159090000Y-122160000D02*
X159090000Y-121760000D01*
X159090000Y-78960000D02*
X159090000Y-78560000D01*
%TO.C,R9*%
X169622936Y-106865000D02*
X170077064Y-106865000D01*
X169622936Y-108335000D02*
X170077064Y-108335000D01*
%TO.C,R20*%
X177197936Y-99890000D02*
X177652064Y-99890000D01*
X177197936Y-101360000D02*
X177652064Y-101360000D01*
%TO.C,C16*%
X130126248Y-95210000D02*
X130648752Y-95210000D01*
X130126248Y-93740000D02*
X130648752Y-93740000D01*
%TO.C,R7*%
X169622936Y-110885000D02*
X170077064Y-110885000D01*
X169622936Y-109415000D02*
X170077064Y-109415000D01*
%TO.C,Q1*%
X186550000Y-80660000D02*
X190310000Y-80660000D01*
X190310000Y-80660000D02*
X190310000Y-79400000D01*
X190310000Y-73840000D02*
X190310000Y-75100000D01*
X184300000Y-73840000D02*
X190310000Y-73840000D01*
%TO.C,SW4*%
X120425000Y-117850000D02*
X120425000Y-122350000D01*
X124425000Y-116600000D02*
X122925000Y-116600000D01*
X122925000Y-123600000D02*
X124425000Y-123600000D01*
X126925000Y-122350000D02*
X126925000Y-117850000D01*
%TO.C,C19*%
X129560000Y-75927064D02*
X129560000Y-75472936D01*
X128090000Y-75927064D02*
X128090000Y-75472936D01*
%TO.C,R28*%
X121610000Y-86127064D02*
X121610000Y-85672936D01*
X120140000Y-86127064D02*
X120140000Y-85672936D01*
%TO.C,R13*%
X118010000Y-108927064D02*
X118010000Y-108472936D01*
X116540000Y-108927064D02*
X116540000Y-108472936D01*
%TO.C,C4*%
X124472936Y-81890000D02*
X124927064Y-81890000D01*
X124472936Y-83360000D02*
X124927064Y-83360000D01*
%TO.C,R19*%
X131985000Y-108852064D02*
X131985000Y-108397936D01*
X130515000Y-108852064D02*
X130515000Y-108397936D01*
%TO.C,C18*%
X130126248Y-103235000D02*
X130648752Y-103235000D01*
X130126248Y-101765000D02*
X130648752Y-101765000D01*
%TO.C,U1*%
X174900000Y-74840000D02*
X176400000Y-74840000D01*
X174900000Y-78060000D02*
X176400000Y-78060000D01*
X174900000Y-74840000D02*
X171975000Y-74840000D01*
X174900000Y-78060000D02*
X173400000Y-78060000D01*
%TO.C,R3*%
X169622936Y-115685000D02*
X170077064Y-115685000D01*
X169622936Y-114215000D02*
X170077064Y-114215000D01*
%TO.C,C8*%
X195535000Y-95635000D02*
X192685000Y-95635000D01*
X187879437Y-86915000D02*
X189665000Y-86915000D01*
X186815000Y-95635000D02*
X189665000Y-95635000D01*
X194185000Y-86175000D02*
X193185000Y-86175000D01*
X194470563Y-86915000D02*
X192685000Y-86915000D01*
X194470563Y-86915000D02*
X195535000Y-87979437D01*
X186815000Y-87979437D02*
X186815000Y-95635000D01*
X193685000Y-85675000D02*
X193685000Y-86675000D01*
X187879437Y-86915000D02*
X186815000Y-87979437D01*
X195535000Y-87979437D02*
X195535000Y-95635000D01*
%TO.C,C11*%
X167140000Y-87829437D02*
X167140000Y-95485000D01*
X174510000Y-86025000D02*
X173510000Y-86025000D01*
X174795563Y-86765000D02*
X173010000Y-86765000D01*
X174795563Y-86765000D02*
X175860000Y-87829437D01*
X167140000Y-95485000D02*
X169990000Y-95485000D01*
X174010000Y-85525000D02*
X174010000Y-86525000D01*
X175860000Y-95485000D02*
X173010000Y-95485000D01*
X168204437Y-86765000D02*
X169990000Y-86765000D01*
X175860000Y-87829437D02*
X175860000Y-95485000D01*
X168204437Y-86765000D02*
X167140000Y-87829437D01*
%TO.C,R8*%
X166102064Y-108335000D02*
X165647936Y-108335000D01*
X166102064Y-106865000D02*
X165647936Y-106865000D01*
%TO.C,R27*%
X124422936Y-79765000D02*
X124877064Y-79765000D01*
X124422936Y-81235000D02*
X124877064Y-81235000D01*
%TO.C,R4*%
X166139564Y-111940000D02*
X165685436Y-111940000D01*
X166139564Y-113410000D02*
X165685436Y-113410000D01*
%TO.C,C1*%
X176340000Y-71977064D02*
X176340000Y-70522936D01*
X178160000Y-71977064D02*
X178160000Y-70522936D01*
%TO.C,J5*%
X117580000Y-96025000D02*
X117580000Y-97355000D01*
X117580000Y-94755000D02*
X114920000Y-94755000D01*
X117580000Y-89615000D02*
X114920000Y-89615000D01*
X117580000Y-97355000D02*
X116250000Y-97355000D01*
X117580000Y-94755000D02*
X117580000Y-89615000D01*
X114920000Y-94755000D02*
X114920000Y-89615000D01*
%TO.C,D1*%
X177145000Y-79615000D02*
X182125000Y-79615000D01*
X177145000Y-79615000D02*
X177145000Y-82335000D01*
X177145000Y-82335000D02*
X182125000Y-82335000D01*
%TO.C,C20*%
X131210000Y-86322936D02*
X131210000Y-87777064D01*
X129390000Y-86322936D02*
X129390000Y-87777064D01*
%TO.C,C22*%
X133322936Y-79865000D02*
X133777064Y-79865000D01*
X133322936Y-81335000D02*
X133777064Y-81335000D01*
%TO.C,R11*%
X169647936Y-105910000D02*
X170102064Y-105910000D01*
X169647936Y-104440000D02*
X170102064Y-104440000D01*
%TO.C,R16*%
X172115000Y-80447936D02*
X172115000Y-80902064D01*
X173585000Y-80447936D02*
X173585000Y-80902064D01*
%TO.C,R32*%
X133827064Y-88860000D02*
X133372936Y-88860000D01*
X133827064Y-87390000D02*
X133372936Y-87390000D01*
%TO.C,R26*%
X124877064Y-77765000D02*
X124422936Y-77765000D01*
X124877064Y-79235000D02*
X124422936Y-79235000D01*
%TO.C,L1*%
X178950000Y-74465000D02*
X182950000Y-74465000D01*
X182950000Y-78685000D02*
X178950000Y-78685000D01*
%TO.C,SW2*%
X132050000Y-111900000D02*
X130550000Y-111900000D01*
X128050000Y-113150000D02*
X128050000Y-117650000D01*
X134550000Y-117650000D02*
X134550000Y-113150000D01*
X130550000Y-118900000D02*
X132050000Y-118900000D01*
%TO.C,J3*%
X163120000Y-119270000D02*
X163120000Y-124410000D01*
X165780000Y-119270000D02*
X165780000Y-124410000D01*
X163120000Y-124410000D02*
X165780000Y-124410000D01*
X163120000Y-116670000D02*
X164450000Y-116670000D01*
X163120000Y-118000000D02*
X163120000Y-116670000D01*
X163120000Y-119270000D02*
X165780000Y-119270000D01*
%TO.C,R22*%
X186322936Y-96190000D02*
X186777064Y-96190000D01*
X186322936Y-97660000D02*
X186777064Y-97660000D01*
%TO.C,R1*%
X170064564Y-118110000D02*
X169610436Y-118110000D01*
X170064564Y-116640000D02*
X169610436Y-116640000D01*
%TO.C,C9*%
X177065000Y-87829437D02*
X177065000Y-95485000D01*
X184435000Y-86025000D02*
X183435000Y-86025000D01*
X185785000Y-95485000D02*
X182935000Y-95485000D01*
X178129437Y-86765000D02*
X179915000Y-86765000D01*
X184720563Y-86765000D02*
X182935000Y-86765000D01*
X183935000Y-85525000D02*
X183935000Y-86525000D01*
X177065000Y-95485000D02*
X179915000Y-95485000D01*
X178129437Y-86765000D02*
X177065000Y-87829437D01*
X185785000Y-87829437D02*
X185785000Y-95485000D01*
X184720563Y-86765000D02*
X185785000Y-87829437D01*
%TO.C,R21*%
X180910000Y-104452064D02*
X180910000Y-103997936D01*
X179440000Y-104452064D02*
X179440000Y-103997936D01*
%TO.C,R23*%
X191347936Y-98040000D02*
X191802064Y-98040000D01*
X191347936Y-99510000D02*
X191802064Y-99510000D01*
%TO.C,R6*%
X166139564Y-109415000D02*
X165685436Y-109415000D01*
X166139564Y-110885000D02*
X165685436Y-110885000D01*
%TO.C,C12*%
X169697936Y-99790000D02*
X170152064Y-99790000D01*
X169697936Y-101260000D02*
X170152064Y-101260000D01*
%TO.C,R15*%
X175885000Y-80902064D02*
X175885000Y-80447936D01*
X174415000Y-80902064D02*
X174415000Y-80447936D01*
%TO.C,SW3*%
X120425000Y-108250000D02*
X120425000Y-112750000D01*
X126925000Y-112750000D02*
X126925000Y-108250000D01*
X122925000Y-114000000D02*
X124425000Y-114000000D01*
X124425000Y-107000000D02*
X122925000Y-107000000D01*
%TO.C,C5*%
X166148752Y-101260000D02*
X165626248Y-101260000D01*
X166148752Y-99790000D02*
X165626248Y-99790000D01*
%TO.C,R29*%
X130122936Y-91740000D02*
X130577064Y-91740000D01*
X130122936Y-93210000D02*
X130577064Y-93210000D01*
%TO.C,R2*%
X166139564Y-115685000D02*
X165685436Y-115685000D01*
X166139564Y-114215000D02*
X165685436Y-114215000D01*
%TO.C,R25*%
X184827064Y-123435000D02*
X184372936Y-123435000D01*
X184827064Y-121965000D02*
X184372936Y-121965000D01*
%TO.C,J6*%
X124830000Y-99505000D02*
X122230000Y-99505000D01*
X126100000Y-96845000D02*
X127430000Y-96845000D01*
X124830000Y-96845000D02*
X124830000Y-99505000D01*
X122230000Y-96845000D02*
X122230000Y-99505000D01*
X124830000Y-96845000D02*
X122230000Y-96845000D01*
X127430000Y-96845000D02*
X127430000Y-98175000D01*
%TO.C,R10*%
X166102064Y-105910000D02*
X165647936Y-105910000D01*
X166102064Y-104440000D02*
X165647936Y-104440000D01*
%TO.C,R30*%
X130122936Y-95740000D02*
X130577064Y-95740000D01*
X130122936Y-97210000D02*
X130577064Y-97210000D01*
%TO.C,J7*%
X124830000Y-100520000D02*
X122230000Y-100520000D01*
X127430000Y-100520000D02*
X127430000Y-101850000D01*
X124830000Y-100520000D02*
X124830000Y-103180000D01*
X124830000Y-103180000D02*
X122230000Y-103180000D01*
X126100000Y-100520000D02*
X127430000Y-100520000D01*
X122230000Y-100520000D02*
X122230000Y-103180000D01*
%TO.C,R14*%
X132565000Y-108852064D02*
X132565000Y-108397936D01*
X134035000Y-108852064D02*
X134035000Y-108397936D01*
%TO.C,J2*%
X163170000Y-91880000D02*
X163170000Y-74040000D01*
X165830000Y-93150000D02*
X165830000Y-94480000D01*
X165830000Y-91880000D02*
X165830000Y-74040000D01*
X165830000Y-74040000D02*
X163170000Y-74040000D01*
X165830000Y-94480000D02*
X164500000Y-94480000D01*
X165830000Y-91880000D02*
X163170000Y-91880000D01*
%TD*%
M02*
