M48
; DRILL file {KiCad 6.0.7-f9a2dced07~116~ubuntu20.04.1} date So 02 Okt 2022 19:47:39 CEST
; FORMAT={-:-/ absolute / inch / decimal}
; #@! TF.CreationDate,2022-10-02T19:47:39+02:00
; #@! TF.GenerationSoftware,Kicad,Pcbnew,6.0.7-f9a2dced07~116~ubuntu20.04.1
; #@! TF.FileFunction,Plated,1,2,PTH
FMAT,2
INCH
; #@! TA.AperFunction,Plated,PTH,ViaDrill
T1C0.0157
; #@! TA.AperFunction,Plated,PTH,ComponentDrill
T2C0.0394
; #@! TA.AperFunction,Plated,PTH,ComponentDrill
T3C0.0402
; #@! TA.AperFunction,Plated,PTH,ComponentDrill
T4C0.0433
%
G90
G05
T1
X4.4665Y-3.8907
X4.4675Y-2.9783
X4.4685Y-3.4341
X4.4695Y-4.2933
X4.4715Y-3.2047
X4.4715Y-4.0866
X4.6309Y-4.1634
X4.6329Y-4.8711
X4.8179Y-3.499
X4.9055Y-3.4134
X4.9518Y-3.6309
X4.9665Y-3.3189
X5.0039Y-3.1614
X5.0285Y-3.0679
X5.0354Y-3.4685
X5.0413Y-3.5394
X5.0512Y-3.2057
X5.064Y-3.1663
X5.0866Y-4.1486
X5.0935Y-3.0788
X5.1132Y-4.8573
X5.1663Y-4.1496
X5.2293Y-2.7205
X5.247Y-4.1496
X5.251Y-4.8563
X5.3396Y-2.939
X5.3484Y-2.8819
X5.3533Y-3.2726
X5.3563Y-3.4006
X5.3602Y-3.3396
X5.3652Y-3.0433
X5.5207Y-2.7215
X5.5719Y-4.5551
X5.5719Y-4.7717
X5.5728Y-4.6093
X5.5738Y-4.6624
X5.5748Y-4.7156
X5.6004Y-3.6043
X5.6014Y-3.6772
X5.6142Y-4.0482
X5.6378Y-4.2539
X5.6722Y-4.5246
X5.9783Y-4.0463
X6.0364Y-4.2205
X6.0738Y-3.69
X6.1033Y-4.6516
X6.2904Y-2.7352
X6.3553Y-3.7028
X6.3573Y-3.7726
X6.3671Y-4.6427
X6.5925Y-2.7352
X6.6171Y-3.1152
X6.6289Y-4.8376
X6.6614Y-3.8671
X6.7579Y-4.8386
X6.8317Y-3.872
X6.8474Y-2.7096
X6.8642Y-2.9134
X6.9813Y-3.1024
X7.0728Y-3.8701
X7.0896Y-4.8514
X7.1969Y-3.9478
X7.2195Y-2.9026
X7.2224Y-3.8652
X7.2559Y-2.7205
X7.311Y-3.2736
X7.3848Y-4.9094
X7.4852Y-4.126
X7.5079Y-2.7224
X7.5364Y-3.2648
X7.6565Y-3.2992
X7.6673Y-4.6024
X7.6703Y-4.4026
X7.6742Y-3.125
X7.6772Y-2.8809
X7.6811Y-3.878
X7.686Y-4.0522
T2
X4.5768Y-3.5805
X4.5768Y-3.6805
X4.5768Y-3.7805
X4.8646Y-3.7205
X4.8646Y-3.8652
X4.8646Y-4.0098
X4.9646Y-3.7205
X4.9646Y-3.8652
X4.9646Y-4.0098
X5.7524Y-2.747
X5.8524Y-2.747
X5.9524Y-2.747
X6.4744Y-4.6457
X6.4744Y-4.7457
X6.4744Y-4.8457
X6.4764Y-2.9673
X6.4764Y-3.0673
X6.4764Y-3.1673
X6.4764Y-3.2673
X6.4764Y-3.3673
X6.4764Y-3.4673
X6.4764Y-3.5673
X6.4764Y-3.6673
X7.6201Y-4.1585
X7.6201Y-4.2585
T3
X5.5Y-2.95
X5.5Y-3.05
X5.5Y-3.15
X5.5Y-3.25
X5.5Y-3.35
X5.5Y-3.45
X5.5Y-3.55
X5.5Y-3.65
X5.5Y-3.75
X5.5Y-3.85
X5.5Y-3.95
X5.5Y-4.05
X5.5Y-4.15
X5.5Y-4.25
X5.5Y-4.35
X5.5Y-4.45
X5.5Y-4.55
X5.5Y-4.65
X5.5Y-4.75
X5.5Y-4.85
X5.75Y-2.9591
X5.85Y-2.9591
X5.95Y-2.9591
X6.2Y-2.95
X6.2Y-3.05
X6.2Y-3.15
X6.2Y-3.25
X6.2Y-3.35
X6.2Y-3.45
X6.2Y-3.55
X6.2Y-3.65
X6.2Y-3.75
X6.2Y-3.85
X6.2Y-3.95
X6.2Y-4.05
X6.2Y-4.15
X6.2Y-4.25
X6.2Y-4.35
X6.2Y-4.45
X6.2Y-4.55
X6.2Y-4.65
X6.2Y-4.75
X6.2Y-4.85
T4
X4.4823Y-4.4163
X4.4823Y-4.6722
X4.6594Y-4.4163
X4.6594Y-4.6722
X4.7805Y-4.2224
X4.7805Y-4.4783
X4.7805Y-4.6004
X4.7805Y-4.8563
X4.9577Y-4.2224
X4.9577Y-4.4783
X4.9577Y-4.6004
X4.9577Y-4.8563
X5.0807Y-4.4154
X5.0807Y-4.6713
X5.2579Y-4.4154
X5.2579Y-4.6713
X6.936Y-4.4695
X6.936Y-4.7254
X7.1132Y-4.4695
X7.1132Y-4.7254
X7.253Y-4.4715
X7.253Y-4.7274
X7.4301Y-4.4715
X7.4301Y-4.7274
T0
M30
