%TF.GenerationSoftware,KiCad,Pcbnew,6.0.7-f9a2dced07~116~ubuntu20.04.1*%
%TF.CreationDate,2022-09-22T11:15:32+02:00*%
%TF.ProjectId,piezo_sensor_amplifier,7069657a-6f5f-4736-956e-736f725f616d,1.0*%
%TF.SameCoordinates,Original*%
%TF.FileFunction,Copper,L2,Bot*%
%TF.FilePolarity,Positive*%
%FSLAX46Y46*%
G04 Gerber Fmt 4.6, Leading zero omitted, Abs format (unit mm)*
G04 Created by KiCad (PCBNEW 6.0.7-f9a2dced07~116~ubuntu20.04.1) date 2022-09-22 11:15:32*
%MOMM*%
%LPD*%
G01*
G04 APERTURE LIST*
%TA.AperFunction,ComponentPad*%
%ADD10C,2.400000*%
%TD*%
%TA.AperFunction,ComponentPad*%
%ADD11R,1.700000X1.700000*%
%TD*%
%TA.AperFunction,ComponentPad*%
%ADD12O,1.700000X1.700000*%
%TD*%
%TA.AperFunction,ViaPad*%
%ADD13C,0.800000*%
%TD*%
%TA.AperFunction,Conductor*%
%ADD14C,0.350000*%
%TD*%
G04 APERTURE END LIST*
D10*
%TO.P,Y1,1,out*%
%TO.N,Net-(R3-Pad1)*%
X100000000Y-95000000D03*
%TO.P,Y1,2,GND*%
%TO.N,GND*%
X100000000Y-105000000D03*
%TD*%
D11*
%TO.P,J1,1,Pin_1*%
%TO.N,+3.3V*%
X98044000Y-101600000D03*
D12*
%TO.P,J1,2,Pin_2*%
%TO.N,GND*%
X100584000Y-101600000D03*
%TO.P,J1,3,Pin_3*%
%TO.N,Vout*%
X103124000Y-101600000D03*
%TD*%
D13*
%TO.N,GND*%
X100584000Y-98552000D03*
X95758000Y-103124000D03*
X94996000Y-108204000D03*
X90678000Y-102362000D03*
X90424000Y-98552000D03*
X91948000Y-94742000D03*
X94234000Y-92456000D03*
X97028000Y-90932000D03*
X99822000Y-90424000D03*
X103124000Y-90932000D03*
X105918000Y-92456000D03*
X107950000Y-94742000D03*
X109220000Y-97790000D03*
X109474000Y-101092000D03*
X108458000Y-104140000D03*
X106934000Y-106426000D03*
X104394000Y-108458000D03*
X100330000Y-109474000D03*
%TO.N,+3.3V*%
X96266000Y-101346000D03*
X91694000Y-97282000D03*
%TO.N,Net-(C1-Pad1)*%
X99060000Y-98806000D03*
X94488000Y-99822000D03*
%TD*%
D14*
%TO.N,+3.3V*%
X96266000Y-101346000D02*
X92964000Y-101346000D01*
X92964000Y-101346000D02*
X91694000Y-100076000D01*
X91694000Y-100076000D02*
X91694000Y-97282000D01*
%TO.N,Net-(C1-Pad1)*%
X94488000Y-99822000D02*
X98552000Y-99822000D01*
X98552000Y-99822000D02*
X99060000Y-99314000D01*
X99060000Y-99314000D02*
X99060000Y-98806000D01*
%TD*%
%TA.AperFunction,Conductor*%
%TO.N,GND*%
G36*
X100088970Y-87850941D02*
G01*
X100758723Y-87874329D01*
X100766992Y-87874849D01*
X101434419Y-87935590D01*
X101442645Y-87936571D01*
X101923434Y-88007567D01*
X102105621Y-88034470D01*
X102113816Y-88035915D01*
X102770275Y-88170667D01*
X102778375Y-88172567D01*
X103426292Y-88343754D01*
X103434275Y-88346104D01*
X104071611Y-88553187D01*
X104079449Y-88555978D01*
X104704231Y-88798315D01*
X104711902Y-88801539D01*
X105322211Y-89078388D01*
X105329689Y-89082036D01*
X105923561Y-89392504D01*
X105930824Y-89396563D01*
X106506450Y-89739705D01*
X106513460Y-89744153D01*
X106924161Y-90021174D01*
X107069062Y-90118911D01*
X107075826Y-90123754D01*
X107609607Y-90528916D01*
X107616092Y-90534130D01*
X108126431Y-90968463D01*
X108132608Y-90974025D01*
X108455951Y-91281939D01*
X108617915Y-91436176D01*
X108623778Y-91442080D01*
X109082524Y-91930594D01*
X109088049Y-91936817D01*
X109518813Y-92450182D01*
X109523981Y-92456703D01*
X109925410Y-92993305D01*
X109930206Y-93000104D01*
X110301049Y-93558268D01*
X110305459Y-93565324D01*
X110644584Y-94143348D01*
X110648592Y-94150639D01*
X110954914Y-94746677D01*
X110958509Y-94754181D01*
X111212223Y-95324030D01*
X111231078Y-95366380D01*
X111234248Y-95374070D01*
X111464476Y-95980148D01*
X111472226Y-96000551D01*
X111474958Y-96008397D01*
X111518509Y-96145688D01*
X111677587Y-96647167D01*
X111679881Y-96655165D01*
X111846544Y-97304274D01*
X111848387Y-97312388D01*
X111978549Y-97969753D01*
X111979937Y-97977957D01*
X112073205Y-98641596D01*
X112074132Y-98649865D01*
X112121373Y-99212434D01*
X112130207Y-99317640D01*
X112130672Y-99325948D01*
X112149413Y-99996894D01*
X112149456Y-100003134D01*
X112146925Y-100184423D01*
X112145290Y-100301530D01*
X112144807Y-100336094D01*
X112144590Y-100342324D01*
X112109459Y-100970708D01*
X112107122Y-101012501D01*
X112106426Y-101020779D01*
X112081307Y-101244720D01*
X112031726Y-101686747D01*
X112030568Y-101694987D01*
X111918809Y-102355744D01*
X111917193Y-102363906D01*
X111829747Y-102748803D01*
X111788733Y-102929328D01*
X111768724Y-103017396D01*
X111766656Y-103025451D01*
X111581931Y-103669664D01*
X111579427Y-103677556D01*
X111523242Y-103838900D01*
X111359031Y-104310448D01*
X111356076Y-104318226D01*
X111100711Y-104937789D01*
X111097327Y-104945391D01*
X110854457Y-105452300D01*
X110807763Y-105549757D01*
X110803966Y-105557146D01*
X110658405Y-105821920D01*
X110481113Y-106144413D01*
X110476902Y-106151590D01*
X110121790Y-106719889D01*
X110117186Y-106726819D01*
X109730875Y-107274449D01*
X109725890Y-107281112D01*
X109559389Y-107491184D01*
X109328323Y-107782718D01*
X109309646Y-107806282D01*
X109304305Y-107812648D01*
X109189633Y-107941806D01*
X108859362Y-108313799D01*
X108853673Y-108319856D01*
X108381460Y-108795378D01*
X108375456Y-108801097D01*
X108246526Y-108917186D01*
X107877422Y-109249529D01*
X107871093Y-109254915D01*
X107348822Y-109674831D01*
X107342194Y-109679862D01*
X106797301Y-110069967D01*
X106790403Y-110074620D01*
X106224573Y-110433707D01*
X106217432Y-110437963D01*
X105632437Y-110764906D01*
X105625085Y-110768749D01*
X105240184Y-110956478D01*
X105022766Y-111062520D01*
X105015189Y-111065958D01*
X104397393Y-111325656D01*
X104389635Y-111328665D01*
X103758321Y-111553465D01*
X103750408Y-111556036D01*
X103328856Y-111680106D01*
X103107512Y-111745251D01*
X103099485Y-111747372D01*
X102447035Y-111900402D01*
X102438912Y-111902069D01*
X101778942Y-112018440D01*
X101770710Y-112019656D01*
X101105272Y-112099005D01*
X101096986Y-112099759D01*
X100428158Y-112141838D01*
X100419842Y-112142128D01*
X100060209Y-112144639D01*
X99749724Y-112146806D01*
X99741410Y-112146632D01*
X99072051Y-112113895D01*
X99063783Y-112113259D01*
X98397274Y-112043206D01*
X98389037Y-112042107D01*
X98090403Y-111993739D01*
X97727524Y-111934965D01*
X97719350Y-111933406D01*
X97064832Y-111789501D01*
X97056759Y-111787488D01*
X96874312Y-111736548D01*
X96411300Y-111607272D01*
X96403379Y-111604821D01*
X95768950Y-111388845D01*
X95761156Y-111385945D01*
X95463789Y-111265801D01*
X95139815Y-111134907D01*
X95132205Y-111131582D01*
X94760090Y-110956478D01*
X94525838Y-110846247D01*
X94518411Y-110842496D01*
X93928903Y-110523751D01*
X93921697Y-110519590D01*
X93350923Y-110168447D01*
X93343961Y-110163891D01*
X92793680Y-109781436D01*
X92786983Y-109776499D01*
X92656854Y-109674831D01*
X92258892Y-109363909D01*
X92252500Y-109358622D01*
X92051839Y-109182957D01*
X91748253Y-108917186D01*
X91742148Y-108911533D01*
X91690267Y-108860727D01*
X91263345Y-108442655D01*
X91257578Y-108436682D01*
X90805694Y-107941806D01*
X90800257Y-107935507D01*
X90376712Y-107416189D01*
X90371636Y-107409597D01*
X89977726Y-106867427D01*
X89973025Y-106860562D01*
X89659443Y-106373978D01*
X98991095Y-106373978D01*
X98995398Y-106381432D01*
X99087906Y-106449261D01*
X99097250Y-106455100D01*
X99312130Y-106568154D01*
X99322253Y-106572555D01*
X99551472Y-106652602D01*
X99562136Y-106655459D01*
X99800677Y-106700748D01*
X99811630Y-106701996D01*
X100054250Y-106711529D01*
X100065273Y-106711144D01*
X100306625Y-106684711D01*
X100317484Y-106682699D01*
X100552281Y-106620882D01*
X100562710Y-106617291D01*
X100785797Y-106521445D01*
X100795584Y-106516350D01*
X101002046Y-106388587D01*
X101003885Y-106387251D01*
X101011585Y-106376152D01*
X101006805Y-106366015D01*
X100013871Y-105373081D01*
X100000000Y-105365073D01*
X99986129Y-105373081D01*
X98999103Y-106360107D01*
X98991095Y-106373978D01*
X89659443Y-106373978D01*
X89610004Y-106297264D01*
X89605697Y-106290152D01*
X89274680Y-105707457D01*
X89270774Y-105700110D01*
X88972809Y-105099861D01*
X88969319Y-105092308D01*
X88912908Y-104960692D01*
X98288064Y-104960692D01*
X98299712Y-105203205D01*
X98301058Y-105214165D01*
X98348425Y-105452300D01*
X98351372Y-105462927D01*
X98433423Y-105691457D01*
X98437901Y-105701515D01*
X98552832Y-105915413D01*
X98558757Y-105924712D01*
X98614274Y-105999059D01*
X98626853Y-106008976D01*
X98635107Y-106005683D01*
X99626919Y-105013871D01*
X99634927Y-105000000D01*
X100365073Y-105000000D01*
X100373081Y-105013871D01*
X101362673Y-106003463D01*
X101376544Y-106011471D01*
X101382543Y-106008008D01*
X101502238Y-105821920D01*
X101507497Y-105812235D01*
X101607229Y-105590838D01*
X101610993Y-105580498D01*
X101676903Y-105346796D01*
X101679102Y-105335991D01*
X101709971Y-105093344D01*
X101710540Y-105085905D01*
X101712691Y-105003738D01*
X101712512Y-104996268D01*
X101694385Y-104752356D01*
X101692753Y-104741435D01*
X101639169Y-104504623D01*
X101635943Y-104494073D01*
X101547942Y-104267778D01*
X101543195Y-104257825D01*
X101422709Y-104047021D01*
X101416544Y-104037880D01*
X101386716Y-104000042D01*
X101373883Y-103990460D01*
X101364883Y-103994327D01*
X100373081Y-104986129D01*
X100365073Y-105000000D01*
X99634927Y-105000000D01*
X99626919Y-104986129D01*
X98637887Y-103997097D01*
X98624016Y-103989089D01*
X98614636Y-103994504D01*
X98609126Y-104001129D01*
X98602725Y-104010102D01*
X98476763Y-104217681D01*
X98471755Y-104227510D01*
X98377860Y-104451425D01*
X98374360Y-104461885D01*
X98314593Y-104697218D01*
X98312678Y-104708078D01*
X98288352Y-104949658D01*
X98288064Y-104960692D01*
X88912908Y-104960692D01*
X88728130Y-104529573D01*
X88705318Y-104476348D01*
X88702258Y-104468620D01*
X88644688Y-104310448D01*
X88473053Y-103838884D01*
X88470431Y-103831005D01*
X88408325Y-103625301D01*
X98989058Y-103625301D01*
X98991294Y-103632084D01*
X99986129Y-104626919D01*
X100000000Y-104634927D01*
X100013871Y-104626919D01*
X101001429Y-103639361D01*
X101009437Y-103625490D01*
X101005521Y-103618706D01*
X100873846Y-103527361D01*
X100864348Y-103521766D01*
X100646579Y-103414375D01*
X100636359Y-103410245D01*
X100405110Y-103336221D01*
X100394387Y-103333646D01*
X100154726Y-103294616D01*
X100143756Y-103293657D01*
X99900965Y-103290478D01*
X99889960Y-103291151D01*
X99649373Y-103323894D01*
X99638582Y-103326187D01*
X99405472Y-103394132D01*
X99395148Y-103397993D01*
X99174641Y-103499647D01*
X99165007Y-103504988D01*
X98999722Y-103613353D01*
X98989058Y-103625301D01*
X88408325Y-103625301D01*
X88276726Y-103189423D01*
X88274555Y-103181427D01*
X88169548Y-102747382D01*
X88116975Y-102530068D01*
X88115245Y-102521929D01*
X87994271Y-101862797D01*
X87992998Y-101854575D01*
X87909007Y-101189713D01*
X87908195Y-101181432D01*
X87861447Y-100512912D01*
X87861099Y-100504598D01*
X87851742Y-99834531D01*
X87851858Y-99826211D01*
X87851970Y-99823543D01*
X87879922Y-99156644D01*
X87880501Y-99148359D01*
X87880738Y-99145947D01*
X87945897Y-98481397D01*
X87946939Y-98473148D01*
X87968507Y-98333831D01*
X88049462Y-97810893D01*
X88050963Y-97802713D01*
X88065223Y-97735628D01*
X88091966Y-97609812D01*
X88163215Y-97274611D01*
X90988394Y-97274611D01*
X91006999Y-97443135D01*
X91010087Y-97451572D01*
X91010087Y-97451574D01*
X91017917Y-97472969D01*
X91065266Y-97602356D01*
X91070275Y-97609811D01*
X91070276Y-97609812D01*
X91078431Y-97621947D01*
X91159830Y-97743083D01*
X91166472Y-97749127D01*
X91166474Y-97749129D01*
X91169780Y-97752137D01*
X91171839Y-97755344D01*
X91172343Y-97755928D01*
X91172260Y-97756000D01*
X91211447Y-97817041D01*
X91218500Y-97862341D01*
X91218500Y-100008716D01*
X91218020Y-100020665D01*
X91217501Y-100027120D01*
X91215158Y-100037473D01*
X91215815Y-100048065D01*
X91215815Y-100048067D01*
X91218214Y-100086731D01*
X91218500Y-100095957D01*
X91218500Y-100110145D01*
X91219251Y-100115387D01*
X91219710Y-100118592D01*
X91220928Y-100130482D01*
X91223592Y-100173417D01*
X91227196Y-100183400D01*
X91228967Y-100191953D01*
X91231414Y-100200320D01*
X91232919Y-100210829D01*
X91250732Y-100250008D01*
X91255226Y-100261047D01*
X91269841Y-100301530D01*
X91276104Y-100310102D01*
X91280202Y-100317810D01*
X91284901Y-100325158D01*
X91289294Y-100334820D01*
X91296222Y-100342860D01*
X91296223Y-100342862D01*
X91317378Y-100367414D01*
X91324813Y-100376777D01*
X91331577Y-100386035D01*
X91341018Y-100395476D01*
X91348536Y-100403573D01*
X91367767Y-100425891D01*
X91378204Y-100438004D01*
X91387112Y-100443778D01*
X91395109Y-100450754D01*
X91394798Y-100451110D01*
X91404507Y-100458965D01*
X92580191Y-101634649D01*
X92588301Y-101643437D01*
X92592498Y-101648369D01*
X92598165Y-101657350D01*
X92635177Y-101690038D01*
X92641885Y-101696343D01*
X92651915Y-101706373D01*
X92656149Y-101709546D01*
X92656151Y-101709548D01*
X92658739Y-101711487D01*
X92668001Y-101719027D01*
X92700255Y-101747513D01*
X92709868Y-101752026D01*
X92717171Y-101756823D01*
X92724812Y-101761007D01*
X92733305Y-101767372D01*
X92743242Y-101771097D01*
X92743247Y-101771100D01*
X92773603Y-101782480D01*
X92784621Y-101787122D01*
X92823548Y-101805399D01*
X92834036Y-101807032D01*
X92842393Y-101809587D01*
X92850904Y-101811458D01*
X92860843Y-101815184D01*
X92871430Y-101815971D01*
X92871432Y-101815971D01*
X92903733Y-101818371D01*
X92915613Y-101819735D01*
X92921256Y-101820614D01*
X92921277Y-101820616D01*
X92926956Y-101821500D01*
X92940320Y-101821500D01*
X92951361Y-101821910D01*
X92996674Y-101825277D01*
X93007056Y-101823061D01*
X93017646Y-101822339D01*
X93017678Y-101822811D01*
X93030093Y-101821500D01*
X95690030Y-101821500D01*
X95764530Y-101841462D01*
X95790309Y-101860295D01*
X95838522Y-101904165D01*
X95857233Y-101921191D01*
X95865128Y-101925478D01*
X95865130Y-101925479D01*
X95998344Y-101997808D01*
X95998347Y-101997809D01*
X96006235Y-102002092D01*
X96043743Y-102011932D01*
X96161549Y-102042838D01*
X96161551Y-102042838D01*
X96170233Y-102045116D01*
X96179209Y-102045257D01*
X96330781Y-102047638D01*
X96339760Y-102047779D01*
X96505029Y-102009928D01*
X96656498Y-101933747D01*
X96662515Y-101928608D01*
X96735142Y-101904165D01*
X96810749Y-101919409D01*
X96868604Y-101970414D01*
X96893206Y-102043513D01*
X96893500Y-102052871D01*
X96893500Y-102494646D01*
X96896618Y-102520846D01*
X96942061Y-102623153D01*
X97021287Y-102702241D01*
X97033867Y-102707803D01*
X97033869Y-102707804D01*
X97113426Y-102742976D01*
X97123673Y-102747506D01*
X97138318Y-102749213D01*
X97145070Y-102750001D01*
X97145078Y-102750001D01*
X97149354Y-102750500D01*
X98938646Y-102750500D01*
X98964846Y-102747382D01*
X99067153Y-102701939D01*
X99146241Y-102622713D01*
X99175931Y-102555558D01*
X99186976Y-102530574D01*
X99186976Y-102530573D01*
X99191506Y-102520327D01*
X99194500Y-102494646D01*
X99194500Y-102460044D01*
X99214462Y-102385544D01*
X99269000Y-102331006D01*
X99343500Y-102311044D01*
X99418000Y-102331006D01*
X99470543Y-102382190D01*
X99481198Y-102399576D01*
X99488403Y-102409422D01*
X99626591Y-102568950D01*
X99635311Y-102577489D01*
X99797716Y-102712320D01*
X99807686Y-102719302D01*
X99989945Y-102825805D01*
X100000920Y-102831064D01*
X100198127Y-102906370D01*
X100209817Y-102909766D01*
X100310778Y-102930306D01*
X100326765Y-102929328D01*
X100330000Y-102922840D01*
X100330000Y-102917016D01*
X100838000Y-102917016D01*
X100842145Y-102932487D01*
X100851271Y-102934932D01*
X100861244Y-102933654D01*
X100873167Y-102931120D01*
X101075348Y-102870463D01*
X101086691Y-102866017D01*
X101276245Y-102773156D01*
X101286715Y-102766915D01*
X101458552Y-102644345D01*
X101467874Y-102636467D01*
X101617381Y-102487480D01*
X101625281Y-102478198D01*
X101748451Y-102306789D01*
X101754734Y-102296333D01*
X101835502Y-102132910D01*
X101886406Y-102074967D01*
X101959463Y-102050239D01*
X102035096Y-102065352D01*
X102093039Y-102116256D01*
X102104390Y-102136545D01*
X102123369Y-102177714D01*
X102127305Y-102183284D01*
X102127306Y-102183285D01*
X102214590Y-102306789D01*
X102245405Y-102350391D01*
X102396865Y-102497937D01*
X102572677Y-102615411D01*
X102578945Y-102618104D01*
X102578947Y-102618105D01*
X102621686Y-102636467D01*
X102766953Y-102698878D01*
X102973186Y-102745544D01*
X103024544Y-102747562D01*
X103177641Y-102753578D01*
X103177645Y-102753578D01*
X103184470Y-102753846D01*
X103393730Y-102723504D01*
X103400187Y-102721312D01*
X103400192Y-102721311D01*
X103536083Y-102675182D01*
X103593955Y-102655537D01*
X103688713Y-102602470D01*
X103772481Y-102555558D01*
X103772486Y-102555554D01*
X103778442Y-102552219D01*
X103941012Y-102417012D01*
X104076219Y-102254442D01*
X104079554Y-102248486D01*
X104079558Y-102248481D01*
X104126470Y-102164713D01*
X104179537Y-102069955D01*
X104224403Y-101937783D01*
X104245311Y-101876192D01*
X104245312Y-101876187D01*
X104247504Y-101869730D01*
X104277846Y-101660470D01*
X104279429Y-101600000D01*
X104260081Y-101389440D01*
X104202686Y-101185931D01*
X104109165Y-100996290D01*
X104105084Y-100990825D01*
X104105081Y-100990820D01*
X103986739Y-100832341D01*
X103986737Y-100832339D01*
X103982651Y-100826867D01*
X103827381Y-100683337D01*
X103648554Y-100570505D01*
X103642215Y-100567976D01*
X103642209Y-100567973D01*
X103458504Y-100494683D01*
X103452160Y-100492152D01*
X103381475Y-100478092D01*
X103251478Y-100452234D01*
X103251475Y-100452234D01*
X103244775Y-100450901D01*
X103137762Y-100449500D01*
X103040180Y-100448222D01*
X103040175Y-100448222D01*
X103033346Y-100448133D01*
X103026613Y-100449290D01*
X103026612Y-100449290D01*
X102831684Y-100482784D01*
X102831680Y-100482785D01*
X102824953Y-100483941D01*
X102626575Y-100557127D01*
X102620702Y-100560621D01*
X102593429Y-100576847D01*
X102444856Y-100665238D01*
X102418067Y-100688731D01*
X102291022Y-100800146D01*
X102291019Y-100800149D01*
X102285881Y-100804655D01*
X102262920Y-100833781D01*
X102159207Y-100965340D01*
X102159203Y-100965346D01*
X102154976Y-100970708D01*
X102151797Y-100976751D01*
X102151794Y-100976755D01*
X102100482Y-101074284D01*
X102048128Y-101130920D01*
X101974469Y-101153792D01*
X101899242Y-101136770D01*
X101842606Y-101084416D01*
X101831977Y-101064320D01*
X101787350Y-100961685D01*
X101781590Y-100950942D01*
X101666937Y-100773716D01*
X101659504Y-100764063D01*
X101517440Y-100607937D01*
X101508534Y-100599632D01*
X101342880Y-100468807D01*
X101332725Y-100462060D01*
X101147939Y-100360053D01*
X101136813Y-100355053D01*
X100937859Y-100284599D01*
X100926057Y-100281480D01*
X100857310Y-100269235D01*
X100841355Y-100270603D01*
X100838000Y-100277764D01*
X100838000Y-102917016D01*
X100330000Y-102917016D01*
X100330000Y-100284603D01*
X100325855Y-100269132D01*
X100317515Y-100266898D01*
X100274256Y-100273517D01*
X100262394Y-100276343D01*
X100061759Y-100341920D01*
X100050532Y-100346639D01*
X99863300Y-100444107D01*
X99852981Y-100450605D01*
X99684185Y-100577341D01*
X99675073Y-100585431D01*
X99529248Y-100738029D01*
X99521569Y-100747511D01*
X99466589Y-100828108D01*
X99408115Y-100878404D01*
X99332328Y-100892724D01*
X99259535Y-100867232D01*
X99209239Y-100808758D01*
X99194500Y-100744143D01*
X99194500Y-100705354D01*
X99191382Y-100679154D01*
X99145939Y-100576847D01*
X99066713Y-100497759D01*
X99054133Y-100492197D01*
X99054131Y-100492196D01*
X98974574Y-100457024D01*
X98974573Y-100457024D01*
X98964327Y-100452494D01*
X98938646Y-100449500D01*
X98938819Y-100448013D01*
X98872002Y-100425891D01*
X98820713Y-100368287D01*
X98805098Y-100292757D01*
X98829340Y-100219537D01*
X98856928Y-100188213D01*
X98857397Y-100187812D01*
X98862035Y-100184423D01*
X98871476Y-100174982D01*
X98879573Y-100167464D01*
X98905963Y-100144725D01*
X98905964Y-100144724D01*
X98914004Y-100137796D01*
X98919778Y-100128888D01*
X98926754Y-100120891D01*
X98927110Y-100121202D01*
X98934965Y-100111493D01*
X99348649Y-99697809D01*
X99357437Y-99689699D01*
X99362369Y-99685502D01*
X99371350Y-99679835D01*
X99404038Y-99642823D01*
X99410343Y-99636115D01*
X99420373Y-99626085D01*
X99425491Y-99619256D01*
X99433027Y-99609999D01*
X99461513Y-99577745D01*
X99466027Y-99568131D01*
X99470826Y-99560824D01*
X99475007Y-99553188D01*
X99481372Y-99544695D01*
X99496475Y-99504406D01*
X99501112Y-99493402D01*
X99519399Y-99454452D01*
X99521032Y-99443966D01*
X99523582Y-99435626D01*
X99525457Y-99427096D01*
X99529183Y-99417157D01*
X99531850Y-99381271D01*
X99557279Y-99308455D01*
X99570763Y-99291458D01*
X99572596Y-99289465D01*
X99579423Y-99283634D01*
X99584659Y-99276347D01*
X99584662Y-99276344D01*
X99673124Y-99153236D01*
X99673126Y-99153232D01*
X99678361Y-99145947D01*
X99688377Y-99121031D01*
X99738251Y-98996969D01*
X99738252Y-98996964D01*
X99741601Y-98988634D01*
X99765490Y-98820778D01*
X99765645Y-98806000D01*
X99745276Y-98637680D01*
X99685345Y-98479077D01*
X99589312Y-98339349D01*
X99582604Y-98333372D01*
X99469428Y-98232535D01*
X99469424Y-98232532D01*
X99462721Y-98226560D01*
X99454783Y-98222357D01*
X99454780Y-98222355D01*
X99320823Y-98151429D01*
X99312881Y-98147224D01*
X99304168Y-98145035D01*
X99304167Y-98145035D01*
X99231691Y-98126830D01*
X99148441Y-98105919D01*
X99044002Y-98105372D01*
X98987873Y-98105078D01*
X98978895Y-98105031D01*
X98970164Y-98107127D01*
X98970165Y-98107127D01*
X98822765Y-98142515D01*
X98822762Y-98142516D01*
X98814032Y-98144612D01*
X98806053Y-98148730D01*
X98806051Y-98148731D01*
X98800824Y-98151429D01*
X98663369Y-98222375D01*
X98656602Y-98228279D01*
X98656598Y-98228281D01*
X98651722Y-98232535D01*
X98535604Y-98333831D01*
X98438113Y-98472547D01*
X98376524Y-98630513D01*
X98354394Y-98798611D01*
X98372999Y-98967135D01*
X98376087Y-98975572D01*
X98376087Y-98975574D01*
X98383917Y-98996969D01*
X98431266Y-99126356D01*
X98432205Y-99127753D01*
X98447536Y-99199885D01*
X98423700Y-99273237D01*
X98404099Y-99297443D01*
X98398683Y-99302859D01*
X98331888Y-99341423D01*
X98293324Y-99346500D01*
X95064129Y-99346500D01*
X94989629Y-99326538D01*
X94965009Y-99308748D01*
X94897432Y-99248539D01*
X94897430Y-99248538D01*
X94890721Y-99242560D01*
X94882783Y-99238357D01*
X94882780Y-99238355D01*
X94748823Y-99167429D01*
X94740881Y-99163224D01*
X94732168Y-99161035D01*
X94732167Y-99161035D01*
X94659691Y-99142830D01*
X94576441Y-99121919D01*
X94472002Y-99121372D01*
X94415873Y-99121078D01*
X94406895Y-99121031D01*
X94384715Y-99126356D01*
X94250765Y-99158515D01*
X94250762Y-99158516D01*
X94242032Y-99160612D01*
X94234053Y-99164730D01*
X94234051Y-99164731D01*
X94099353Y-99234254D01*
X94091369Y-99238375D01*
X94084602Y-99244279D01*
X94084598Y-99244281D01*
X94000505Y-99317640D01*
X93963604Y-99349831D01*
X93866113Y-99488547D01*
X93804524Y-99646513D01*
X93782394Y-99814611D01*
X93800999Y-99983135D01*
X93804087Y-99991572D01*
X93804087Y-99991574D01*
X93810360Y-100008716D01*
X93859266Y-100142356D01*
X93864275Y-100149811D01*
X93864276Y-100149812D01*
X93947402Y-100273517D01*
X93953830Y-100283083D01*
X93960472Y-100289126D01*
X93960473Y-100289128D01*
X94066973Y-100386035D01*
X94079233Y-100397191D01*
X94087128Y-100401478D01*
X94087130Y-100401479D01*
X94220344Y-100473808D01*
X94220347Y-100473809D01*
X94228235Y-100478092D01*
X94291476Y-100494683D01*
X94383549Y-100518838D01*
X94383551Y-100518838D01*
X94392233Y-100521116D01*
X94401209Y-100521257D01*
X94552781Y-100523638D01*
X94561760Y-100523779D01*
X94727029Y-100485928D01*
X94878498Y-100409747D01*
X94968123Y-100333199D01*
X95037736Y-100299995D01*
X95064890Y-100297500D01*
X96861784Y-100297500D01*
X96936284Y-100317462D01*
X96990822Y-100372000D01*
X97010784Y-100446500D01*
X96990822Y-100521000D01*
X96967235Y-100551766D01*
X96941759Y-100577287D01*
X96936197Y-100589867D01*
X96936196Y-100589869D01*
X96910449Y-100648107D01*
X96896494Y-100679673D01*
X96895699Y-100686496D01*
X96858104Y-100750959D01*
X96791141Y-100789230D01*
X96714014Y-100788893D01*
X96671525Y-100769058D01*
X96668721Y-100766560D01*
X96518881Y-100687224D01*
X96510168Y-100685035D01*
X96510167Y-100685035D01*
X96417446Y-100661745D01*
X96354441Y-100645919D01*
X96250002Y-100645372D01*
X96193873Y-100645078D01*
X96184895Y-100645031D01*
X96176164Y-100647127D01*
X96176165Y-100647127D01*
X96028765Y-100682515D01*
X96028762Y-100682516D01*
X96020032Y-100684612D01*
X96012053Y-100688730D01*
X96012051Y-100688731D01*
X95979845Y-100705354D01*
X95869369Y-100762375D01*
X95862595Y-100768284D01*
X95862594Y-100768285D01*
X95787514Y-100833781D01*
X95718251Y-100867713D01*
X95689566Y-100870500D01*
X93222676Y-100870500D01*
X93148176Y-100850538D01*
X93117317Y-100826859D01*
X92213141Y-99922683D01*
X92174577Y-99855888D01*
X92169500Y-99817324D01*
X92169500Y-97863898D01*
X92189462Y-97789398D01*
X92207798Y-97764439D01*
X92213423Y-97759634D01*
X92230866Y-97735360D01*
X92307124Y-97629236D01*
X92307126Y-97629232D01*
X92312361Y-97621947D01*
X92323628Y-97593920D01*
X92372251Y-97472969D01*
X92372252Y-97472964D01*
X92375601Y-97464634D01*
X92399490Y-97296778D01*
X92399645Y-97282000D01*
X92379276Y-97113680D01*
X92319345Y-96955077D01*
X92223312Y-96815349D01*
X92216604Y-96809372D01*
X92103428Y-96708535D01*
X92103424Y-96708532D01*
X92096721Y-96702560D01*
X92088783Y-96698357D01*
X92088780Y-96698355D01*
X91954823Y-96627429D01*
X91946881Y-96623224D01*
X91938168Y-96621035D01*
X91938167Y-96621035D01*
X91865691Y-96602830D01*
X91782441Y-96581919D01*
X91678002Y-96581372D01*
X91621873Y-96581078D01*
X91612895Y-96581031D01*
X91604164Y-96583127D01*
X91604165Y-96583127D01*
X91456765Y-96618515D01*
X91456762Y-96618516D01*
X91448032Y-96620612D01*
X91440053Y-96624730D01*
X91440051Y-96624731D01*
X91305353Y-96694254D01*
X91297369Y-96698375D01*
X91290602Y-96704279D01*
X91290598Y-96704281D01*
X91285722Y-96708535D01*
X91169604Y-96809831D01*
X91072113Y-96948547D01*
X91010524Y-97106513D01*
X90988394Y-97274611D01*
X88163215Y-97274611D01*
X88190297Y-97147203D01*
X88192254Y-97139116D01*
X88367951Y-96492442D01*
X88370355Y-96484476D01*
X88581894Y-95848567D01*
X88584740Y-95840749D01*
X88608623Y-95780427D01*
X88831435Y-95217667D01*
X88834711Y-95210024D01*
X88834932Y-95209545D01*
X88948753Y-94963214D01*
X98494806Y-94963214D01*
X98509010Y-95209545D01*
X98563255Y-95450249D01*
X98656084Y-95678861D01*
X98659278Y-95684073D01*
X98760081Y-95848567D01*
X98785006Y-95889241D01*
X98946557Y-96075741D01*
X98951268Y-96079653D01*
X98951272Y-96079656D01*
X99061071Y-96170812D01*
X99136399Y-96233351D01*
X99349433Y-96357838D01*
X99355133Y-96360015D01*
X99355136Y-96360016D01*
X99574234Y-96443681D01*
X99574240Y-96443683D01*
X99579939Y-96445859D01*
X99585920Y-96447076D01*
X99585924Y-96447077D01*
X99674698Y-96465138D01*
X99821726Y-96495052D01*
X99827835Y-96495276D01*
X100062183Y-96503869D01*
X100062187Y-96503869D01*
X100068300Y-96504093D01*
X100313041Y-96472741D01*
X100446250Y-96432777D01*
X100543522Y-96403594D01*
X100543526Y-96403593D01*
X100549374Y-96401838D01*
X100770954Y-96293287D01*
X100971829Y-96150004D01*
X101146605Y-95975837D01*
X101208831Y-95889241D01*
X101287021Y-95780427D01*
X101290588Y-95775463D01*
X101399911Y-95554264D01*
X101439410Y-95424258D01*
X101469862Y-95324030D01*
X101469863Y-95324026D01*
X101471639Y-95318180D01*
X101503845Y-95073550D01*
X101505643Y-95000000D01*
X101485425Y-94754089D01*
X101474849Y-94711981D01*
X101426805Y-94520711D01*
X101425316Y-94514783D01*
X101413898Y-94488522D01*
X101329367Y-94294117D01*
X101326928Y-94288507D01*
X101192905Y-94081339D01*
X101026846Y-93898842D01*
X100833210Y-93745918D01*
X100827857Y-93742963D01*
X100827854Y-93742961D01*
X100725204Y-93686296D01*
X100617198Y-93626673D01*
X100384610Y-93544309D01*
X100378595Y-93543238D01*
X100378593Y-93543237D01*
X100287247Y-93526966D01*
X100141694Y-93501039D01*
X100135581Y-93500964D01*
X100135578Y-93500964D01*
X100031654Y-93499695D01*
X99894972Y-93498025D01*
X99868263Y-93502112D01*
X99657107Y-93534423D01*
X99657104Y-93534424D01*
X99651070Y-93535347D01*
X99416540Y-93612003D01*
X99197679Y-93725935D01*
X99000364Y-93874083D01*
X98996140Y-93878503D01*
X98996139Y-93878504D01*
X98834123Y-94048044D01*
X98834119Y-94048048D01*
X98829896Y-94052468D01*
X98826449Y-94057520D01*
X98826449Y-94057521D01*
X98806700Y-94086472D01*
X98690851Y-94256300D01*
X98586965Y-94480104D01*
X98521026Y-94717871D01*
X98520377Y-94723948D01*
X98520376Y-94723951D01*
X98517146Y-94754181D01*
X98494806Y-94963214D01*
X88948753Y-94963214D01*
X89115808Y-94601674D01*
X89119506Y-94594226D01*
X89434117Y-94002529D01*
X89438227Y-93995294D01*
X89785378Y-93422080D01*
X89789885Y-93415086D01*
X90168496Y-92862138D01*
X90173387Y-92855406D01*
X90582274Y-92324456D01*
X90587533Y-92318008D01*
X91025416Y-91810716D01*
X91031026Y-91804572D01*
X91496547Y-91322510D01*
X91502492Y-91316688D01*
X91994209Y-90861353D01*
X92000470Y-90855873D01*
X92516813Y-90428717D01*
X92523370Y-90423594D01*
X93062759Y-90025923D01*
X93069591Y-90021174D01*
X93630355Y-89654220D01*
X93637437Y-89649863D01*
X93674476Y-89628479D01*
X94076166Y-89396563D01*
X94217805Y-89314788D01*
X94225124Y-89310831D01*
X94571661Y-89135782D01*
X94823294Y-89008673D01*
X94830789Y-89005146D01*
X95444904Y-88736846D01*
X95452619Y-88733729D01*
X95662005Y-88655859D01*
X96080745Y-88500131D01*
X96088613Y-88497453D01*
X96728781Y-88299288D01*
X96736794Y-88297050D01*
X96766825Y-88289562D01*
X97387054Y-88134922D01*
X97395137Y-88133145D01*
X97904835Y-88035915D01*
X98053442Y-88007567D01*
X98061656Y-88006237D01*
X98725901Y-87917607D01*
X98734174Y-87916737D01*
X98830569Y-87909320D01*
X99402359Y-87865324D01*
X99410669Y-87864918D01*
X99824582Y-87856247D01*
X100080663Y-87850883D01*
X100088970Y-87850941D01*
G37*
%TD.AperFunction*%
%TD*%
M02*
