%TF.GenerationSoftware,KiCad,Pcbnew,6.0.7-f9a2dced07~116~ubuntu20.04.1*%
%TF.CreationDate,2022-09-22T11:15:32+02:00*%
%TF.ProjectId,piezo_sensor_amplifier,7069657a-6f5f-4736-956e-736f725f616d,1.0*%
%TF.SameCoordinates,Original*%
%TF.FileFunction,Legend,Bot*%
%TF.FilePolarity,Positive*%
%FSLAX46Y46*%
G04 Gerber Fmt 4.6, Leading zero omitted, Abs format (unit mm)*
G04 Created by KiCad (PCBNEW 6.0.7-f9a2dced07~116~ubuntu20.04.1) date 2022-09-22 11:15:32*
%MOMM*%
%LPD*%
G01*
G04 APERTURE LIST*
%ADD10C,0.150000*%
G04 APERTURE END LIST*
D10*
%TO.C,Y1*%
X100552190Y-92178190D02*
X100552190Y-92654380D01*
X100885523Y-91654380D02*
X100552190Y-92178190D01*
X100218857Y-91654380D01*
X99361714Y-92654380D02*
X99933142Y-92654380D01*
X99647428Y-92654380D02*
X99647428Y-91654380D01*
X99742666Y-91797238D01*
X99837904Y-91892476D01*
X99933142Y-91940095D01*
X100837904Y-106688000D02*
X100933142Y-106640380D01*
X101076000Y-106640380D01*
X101218857Y-106688000D01*
X101314095Y-106783238D01*
X101361714Y-106878476D01*
X101409333Y-107068952D01*
X101409333Y-107211809D01*
X101361714Y-107402285D01*
X101314095Y-107497523D01*
X101218857Y-107592761D01*
X101076000Y-107640380D01*
X100980761Y-107640380D01*
X100837904Y-107592761D01*
X100790285Y-107545142D01*
X100790285Y-107211809D01*
X100980761Y-107211809D01*
X100361714Y-107640380D02*
X100361714Y-106640380D01*
X99790285Y-107640380D01*
X99790285Y-106640380D01*
X99314095Y-107640380D02*
X99314095Y-106640380D01*
X99076000Y-106640380D01*
X98933142Y-106688000D01*
X98837904Y-106783238D01*
X98790285Y-106878476D01*
X98742666Y-107068952D01*
X98742666Y-107211809D01*
X98790285Y-107402285D01*
X98837904Y-107497523D01*
X98933142Y-107592761D01*
X99076000Y-107640380D01*
X99314095Y-107640380D01*
%TD*%
M02*
